<?xml version="1.0" standalone="no"?>
<!DOCTYPE svg PUBLIC "-//W3C//DTD SVG 1.1//EN" "http://www.w3.org/Graphics/SVG/1.1/DTD/svg11.dtd" >
<svg xmlns="http://www.w3.org/2000/svg" xmlns:xlink="http://www.w3.org/1999/xlink" version="1.1">
<metadata>
Created by FontForge 20170731 at Fri Jul 15 09:31:00 2022
 By Aleksey,,,
Copyright (c) 2014 by Yellow Design Studio. All rights reserved.
</metadata>
<defs>
<font id="EvelethCleanShadow" horiz-adv-x="1669" >
  <font-face 
    font-family="Eveleth Clean Shadow"
    font-weight="1000"
    font-stretch="normal"
    units-per-em="2048"
    panose-1="2 1 10 4 2 2 0 0 0 3"
    ascent="1638"
    descent="-410"
    x-height="1169"
    cap-height="1485"
    bbox="15.1951 -756 3224 2085"
    underline-thickness="102"
    underline-position="-255"
    unicode-range="U+0020-F8FF"
  />
<missing-glyph horiz-adv-x="624" 
 />
    <glyph glyph-name=".notdef" horiz-adv-x="624" 
 />
    <glyph glyph-name=".null" horiz-adv-x="0" 
 />
    <glyph glyph-name="nonmarkingreturn" horiz-adv-x="682" 
 />
    <glyph glyph-name="space" unicode=" " horiz-adv-x="575" 
 />
    <glyph glyph-name="exclam" unicode="!" horiz-adv-x="661" 
d="M584 518q-1 -20 -16 -33.5t-36 -15.5q-45 36 -86 51h33q20 0 36 14.5t17 34.5l84 916h7q20 0 33.5 -14.5t11.5 -34.5zM645 268q55 -68 55 -157q0 -106 -76 -182t-182 -76q-89 0 -157 55q28 -4 45 -4q22 0 32 2q10 -2 29 -2q106 0 182 76t76 182q0 18 -2 28q2 10 2 33
q0 17 -4 45z" />
    <glyph glyph-name="quotedbl" unicode="&#x22;" horiz-adv-x="1058" 
d="M1032 1485q20 0 33.5 -14.5t11.5 -34.5l-53 -615q-1 -20 -17 -34.5t-36 -14.5h-176q-20 0 -36.5 14.5t-17.5 34.5v2h179q20 0 36 14.5t17 34.5l53 613h6zM496 872l39 443l26 -320l-14 -174q-1 -20 -17 -34.5t-36 -14.5h-177q-20 0 -36 14.5t-17 34.5v2h178
q20 0 36.5 14.5t17.5 34.5z" />
    <glyph glyph-name="numbersign" unicode="#" horiz-adv-x="1609" 
d="M1491 1436l-18 -109h-62l29 158h10q19 0 31.5 -14.5t9.5 -34.5zM944 1436l-18 -109h-62l29 158h10q19 0 31.5 -14.5t9.5 -34.5zM1593 1153q20 0 34.5 -14.5t14.5 -34.5v-254q0 -20 -14.5 -34.5t-34.5 -14.5h-172q-18 0 -32 -11.5t-17 -29.5l-2 -17h-59l10 68
q3 18 17 29.5t32 11.5h172q20 0 34.5 14.5t14.5 34.5v252h2zM774 811q3 18 17 29.5t32 11.5h33l-10 -59q-18 -15 -21 -33l-2 -17h-59zM1493 569q20 0 34.5 -14.5t14.5 -34.5v-252q0 -20 -14.5 -34.5t-34.5 -14.5h-174q-18 0 -31 -11.5t-16 -29.5l-43 -241q-3 -22 -19.5 -36
t-38.5 -14h-239q-19 0 -31.5 15t-9.5 35v2h229q22 0 38.5 13.5t19.5 35.5l43 241q3 18 16 29.5t31 11.5h174q20 0 34.5 14.5t14.5 34.5v250h2zM674 229q3 18 16 29.5t31 11.5h35l-11 -59q-17 -14 -20 -33l-43 -241q-3 -22 -19 -36t-38 -14h-240q-19 0 -31.5 15t-9.5 35v2
h229q22 0 38.5 13.5t19.5 35.5z" />
    <glyph glyph-name="dollar" unicode="$" horiz-adv-x="1230" 
d="M907 1487v-14q-23 11 -51 22v41h2q20 0 34.5 -14.5t14.5 -34.5zM969 909q-10 6 -28.5 17.5t-33 20t-28.5 14.5h270q18 0 32.5 18t12.5 37q0 12 -4 28q4 20 4 29v10q-2 24 -10 62q53 -81 61 -180q2 -19 -12.5 -37.5t-32.5 -18.5h-231zM1204 596q60 -86 60 -193
q0 -136 -88.5 -230.5t-229.5 -135.5q-39 -9 -39 -53v-99q0 -20 -14.5 -34.5t-34.5 -14.5h-266q-20 0 -34.5 14.5t-14.5 34.5v2h264q20 0 34.5 15t14.5 35v98q0 44 39 53q141 40 229 135.5t88 231.5q0 20 -2 28q2 10 2 33q0 47 -8 80z" />
    <glyph glyph-name="percent" unicode="%" horiz-adv-x="2234" 
d="M2003 1446l-385 -537q-59 -12 -115 -37l441 613h38q15 0 22.5 -13.5t-1.5 -25.5zM1073 1147l-45 -64q2 12 2 35v62q0 65 -14 120q45 -74 57 -153zM698 625q-40 -4 -65 -4q-125 0 -236 65q55 -14 123 -14h62q98 0 176 37zM2212 530q65 -108 65 -233q0 -122 -60.5 -225
t-163.5 -162.5t-224 -59.5q-123 0 -236 66q55 -14 123 -14h62q185 0 316.5 130.5t131.5 315.5v62q0 65 -14 120zM1208 465q-2 -18 -2 -55q0 -20 4 -66l-301 -418q-31 -39 -78 -39h-346q-15 0 -22 13.5t2 25.5l8 13h307q48 0 78 38z" />
    <glyph glyph-name="ampersand" unicode="&#x26;" horiz-adv-x="1677" 
d="M1276 1296q61 -99 61 -211q0 -118 -62.5 -205t-168.5 -159l-49 53q229 155 229 363q0 20 -2 28q2 12 2 33q0 43 -10 98zM735 1118q-19 26 -24 35l-2 4q18 44 67 60q8 -3 12 -7q3 -2 11 -10q2 -4 2 -10t-2 -10q-12 -18 -25 -31q-11 -11 -39 -31zM553 412q-17 4 -29 16
q16 44 76 92l49 -53q-34 -25 -59 -61q-25 0 -37 6zM1722 408q-81 -81 -178 -160l-49 53q84 66 176 158q12 11 14.5 27t-6.5 30v2l45 -43q14 -13 13.5 -34t-15.5 -33zM1090 -8h2q13 -17 30 -25q-218 -110 -428 -110q-183 0 -315 77q88 -26 203 -26h61q206 0 424 108z
M1767 -76q9 -10 3.5 -23.5t-19.5 -13.5h-422q-47 0 -82 35l-16 17h469q14 0 19.5 12.5t-3.5 23.5l-6 7l2 2z" />
    <glyph glyph-name="quotesingle" unicode="'" horiz-adv-x="581" 
d="M553 1485q20 0 33.5 -14.5t11.5 -34.5l-53 -615q-1 -20 -17 -34.5t-36 -14.5h-177q-20 0 -36 14.5t-17 34.5v2h178q20 0 36.5 14.5t17.5 34.5l53 613h6z" />
    <glyph glyph-name="parenleft" unicode="(" horiz-adv-x="888" 
d="M578 686q0 -252 73 -459q-3 5 -20 45q-99 226 -105 496q6 291 107 519t258 368q30 27 10 61q1 2 2 5.5t2 4.5l43 -53q12 -17 10.5 -36.5t-16.5 -32.5q-160 -143 -262 -380.5t-102 -537.5zM901 -190q27 -27 41 -39q15 -15 16 -35t-12 -37l-188 -236q-12 -14 -33 -15.5
t-35 11.5q-33 28 -47 45h2q15 -7 33 -4t29 15l188 235q22 28 6 57v3z" />
    <glyph glyph-name="parenright" unicode=")" horiz-adv-x="888" 
d="M797 1409q155 -338 155 -721q0 -203 -43 -392.5t-118.5 -343t-167 -275.5t-199.5 -218q-14 -13 -35 -11.5t-33 15.5l-30 37q29 -7 47 11q108 96 199.5 218t167 275t118.5 342.5t43 392.5v62q0 324 -104 608z" />
    <glyph glyph-name="asterisk" unicode="*" horiz-adv-x="1103" 
d="M1128 1032q5 -19 -5 -34.5t-29 -16.5l-103 -10q-12 20 -22 28l-25 23l98 10q19 1 29.5 16.5t5.5 34.5l-4 15q6 18 6 37q0 8 -4 24v2l-59 178q15 -8 18 -22zM1040 842q13 -12 12.5 -31.5t-14.5 -30.5l-243 -176q-13 -11 -33 -5.5t-27 22.5l-12 28q11 0 20 6l244 176
q10 7 13.5 22.5t-1.5 27.5zM567 709q12 -28 37 -43l-18 -41q-7 -17 -27 -22.5t-33 5.5l-63 47q2 1 6 2t6 2q13 -11 33 -5.5t27 22.5l22 53z" />
    <glyph glyph-name="plus" unicode="+" horiz-adv-x="1122" 
d="M860 1059v-64h-51v113h2q20 0 34.5 -14.5t14.5 -34.5zM1102 821q20 0 34.5 -14.5t14.5 -34.5v-272q0 -20 -14.5 -34.5t-34.5 -14.5h-201q-17 0 -29 -12t-12 -29v-199q0 -20 -14.5 -34.5t-34.5 -14.5h-274q-20 0 -35 14.5t-15 34.5v2h273q20 0 34.5 14.5t14.5 34.5v199
q0 17 12 29t29 12h201q20 0 34.5 14.5t14.5 34.5v270h2zM197 500v2h116v-51h-67q-20 0 -34.5 14.5t-14.5 34.5z" />
    <glyph glyph-name="comma" unicode="," horiz-adv-x="661" 
d="M641 270q57 -73 57 -180q0 -113 -86 -242t-254 -290q-13 -14 -34.5 -13.5t-34.5 15.5l-43 41h4q14 -7 30 -5t27 13q168 161 254 290t86 242q0 21 -2 31q2 10 2 31q0 37 -6 67z" />
    <glyph glyph-name="hyphen" unicode="-" horiz-adv-x="854" 
d="M801 745q20 0 34.5 -14.5t14.5 -34.5v-284q0 -20 -14.5 -35t-34.5 -15h-522q-20 0 -35 15t-15 35v2h521q20 0 34.5 14.5t14.5 34.5v282h2z" />
    <glyph glyph-name="period" unicode="." horiz-adv-x="655" 
d="M643 268q55 -68 55 -157q0 -106 -76 -182t-182 -76q-89 0 -157 55q28 -4 45 -4q22 0 32 2q10 -2 29 -2q106 0 182 76t76 182q0 18 -2 28q2 10 2 33q0 17 -4 45z" />
    <glyph glyph-name="slash" unicode="/" horiz-adv-x="1718" 
d="M1735 1849q17 0 25.5 -14t0.5 -29l-1145 -2240q-24 -43 -71 -43h-340q-17 0 -26 14t-1 29l4 8h312q47 0 71 43l1141 2232h29z" />
    <glyph glyph-name="zero" unicode="0" horiz-adv-x="1476" 
d="M604 506q-32 43 -49 108q-20 72 -23 154q6 170 69.5 275.5t162.5 123.5q24 -6 45 -18q19 -11 39 -31q-116 0 -190 -116.5t-74 -315.5q0 -104 20 -180zM1421 1151q105 -203 105 -465q0 -129 -27.5 -250.5t-84 -226.5t-136 -183.5t-190 -123.5t-240.5 -45q-170 0 -305 77
q85 -26 192 -26h62q130 0 240.5 45t190 123.5t136 183.5t84 226.5t27.5 250.5v62q0 176 -45 327q-6 11 -9 25z" />
    <glyph glyph-name="one" unicode="1" horiz-adv-x="804" 
d="M752 1485q20 0 34.5 -14.5t14.5 -34.5v-1499q0 -20 -14.5 -35t-34.5 -15h-310q-20 0 -34.5 15t-14.5 35v2h307q20 0 35 14.5t15 34.5v1497h2zM176 987v21l43 14v-70q-17 -3 -30 7.5t-13 27.5z" />
    <glyph glyph-name="two" unicode="2" horiz-adv-x="1327" 
d="M1354 983q0 -68 -17.5 -133t-42.5 -114t-65.5 -102t-73 -87t-78.5 -78h-104q114 109 149 148q172 190 180 393q1 12 1 24v62q0 86 -21 159q72 -122 72 -272zM244 891q-37 0 -37 47v4h313q19 0 27 10t8 37q0 76 39.5 122.5t107.5 55.5q3 -1 8.5 -2t8.5 -2q26 -9 35 -24
q8 -12 10 -23q-71 -6 -114.5 -52.5t-43.5 -125.5q0 -27 -8 -37t-27 -10h-327zM1294 295q20 0 34.5 -14.5t14.5 -34.5v-309q0 -20 -14.5 -35t-34.5 -15h-1058q-20 0 -35 15t-15 35v2h1057q20 0 34.5 14.5t14.5 34.5v307h2z" />
    <glyph glyph-name="three" unicode="3" horiz-adv-x="1282" 
d="M1155 764q-17 17 -53 49q131 128 131 309q0 21 -2 29q2 12 2 33q0 46 -10 98q61 -95 61 -211q0 -181 -129 -307zM457 1036q-38 0 -66 -22h-164q-39 0 -39 41v10h273q30 0 45 11.5t26 41.5q23 60 111 72q12 -4 19 -4q21 -11 32 -25q8 -11 11 -22q-95 -8 -121 -72
q-3 -9 -9 -18q-54 -10 -118 -13zM608 567q51 -11 70 -20q32 -11 47 -31q-58 11 -154 14q-20 0 -34.5 14.5t-14.5 33.5q28 -2 86 -11zM1268 553q61 -88 61 -207q0 -147 -83.5 -260t-221 -171t-303.5 -58q-247 0 -488 116q186 -65 375 -65h62q166 0 303.5 58t221 171t83.5 260
v62q0 42 -10 94z" />
    <glyph glyph-name="four" unicode="4" horiz-adv-x="1368" 
d="M1137 1442l-238 -422h-82l264 465h31q17 0 25.5 -14t-0.5 -29zM1270 719h-51v127h2q20 0 34.5 -14.5t14.5 -34.5v-78zM700 719h-53l53 92v-92zM1376 545q20 0 34.5 -14.5t14.5 -34.5v-285q0 -20 -14.5 -34.5t-34.5 -14.5h-65q-17 0 -29 -12t-12 -29v-184q0 -20 -14.5 -35
t-34.5 -15h-297q-20 0 -35 15t-15 35v2h295q20 0 35 14.5t15 34.5v184q0 17 12 29t29 12h65q20 0 34.5 14.5t14.5 34.5v283h2zM145 211v2h555v-51h-505q-20 0 -35 14.5t-15 34.5z" />
    <glyph glyph-name="five" unicode="5" horiz-adv-x="1335" 
d="M1227 1073h-223q-88 42 -199 51h371q20 0 34.5 15t14.5 35v311h2q20 0 34.5 -14.5t14.5 -34.5v-314q0 -20 -14.5 -34.5t-34.5 -14.5zM1315 700q71 -126 71 -276q0 -161 -80.5 -291t-222 -203t-315.5 -73q-179 0 -340 84q119 -33 227 -33h62q174 0 315.5 73t222 203
t80.5 291v62q0 78 -20 163zM461 524q-2 2 -6 6.5t-6 6.5q10 0 30 4q39 -15 76 14q82 71 168 84q19 -4 25 -8q14 -7 22 -15q12 -16 16 -26q-93 -10 -180 -86q-39 -32 -84 -10l-59 26q-2 2 -2 4z" />
    <glyph glyph-name="six" unicode="6" horiz-adv-x="1331" 
d="M1231 1446l-240 -330q-35 15 -69 27l249 342h39q15 0 22.5 -13.5t-1.5 -25.5zM1315 743q71 -120 71 -274q0 -169 -81 -310t-219.5 -221.5t-303.5 -80.5t-303 77q96 -26 191 -26h61q165 0 303.5 80.5t219.5 221.5t81 310v62q0 88 -20 161zM565 467l-6 6q-34 29 -43 86
q6 46 41 86q61 71 135 82q46 -9 78 -41l8 -8h-2q-97 0 -168 -84q-43 -51 -43 -119v-8z" />
    <glyph glyph-name="seven" unicode="7" horiz-adv-x="1191" 
d="M1221 1485q20 0 34.5 -14.5t14.5 -34.5v-232q0 -50 -23 -94l-579 -1178q-10 -20 -30 -32.5t-42 -12.5h-365q-17 0 -25.5 14t-0.5 29l4 9h336q22 0 41 12.5t30 32.5l580 1177q23 44 23 94v230h2zM563 1075h-336q-20 0 -34.5 14.5t-14.5 34.5v2h412z" />
    <glyph glyph-name="eight" unicode="8" horiz-adv-x="1388" 
d="M1282 784q-36 40 -51 52q96 107 96 262v61q0 59 -12 111q63 -97 63 -223q0 -156 -96 -263zM647 1059q-26 10 -41 33q-7 10 -10 20q10 41 43 70.5t86 38.5q3 -1 10 -3.5t10 -3.5q27 -12 41 -32q3 -3 7 -11q-60 -4 -98 -36t-48 -76zM578 430q-27 24 -33 51q11 56 58.5 96.5
t121.5 47.5q50 -5 86 -37q2 -2 6 -6.5t6 -6.5h-14q-92 0 -149.5 -46t-65.5 -113q-12 8 -16 14zM1374 594q66 -97 66 -234q0 -147 -88 -263.5t-231 -178t-312 -61.5q-208 0 -369 88q118 -37 256 -37h62q169 0 312 62t231 178.5t88 263.5v61q0 63 -15 121z" />
    <glyph glyph-name="nine" unicode="9" horiz-adv-x="1331" 
d="M1315 1202q76 -133 76 -289q0 -206 -152 -415l-420 -572q-27 -39 -78 -39h-395q-15 0 -22 13.5t2 25.5l8 13h356q52 0 78 38l420 572q151 208 151 416v61q0 94 -24 176zM569 905q-1 1 -4 3t-4 3q-32 32 -41 78q11 68 59 117t115 59q46 -9 78 -41l8 -8h-2
q-88 0 -148.5 -61.5t-60.5 -149.5zM436 449l-4 -3q-2 1 -6 3.5t-6 3.5q3 -1 8 -2t8 -2z" />
    <glyph glyph-name="colon" unicode=":" horiz-adv-x="716" 
d="M729 795q0 -106 -76 -182t-182 -76q-90 0 -158 55q28 -4 45 -4q23 0 33 2q10 -2 29 -2q106 0 182 76t76 182q0 18 -2 28q2 10 2 33q0 17 -4 45q55 -68 55 -157zM678 223q0 17 -4 45q55 -68 55 -157q0 -106 -76 -182t-182 -76q-90 0 -158 55q28 -4 45 -4q23 0 33 2
q10 -2 29 -2q106 0 182 76t76 182q0 18 -2 28q2 10 2 33z" />
    <glyph glyph-name="semicolon" unicode=";" horiz-adv-x="718" 
d="M727 795q0 -106 -76 -182t-182 -76q-90 0 -158 55q28 -4 45 -4q23 0 33 2q10 -2 29 -2q106 0 182 76t76 182q0 18 -2 28q2 10 2 33q0 17 -4 45q55 -68 55 -157zM672 270q57 -73 57 -180q0 -113 -86 -242t-254 -290q-13 -14 -35 -13.5t-35 15.5l-43 41h5q14 -7 30 -5
t27 13q168 161 254 290t86 242q0 21 -2 31q2 10 2 31q0 37 -6 67z" />
    <glyph glyph-name="less" unicode="&#x3c;" horiz-adv-x="1198" 
d="M1133 1257q15 8 30 -1.5t15 -26.5v-336q0 -22 -12.5 -41.5t-32.5 -26.5l-302 -123l-90 37l340 138q20 7 32.5 26t12.5 41v311zM1133 446q20 -7 32.5 -26t12.5 -41v-334q0 -17 -15 -27t-30 -2l-99 47q20 3 37 9l10 -4q15 -8 30 1.5t15 26.5v353zM1030 66l4 -3h-2z" />
    <glyph glyph-name="equal" unicode="=" horiz-adv-x="1187" 
d="M1135 1055q20 0 34.5 -14.5t14.5 -34.5v-275q0 -20 -14.5 -34.5t-34.5 -14.5h-7q-6 29 -28 51l-2 2q35 11 35 47v273h2zM1135 592q20 0 34.5 -14.5t14.5 -34.5v-273q0 -20 -14.5 -34.5t-34.5 -14.5h-856q-20 0 -35 14.5t-15 34.5v2h854q20 0 35 15t15 35v270h2z" />
    <glyph glyph-name="greater" unicode="&#x3e;" horiz-adv-x="1198" 
d="M1190 836q20 -9 32.5 -28.5t12.5 -41.5v-256q0 -22 -12.5 -41.5t-32.5 -28.5l-899 -424q-15 -8 -30 2t-15 27v25l893 422q20 9 32.5 28t12.5 41v277z" />
    <glyph glyph-name="question" unicode="?" horiz-adv-x="1210" 
d="M1174 1288q67 -106 67 -244q0 -74 -20.5 -138t-57 -112t-71.5 -80t-80 -63q-15 -11 -46.5 -32t-45.5 -32t-33.5 -28.5t-29.5 -36.5t-15 -41q-6 -26 -33 -26h-35q-28 28 -72 51h56q26 0 33 26q5 22 15 41t29.5 36.5t33.5 28.5t45.5 32t46.5 32q45 31 80 63.5t71.5 80
t57 112t20.5 138.5v61q0 65 -16 131zM629 1102q-5 -5 -49 -41q-75 -53 -131 -109h-232q-12 0 -21.5 10t-9.5 23v19h293q24 0 39.5 16t20.5 41q16 98 96 119q3 -2 14 -13q4 -12 4 -18q0 -7 -4 -19q-3 -11 -20 -28zM874 223q0 17 -4 45q56 -69 56 -157q0 -106 -76 -182
t-182 -76q-90 0 -158 55q28 -4 45 -4q23 0 33 2q10 -2 28 -2q106 0 182 76t76 182q0 18 -2 28q2 10 2 33z" />
    <glyph glyph-name="at" unicode="@" horiz-adv-x="1966" 
d="M1907 1141q94 -190 94 -398q0 -138 -41.5 -253.5t-110 -191t-156.5 -117.5t-182 -42q-116 0 -211 62q60 -11 99 -11q16 0 31 3q15 -3 30 -3q94 0 182 42t156.5 117.5t110 191.5t41.5 254v61q0 152 -43 285zM1440 621q-1 0 -2 -1.5t-2 -1.5q26 73 26 146q0 21 -2 31
q2 10 2 30q0 46 -10 101q50 -80 59 -170q-12 -64 -36 -99q-14 -26 -35 -36zM1018 268q-92 9 -168 60q57 -11 96 -11q23 0 33 2q10 -2 29 -2q29 0 73 7l37 -37q-11 0 -31 -4q-39 -12 -69 -15zM1339 0l47 -80q9 -15 3 -34t-23 -25q-177 -70 -350 -70q-210 0 -389 92
q131 -41 276 -41h62q173 0 350 70q17 6 23 25t-3 34l-2 4q6 9 6 25z" />
    <glyph glyph-name="A" unicode="A" horiz-adv-x="1697" 
d="M895 778l-43 -112h-72l78 206zM637 172h483l21 -51h-453q-41 0 -55 -39l-58 -150q-7 -20 -25 -32.5t-40 -12.5h-348q-18 0 -27.5 15t-3.5 30l2 7h326q22 0 40 12.5t25 32.5l58 149q14 39 55 39zM1792 -68q6 -15 -3.5 -30t-27.5 -15h-348q-22 0 -39.5 12.5t-25.5 32.5
l-2 7h364q18 0 27.5 15t3.5 30l-4 12q6 18 6 37q0 20 -6 35z" />
    <glyph glyph-name="B" unicode="B" horiz-adv-x="1560" 
d="M1548 1044q0 -169 -108 -274q-35 31 -58 45q115 109 115 281v61q0 70 -14 127q65 -103 65 -240zM645 1071v-39h-51v90q0 17 12 29t29 12h258q23 0 35 -6q6 -2 14 -6q10 -10 12 -18q1 -2 2.5 -6t2.5 -7.5t2 -7.5h-275q-17 0 -29 -12t-12 -29zM645 498v-66h-51v117
q0 17 12 29t29 12h307q33 0 51 -6q16 -8 19 -11q10 -10 14 -20q4 -8 4 -14h-344q-17 0 -29 -12t-12 -29zM1559 555q61 -92 61 -217q0 -201 -140 -326t-380 -125h-815q-20 0 -34.5 15t-14.5 35v2h813q240 0 380 124.5t140 325.5v62q0 49 -10 104z" />
    <glyph glyph-name="C" unicode="C" horiz-adv-x="1673" 
d="M1438 915q-20 -11 -40 -5t-32 26q-1 1 -8 11t-12 16q22 -6 40 4l283 125q17 7 22.5 27.5t-3.5 35.5v2q1 3 2 8.5t2 8.5q40 -57 47 -70q9 -15 3.5 -36t-22.5 -28zM1008 1120q-180 0 -307.5 -126.5t-127.5 -307.5q0 -39 11 -92q-54 79 -60 176q10 161 125 274.5t275 124.5
q80 -6 149 -41q25 -15 29 -18q-52 10 -94 10zM1722 334q17 -6 23.5 -26.5t-4.5 -35.5q-110 -190 -306 -302.5t-427 -112.5q-204 0 -390 94q130 -43 277 -43h61q231 0 427.5 113t306.5 303q6 9 6 22z" />
    <glyph glyph-name="D" unicode="D" horiz-adv-x="1675" 
d="M645 1047v-590h-51v641q0 17 12 29t29 12h199q79 0 137 -25q32 -11 59 -35q-36 8 -84 8h-260q-17 0 -29 -11.5t-12 -28.5zM1634 1110q99 -185 99 -424q0 -132 -30 -250.5t-92.5 -219t-151 -174t-212 -114.5t-270.5 -41h-692q-20 0 -34.5 15t-14.5 35v2h690
q147 0 270.5 41t212 114t150.5 173.5t92 219t30 250.5v62q0 174 -47 311z" />
    <glyph glyph-name="E" unicode="E" horiz-adv-x="1425" 
d="M1413 1485q20 0 34.5 -14.5t14.5 -34.5v-299q0 -20 -14.5 -35t-34.5 -15h-727q-17 0 -29 -11.5t-12 -28.5v-15h-51v66q0 17 12 29t29 12h727q20 0 34.5 14.5t14.5 34.5v297h2zM686 487q-14 0 -25 -8.5t-14 -21.5h-53v41q0 17 12 29t29 12h582q20 0 34.5 14.5t14.5 34.5
v270h2q20 0 34.5 -14.5t14.5 -34.5v-272q0 -20 -14.5 -35t-34.5 -15h-582zM1413 283q20 0 34.5 -15t14.5 -35v-296q0 -20 -14.5 -35t-34.5 -15h-1128q-20 0 -34.5 15t-14.5 35v2h1126q20 0 34.5 14.5t14.5 34.5v295h2z" />
    <glyph glyph-name="F" unicode="F" horiz-adv-x="1361" 
d="M1372 1485q20 0 34.5 -14.5t14.5 -34.5v-299q0 -20 -14.5 -35t-34.5 -15h-688q-17 0 -29 -11.5t-12 -28.5v-68h-51v119q0 17 12 29t29 12h688q20 0 34.5 14.5t14.5 34.5v297h2zM1247 805q20 0 34.5 -14.5t14.5 -34.5v-273q0 -20 -14.5 -34.5t-34.5 -14.5h-563
q-17 0 -29 -12t-12 -29v-456q0 -20 -14.5 -35t-34.5 -15h-309q-20 0 -34.5 15t-14.5 35v2h307q20 0 34.5 14.5t14.5 34.5v456q0 17 12 29t29 12h563q20 0 34.5 15t14.5 35v270h2z" />
    <glyph glyph-name="G" unicode="G" horiz-adv-x="1703" 
d="M1653 1221q12 -15 9.5 -35t-17.5 -31l-240 -162h-88q-13 13 -41 37q4 0 8 2q28 -15 57 4l252 170q14 9 18 28t-5 34v2q33 -33 47 -49zM1008 1120q-182 0 -308.5 -126.5t-126.5 -307.5q0 -37 11 -94q-54 79 -60 178q10 161 124.5 274.5t275.5 124.5q96 -6 178 -59
q-52 10 -94 10zM1683 819q20 0 35 -14.5t15 -34.5v-833q0 -20 -15 -35t-35 -15h-223q-20 0 -34.5 15t-14.5 35v2h221q20 0 34.5 14.5t14.5 34.5v831h2zM963 528v2h180q-34 -34 -64 -51h-67q-20 0 -34.5 14.5t-14.5 34.5zM1255 -12q8 -13 15 -17q18 -19 47 -28
q-131 -86 -309 -86q-204 0 -390 94q128 -43 277 -43h61q175 0 299 80z" />
    <glyph glyph-name="H" unicode="H" horiz-adv-x="1714" 
d="M643 1436v-398h-51v447h2q20 0 34.5 -14.5t14.5 -34.5zM1655 1485q20 0 34.5 -14.5t14.5 -34.5v-1499q0 -20 -14.5 -35t-34.5 -15h-312q-20 0 -34.5 15t-14.5 35v2h310q20 0 34.5 14.5t14.5 34.5v1497h2zM592 492q0 17 12 28.5t29 11.5h487v-51h-436q-17 0 -29 -12
t-12 -29v-503q0 -20 -14.5 -35t-34.5 -15h-309q-20 0 -34.5 15t-14.5 35v2h307q20 0 34.5 14.5t14.5 34.5v504z" />
    <glyph glyph-name="I" unicode="I" horiz-adv-x="655" 
d="M596 1485q20 0 34.5 -14.5t14.5 -34.5v-1499q0 -20 -14.5 -35t-34.5 -15h-311q-20 0 -34.5 15t-14.5 35v2h309q20 0 34.5 14.5t14.5 34.5v1497h2z" />
    <glyph glyph-name="J" unicode="J" horiz-adv-x="1361" 
d="M1317 1485q20 0 34.5 -14.5t14.5 -34.5v-957q0 -156 -48 -277t-132 -195t-192.5 -112t-235.5 -38q-183 0 -328 80q113 -29 215 -29h62q127 0 235.5 38t192.5 112t132 195t48 277v955h2zM555 449q-21 12 -35 45q-16 37 -16 104v20h2q20 0 34.5 -14.5t14.5 -34.5v-84
q0 -27 2 -39z" />
    <glyph glyph-name="K" unicode="K" horiz-adv-x="1572" 
d="M1620 1485q14 0 19.5 -13.5t-3.5 -23.5l-569 -619q0 -1 -1 -2t-1 -2l-45 62l553 598h47zM645 1436v-172l-51 -56v277h2q20 0 34.5 -14.5t14.5 -34.5zM621 451l30 32l43 -59l-22 -25q-27 -30 -27 -71v-391q0 -20 -14.5 -35t-34.5 -15h-311q-20 0 -34.5 15t-14.5 35v2h309
q20 0 34.5 14.5t14.5 34.5v391q0 42 27 72zM1673 -74q9 -12 2 -25.5t-22 -13.5h-410q-51 0 -78 39l-8 13h445q15 0 22 13t-2 25l-6 7l6 12z" />
    <glyph glyph-name="L" unicode="L" horiz-adv-x="1323" 
d="M643 1436v-979h-51v1028h2q20 0 34.5 -14.5t14.5 -34.5zM1360 283q20 0 34.5 -15t14.5 -35v-296q0 -20 -14.5 -35t-34.5 -15h-1075q-20 0 -34.5 15t-14.5 35v2h1073q20 0 34.5 14.5t14.5 34.5v295h2z" />
    <glyph glyph-name="M" unicode="M" horiz-adv-x="1992" 
d="M1933 1485q20 0 34.5 -14.5t14.5 -34.5v-1499q0 -20 -14.5 -35t-34.5 -15h-309q-20 0 -34.5 15t-14.5 35v2h307q20 0 34.5 14.5t14.5 34.5v1497h2zM643 -63q0 -20 -14.5 -35t-34.5 -15h-309q-20 0 -34.5 15t-14.5 35v2h307q20 0 34.5 14.5t14.5 34.5v571l51 -104v-518z
M1143 94q47 0 71 43l187 375v-156l-135 -270q-11 -19 -30.5 -31t-41.5 -12h-170q-22 0 -41.5 12t-30.5 31l-4 8h195z" />
    <glyph glyph-name="N" unicode="N" horiz-adv-x="1714" 
d="M1655 1485q20 0 34.5 -14.5t14.5 -34.5v-1499q0 -20 -14.5 -35t-34.5 -15h-248q-52 0 -80 39l-10 13h287q20 0 34.5 14.5t14.5 34.5v1497h2zM594 -12v727l51 -66v-712q0 -20 -14.5 -35t-34.5 -15h-311q-20 0 -34.5 15t-14.5 35v2h309q20 0 34.5 14.5t14.5 34.5z" />
    <glyph glyph-name="O" unicode="O" horiz-adv-x="1789" 
d="M1008 1120q-180 0 -307.5 -126.5t-127.5 -307.5q0 -39 11 -92q-54 79 -60 176q10 161 125 274.5t277 124.5q101 -6 178 -59q-52 10 -96 10zM1765 1059q90 -178 90 -373q0 -168 -67 -321.5t-180.5 -264.5t-270.5 -177t-329 -66q-204 0 -390 94q130 -43 277 -43h61
q172 0 329 66t270.5 177t181 264.5t67.5 321.5v62q0 132 -39 260z" />
    <glyph glyph-name="P" unicode="P" horiz-adv-x="1488" 
d="M1487 1196q80 -145 80 -324q0 -129 -39 -240t-114.5 -197t-197.5 -135.5t-276 -49.5h-254q-17 0 -29 -12t-12 -29v-272q0 -20 -14.5 -35t-34.5 -15h-311q-20 0 -34.5 15t-14.5 35v2h309q20 0 34.5 14.5t14.5 34.5v272q0 17 12 29t29 12h254q154 0 276 49.5t197.5 135.5
t114.5 197.5t39 240.5v61q0 101 -29 211zM645 1071v-274h-51v325q0 17 12 29t29 12h170q46 0 86 -14q24 -12 39 -27l10 -10h-254q-17 0 -29 -12t-12 -29z" />
    <glyph glyph-name="Q" unicode="Q" horiz-adv-x="1755" 
d="M524 768q10 163 118.5 276.5t262.5 124.5q93 -6 166 -57q-36 8 -82 8q-173 0 -294.5 -126.5t-121.5 -307.5q0 -40 11 -100q-54 87 -60 182zM1501 59q-26 0 -63 13q-2 2 -4 2q154 117 243.5 290t89.5 373v62q0 138 -41 266q93 -181 93 -379q0 -182 -74.5 -342.5
t-206.5 -277.5q-1 0 -3.5 -1.5t-4.5 -1.5q-12 -4 -29 -4zM2025 -264q15 -10 17 -32.5t-10 -35.5q-81 -91 -193.5 -134.5t-222.5 -43.5q-137 0 -279 76q80 -25 166 -25h62q110 0 222 43.5t193 134.5q19 22 9 45z" />
    <glyph glyph-name="R" unicode="R" horiz-adv-x="1568" 
d="M1335 389l-4 -2l-41 57q135 75 204 210t69 298v62q0 108 -27 207q78 -141 78 -320q0 -165 -70.5 -301t-208.5 -211zM1001 1130q15 -15 17 -18h-334q-17 0 -29 -12t-12 -29v-211h-51v262q0 17 12 29t29 12h248q54 0 84 -12q21 -9 36 -21zM713 360h2l30 -45h-61
q-17 0 -29 -12t-12 -29v-337q0 -20 -14.5 -35t-34.5 -15h-309q-20 0 -34.5 15t-14.5 35v2h307q20 0 34.5 14.5t14.5 34.5v338q0 17 12 29t29 12h65q7 0 11 -2zM1616 -72q9 -14 1.5 -27.5t-22.5 -13.5h-391q-48 0 -78 41l-8 11h426q15 0 22.5 13.5t-1.5 27.5l-4 6q4 8 4 12z
" />
    <glyph glyph-name="S" unicode="S" horiz-adv-x="1431" 
d="M1124 977q-50 0 -67 51h301q22 0 38.5 17.5t14.5 39.5q0 11 -4 31q4 20 4 27v8q-2 34 -14 92q56 -92 65 -209q2 -22 -14.5 -39.5t-38.5 -17.5h-285zM651 1114q-4 2 -17.5 8t-19.5 8q-18 9 -28 19q36 55 147 61q56 -3 101 -28q10 -5 28 -23q-14 2 -45 2q-116 0 -166 -47z
M1421 559q64 -103 64 -227q0 -152 -83.5 -260.5t-225 -161.5t-326.5 -53q-249 0 -426 94q142 -43 313 -43h62q185 0 326.5 53t225 161.5t83.5 260.5v61q0 55 -13 115z" />
    <glyph glyph-name="T" unicode="T" horiz-adv-x="1454" 
d="M1493 1485q20 0 34.5 -14.5t14.5 -34.5v-299q0 -20 -14.5 -35t-34.5 -15h-408q-17 0 -29 -11.5t-12 -28.5v-1110q0 -20 -14.5 -35t-34.5 -15h-311q-20 0 -34.5 15t-14.5 35v2h309q20 0 34.5 14.5t14.5 34.5v1110q0 17 12 29t29 12h408q20 0 34.5 14.5t14.5 34.5v297h2z
M137 1137v2h324v-52h-275q-20 0 -34.5 15t-14.5 35z" />
    <glyph glyph-name="U" unicode="U" 
d="M631 506q-23 30 -37 67q-23 67 -23 150v762h2q20 0 35 -14.5t15 -34.5v-826q0 -63 8 -104zM1632 1485q20 0 34.5 -14.5t14.5 -34.5v-850q0 -155 -48.5 -287.5t-139.5 -231t-231.5 -154.5t-315.5 -56q-222 0 -389 90q121 -39 277 -39h61q175 0 315.5 56t231.5 154.5
t139.5 231t48.5 287.5v848h2z" />
    <glyph glyph-name="V" unicode="V" horiz-adv-x="1697" 
d="M1761 1485q18 0 27.5 -15t3.5 -30l-610 -1508q-7 -20 -26.5 -32.5t-41.5 -12.5h-307q-22 0 -41.5 12.5t-26.5 32.5l-2 7h326q22 0 41 12.5t26 32.5l609 1501h22z" />
    <glyph glyph-name="W" unicode="W" horiz-adv-x="2349" 
d="M2415 1485q19 0 30 -15t6 -32l-423 -1504q-4 -20 -22 -33.5t-40 -13.5h-326q-22 0 -39.5 13t-23.5 34l-2 5h340q22 0 39.5 13.5t21.5 33.5l422 1499h17zM946 -14l236 719l35 -105l-220 -666q-6 -21 -23.5 -34t-39.5 -13h-326q-22 0 -39.5 13.5t-21.5 33.5l-2 5h338
q22 0 39.5 13t23.5 34z" />
    <glyph glyph-name="X" unicode="X" horiz-adv-x="1572" 
d="M1167 725l-4 -8l-43 65l477 703h35q15 0 22.5 -14t0.5 -27zM580 -20l221 325l43 -61l-213 -316q-26 -41 -76 -41h-399q-15 0 -22.5 13.5t1.5 27.5l6 11h363q50 0 76 41zM1665 -72q9 -14 2 -27.5t-22 -13.5h-400q-50 0 -76 41l-6 11h430q15 0 22.5 13.5t-1.5 27.5l-4 6
q1 3 3 8t3 8z" />
    <glyph glyph-name="Y" unicode="Y" horiz-adv-x="1671" 
d="M1735 1485q17 0 24 -13.5t-2 -27.5l-583 -936q-23 -33 -23 -76v-495q0 -20 -14.5 -35t-34.5 -15h-309q-20 0 -35 15t-15 35v2h308q20 0 34.5 14.5t14.5 34.5v495q0 45 22 76l578 926h35z" />
    <glyph glyph-name="Z" unicode="Z" horiz-adv-x="1492" 
d="M1499 1147l-569 -690h-94l612 741q31 43 31 88v199h2q20 0 34.5 -14.5t14.5 -34.5v-201q0 -45 -31 -88zM250 1087q-20 0 -34.5 15t-14.5 35v2h475l-43 -52h-383zM1483 283q20 0 34.5 -15t14.5 -35v-296q0 -20 -14.5 -35t-34.5 -15h-1258q-20 0 -34.5 15t-14.5 35v2h1256
q20 0 34.5 14.5t14.5 34.5v295h2z" />
    <glyph glyph-name="bracketleft" unicode="[" horiz-adv-x="808" 
d="M803 1931q20 0 34.5 -14.5t14.5 -34.5v-287q0 -20 -14.5 -34.5t-34.5 -14.5h-123q-17 0 -29 -12t-12 -29v-1505h-51v1556q0 17 12 29t29 12h123q20 0 34.5 15t14.5 35v284h2zM803 -174q20 0 34.5 -14.5t14.5 -34.5v-285q0 -20 -14.5 -34.5t-34.5 -14.5h-522
q-20 0 -35 14.5t-15 34.5v2h521q20 0 34.5 14.5t14.5 34.5v283h2z" />
    <glyph glyph-name="backslash" unicode="\" horiz-adv-x="1716" 
d="M1759 -434q8 -15 -0.5 -29t-25.5 -14h-340q-22 0 -41.5 12t-30.5 31l-4 8h364q17 0 26 14t1 29l-4 10q4 11 8 33z" />
    <glyph glyph-name="bracketright" unicode="]" horiz-adv-x="808" 
d="M754 1929q20 0 34.5 -14.5t14.5 -34.5v-2390q0 -20 -14.5 -34.5t-34.5 -14.5h-523q-20 0 -34.5 14.5t-14.5 34.5v2h520q20 0 35 14.5t15 34.5v2388h2zM221 1548q-17 3 -28 16.5t-11 30.5v2h39v-49z" />
    <glyph glyph-name="asciicircum" unicode="^" horiz-adv-x="1429" 
d="M588 633l137 305l37 -82l-123 -274q-9 -20 -28.5 -32.5t-41.5 -12.5h-333q-17 0 -25.5 14t-1.5 31l2 6h307q22 0 41.5 12.5t28.5 32.5zM1446 582q7 -17 -1.5 -31t-25.5 -14h-336q-22 0 -41 12.5t-28 32.5l-2 6h356q17 0 25.5 14t1.5 31l-4 8q8 24 8 39z" />
    <glyph glyph-name="underscore" unicode="_" horiz-adv-x="1447" 
d="M1413 -158q20 0 34.5 -14.5t14.5 -34.5v-254q0 -20 -14.5 -34.5t-34.5 -14.5h-1153q-20 0 -34.5 14.5t-14.5 34.5v2h1151q20 0 34.5 14.5t14.5 34.5v252h2z" />
    <glyph glyph-name="grave" unicode="`" horiz-adv-x="731" 
d="M801 1829q17 -12 21.5 -32.5t-5.5 -39.5l-88 -151q-10 -19 -30.5 -25.5t-39.5 2.5l-100 47q1 0 4.5 -1t5.5 -1q1 0 37 6h2q19 -9 39.5 -2.5t30.5 25.5l88 151q12 18 4 41z" />
    <glyph glyph-name="a" unicode="a" horiz-adv-x="1697" 
d="M895 778l-43 -112h-72l78 206zM637 172h483l21 -51h-453q-41 0 -55 -39l-58 -150q-7 -20 -25 -32.5t-40 -12.5h-348q-18 0 -27.5 15t-3.5 30l2 7h326q22 0 40 12.5t25 32.5l58 149q14 39 55 39zM1792 -68q6 -15 -3.5 -30t-27.5 -15h-348q-22 0 -39.5 12.5t-25.5 32.5
l-2 7h364q18 0 27.5 15t3.5 30l-4 12q6 18 6 37q0 20 -6 35z" />
    <glyph glyph-name="b" unicode="b" horiz-adv-x="1560" 
d="M1548 1044q0 -169 -108 -274q-35 31 -58 45q115 109 115 281v61q0 70 -14 127q65 -103 65 -240zM645 1071v-39h-51v90q0 17 12 29t29 12h258q23 0 35 -6q6 -2 14 -6q10 -10 12 -18q1 -2 2.5 -6t2.5 -7.5t2 -7.5h-275q-17 0 -29 -12t-12 -29zM645 498v-66h-51v117
q0 17 12 29t29 12h307q33 0 51 -6q16 -8 19 -11q10 -10 14 -20q4 -8 4 -14h-344q-17 0 -29 -12t-12 -29zM1559 555q61 -92 61 -217q0 -201 -140 -326t-380 -125h-815q-20 0 -34.5 15t-14.5 35v2h813q240 0 380 124.5t140 325.5v62q0 49 -10 104z" />
    <glyph glyph-name="c" unicode="c" horiz-adv-x="1673" 
d="M1438 915q-20 -11 -40 -5t-32 26q-1 1 -8 11t-12 16q22 -6 40 4l283 125q17 7 22.5 27.5t-3.5 35.5v2q1 3 2 8.5t2 8.5q40 -57 47 -70q9 -15 3.5 -36t-22.5 -28zM1008 1120q-180 0 -307.5 -126.5t-127.5 -307.5q0 -39 11 -92q-54 79 -60 176q10 161 125 274.5t275 124.5
q80 -6 149 -41q25 -15 29 -18q-52 10 -94 10zM1722 334q17 -6 23.5 -26.5t-4.5 -35.5q-110 -190 -306 -302.5t-427 -112.5q-204 0 -390 94q130 -43 277 -43h61q231 0 427.5 113t306.5 303q6 9 6 22z" />
    <glyph glyph-name="d" unicode="d" horiz-adv-x="1675" 
d="M645 1047v-590h-51v641q0 17 12 29t29 12h199q79 0 137 -25q32 -11 59 -35q-36 8 -84 8h-260q-17 0 -29 -11.5t-12 -28.5zM1634 1110q99 -185 99 -424q0 -132 -30 -250.5t-92.5 -219t-151 -174t-212 -114.5t-270.5 -41h-692q-20 0 -34.5 15t-14.5 35v2h690
q147 0 270.5 41t212 114t150.5 173.5t92 219t30 250.5v62q0 174 -47 311z" />
    <glyph glyph-name="e" unicode="e" horiz-adv-x="1425" 
d="M1413 1485q20 0 34.5 -14.5t14.5 -34.5v-299q0 -20 -14.5 -35t-34.5 -15h-727q-17 0 -29 -11.5t-12 -28.5v-15h-51v66q0 17 12 29t29 12h727q20 0 34.5 14.5t14.5 34.5v297h2zM686 487q-14 0 -25 -8.5t-14 -21.5h-53v41q0 17 12 29t29 12h582q20 0 34.5 14.5t14.5 34.5
v270h2q20 0 34.5 -14.5t14.5 -34.5v-272q0 -20 -14.5 -35t-34.5 -15h-582zM1413 283q20 0 34.5 -15t14.5 -35v-296q0 -20 -14.5 -35t-34.5 -15h-1128q-20 0 -34.5 15t-14.5 35v2h1126q20 0 34.5 14.5t14.5 34.5v295h2z" />
    <glyph glyph-name="f" unicode="f" horiz-adv-x="1361" 
d="M1372 1485q20 0 34.5 -14.5t14.5 -34.5v-299q0 -20 -14.5 -35t-34.5 -15h-688q-17 0 -29 -11.5t-12 -28.5v-68h-51v119q0 17 12 29t29 12h688q20 0 34.5 14.5t14.5 34.5v297h2zM1247 805q20 0 34.5 -14.5t14.5 -34.5v-273q0 -20 -14.5 -34.5t-34.5 -14.5h-563
q-17 0 -29 -12t-12 -29v-456q0 -20 -14.5 -35t-34.5 -15h-309q-20 0 -34.5 15t-14.5 35v2h307q20 0 34.5 14.5t14.5 34.5v456q0 17 12 29t29 12h563q20 0 34.5 15t14.5 35v270h2z" />
    <glyph glyph-name="g" unicode="g" horiz-adv-x="1703" 
d="M1653 1221q12 -15 9.5 -35t-17.5 -31l-240 -162h-88q-13 13 -41 37q4 0 8 2q28 -15 57 4l252 170q14 9 18 28t-5 34v2q33 -33 47 -49zM1008 1120q-182 0 -308.5 -126.5t-126.5 -307.5q0 -37 11 -94q-54 79 -60 178q10 161 124.5 274.5t275.5 124.5q96 -6 178 -59
q-52 10 -94 10zM1683 819q20 0 35 -14.5t15 -34.5v-833q0 -20 -15 -35t-35 -15h-223q-20 0 -34.5 15t-14.5 35v2h221q20 0 34.5 14.5t14.5 34.5v831h2zM963 528v2h180q-34 -34 -64 -51h-67q-20 0 -34.5 14.5t-14.5 34.5zM1255 -12q8 -13 15 -17q18 -19 47 -28
q-131 -86 -309 -86q-204 0 -390 94q128 -43 277 -43h61q175 0 299 80z" />
    <glyph glyph-name="h" unicode="h" horiz-adv-x="1714" 
d="M643 1436v-398h-51v447h2q20 0 34.5 -14.5t14.5 -34.5zM1655 1485q20 0 34.5 -14.5t14.5 -34.5v-1499q0 -20 -14.5 -35t-34.5 -15h-312q-20 0 -34.5 15t-14.5 35v2h310q20 0 34.5 14.5t14.5 34.5v1497h2zM592 492q0 17 12 28.5t29 11.5h487v-51h-436q-17 0 -29 -12
t-12 -29v-503q0 -20 -14.5 -35t-34.5 -15h-309q-20 0 -34.5 15t-14.5 35v2h307q20 0 34.5 14.5t14.5 34.5v504z" />
    <glyph glyph-name="i" unicode="i" horiz-adv-x="655" 
d="M596 1485q20 0 34.5 -14.5t14.5 -34.5v-1499q0 -20 -14.5 -35t-34.5 -15h-311q-20 0 -34.5 15t-14.5 35v2h309q20 0 34.5 14.5t14.5 34.5v1497h2z" />
    <glyph glyph-name="j" unicode="j" horiz-adv-x="1361" 
d="M1317 1485q20 0 34.5 -14.5t14.5 -34.5v-957q0 -156 -48 -277t-132 -195t-192.5 -112t-235.5 -38q-183 0 -328 80q113 -29 215 -29h62q127 0 235.5 38t192.5 112t132 195t48 277v955h2zM555 449q-21 12 -35 45q-16 37 -16 104v20h2q20 0 34.5 -14.5t14.5 -34.5v-84
q0 -27 2 -39z" />
    <glyph glyph-name="k" unicode="k" horiz-adv-x="1572" 
d="M1620 1485q14 0 19.5 -13.5t-3.5 -23.5l-569 -619q0 -1 -1 -2t-1 -2l-45 62l553 598h47zM645 1436v-172l-51 -56v277h2q20 0 34.5 -14.5t14.5 -34.5zM621 451l30 32l43 -59l-22 -25q-27 -30 -27 -71v-391q0 -20 -14.5 -35t-34.5 -15h-311q-20 0 -34.5 15t-14.5 35v2h309
q20 0 34.5 14.5t14.5 34.5v391q0 42 27 72zM1673 -74q9 -12 2 -25.5t-22 -13.5h-410q-51 0 -78 39l-8 13h445q15 0 22 13t-2 25l-6 7l6 12z" />
    <glyph glyph-name="l" unicode="l" horiz-adv-x="1323" 
d="M643 1436v-979h-51v1028h2q20 0 34.5 -14.5t14.5 -34.5zM1360 283q20 0 34.5 -15t14.5 -35v-296q0 -20 -14.5 -35t-34.5 -15h-1075q-20 0 -34.5 15t-14.5 35v2h1073q20 0 34.5 14.5t14.5 34.5v295h2z" />
    <glyph glyph-name="m" unicode="m" horiz-adv-x="1992" 
d="M1933 1485q20 0 34.5 -14.5t14.5 -34.5v-1499q0 -20 -14.5 -35t-34.5 -15h-309q-20 0 -34.5 15t-14.5 35v2h307q20 0 34.5 14.5t14.5 34.5v1497h2zM643 -63q0 -20 -14.5 -35t-34.5 -15h-309q-20 0 -34.5 15t-14.5 35v2h307q20 0 34.5 14.5t14.5 34.5v571l51 -104v-518z
M1143 94q47 0 71 43l187 375v-156l-135 -270q-11 -19 -30.5 -31t-41.5 -12h-170q-22 0 -41.5 12t-30.5 31l-4 8h195z" />
    <glyph glyph-name="n" unicode="n" horiz-adv-x="1712" 
d="M1653 1485q20 0 34.5 -14.5t14.5 -34.5v-1499q0 -20 -14.5 -35t-34.5 -15h-248q-52 0 -80 39l-10 13h287q20 0 34.5 14.5t14.5 34.5v1497h2zM592 -12v727l51 -66v-712q0 -20 -14.5 -35t-34.5 -15h-309q-20 0 -34.5 15t-14.5 35v2h307q20 0 34.5 14.5t14.5 34.5z" />
    <glyph glyph-name="o" unicode="o" horiz-adv-x="1789" 
d="M1008 1120q-180 0 -307.5 -126.5t-127.5 -307.5q0 -39 11 -92q-54 79 -60 176q10 161 125 274.5t277 124.5q101 -6 178 -59q-52 10 -96 10zM1765 1059q90 -178 90 -373q0 -168 -67 -321.5t-180.5 -264.5t-270.5 -177t-329 -66q-204 0 -390 94q130 -43 277 -43h61
q172 0 329 66t270.5 177t181 264.5t67.5 321.5v62q0 132 -39 260z" />
    <glyph glyph-name="p" unicode="p" horiz-adv-x="1488" 
d="M1487 1196q80 -145 80 -324q0 -129 -39 -240t-114.5 -197t-197.5 -135.5t-276 -49.5h-254q-17 0 -29 -12t-12 -29v-272q0 -20 -14.5 -35t-34.5 -15h-311q-20 0 -34.5 15t-14.5 35v2h309q20 0 34.5 14.5t14.5 34.5v272q0 17 12 29t29 12h254q154 0 276 49.5t197.5 135.5
t114.5 197.5t39 240.5v61q0 101 -29 211zM645 1071v-274h-51v325q0 17 12 29t29 12h170q46 0 86 -14q24 -12 39 -27l10 -10h-254q-17 0 -29 -12t-12 -29z" />
    <glyph glyph-name="q" unicode="q" horiz-adv-x="1755" 
d="M524 768q10 163 118.5 276.5t262.5 124.5q93 -6 166 -57q-36 8 -82 8q-173 0 -294.5 -126.5t-121.5 -307.5q0 -40 11 -100q-54 87 -60 182zM1501 59q-26 0 -63 13q-2 2 -4 2q154 117 243.5 290t89.5 373v62q0 138 -41 266q93 -181 93 -379q0 -182 -74.5 -342.5
t-206.5 -277.5q-1 0 -3.5 -1.5t-4.5 -1.5q-12 -4 -29 -4zM2025 -264q15 -10 17 -32.5t-10 -35.5q-81 -91 -193.5 -134.5t-222.5 -43.5q-137 0 -279 76q80 -25 166 -25h62q110 0 222 43.5t193 134.5q19 22 9 45z" />
    <glyph glyph-name="r" unicode="r" horiz-adv-x="1568" 
d="M1335 389l-4 -2l-41 57q135 75 204 210t69 298v62q0 108 -27 207q78 -141 78 -320q0 -165 -70.5 -301t-208.5 -211zM1001 1130q15 -15 17 -18h-334q-17 0 -29 -12t-12 -29v-211h-51v262q0 17 12 29t29 12h248q54 0 84 -12q21 -9 36 -21zM713 360h2l30 -45h-61
q-17 0 -29 -12t-12 -29v-337q0 -20 -14.5 -35t-34.5 -15h-309q-20 0 -34.5 15t-14.5 35v2h307q20 0 34.5 14.5t14.5 34.5v338q0 17 12 29t29 12h65q7 0 11 -2zM1616 -72q9 -14 1.5 -27.5t-22.5 -13.5h-391q-48 0 -78 41l-8 11h426q15 0 22.5 13.5t-1.5 27.5l-4 6q4 8 4 12z
" />
    <glyph glyph-name="s" unicode="s" horiz-adv-x="1431" 
d="M1124 977q-50 0 -67 51h301q22 0 38.5 17.5t14.5 39.5q0 11 -4 31q4 20 4 27v8q-2 34 -14 92q56 -92 65 -209q2 -22 -14.5 -39.5t-38.5 -17.5h-285zM651 1114q-4 2 -17.5 8t-19.5 8q-18 9 -28 19q36 55 147 61q56 -3 101 -28q10 -5 28 -23q-14 2 -45 2q-116 0 -166 -47z
M1421 559q64 -103 64 -227q0 -152 -83.5 -260.5t-225 -161.5t-326.5 -53q-249 0 -426 94q142 -43 313 -43h62q185 0 326.5 53t225 161.5t83.5 260.5v61q0 55 -13 115z" />
    <glyph glyph-name="t" unicode="t" horiz-adv-x="1454" 
d="M1493 1485q20 0 34.5 -14.5t14.5 -34.5v-299q0 -20 -14.5 -35t-34.5 -15h-408q-17 0 -29 -11.5t-12 -28.5v-1110q0 -20 -14.5 -35t-34.5 -15h-311q-20 0 -34.5 15t-14.5 35v2h309q20 0 34.5 14.5t14.5 34.5v1110q0 17 12 29t29 12h408q20 0 34.5 14.5t14.5 34.5v297h2z
M137 1137v2h324v-52h-275q-20 0 -34.5 15t-14.5 35z" />
    <glyph glyph-name="u" unicode="u" 
d="M631 506q-23 30 -37 67q-23 67 -23 150v762h2q20 0 35 -14.5t15 -34.5v-826q0 -63 8 -104zM1632 1485q20 0 34.5 -14.5t14.5 -34.5v-850q0 -155 -48.5 -287.5t-139.5 -231t-231.5 -154.5t-315.5 -56q-222 0 -389 90q121 -39 277 -39h61q175 0 315.5 56t231.5 154.5
t139.5 231t48.5 287.5v848h2z" />
    <glyph glyph-name="v" unicode="v" horiz-adv-x="1697" 
d="M1761 1485q18 0 27.5 -15t3.5 -30l-610 -1508q-7 -20 -26.5 -32.5t-41.5 -12.5h-307q-22 0 -41.5 12.5t-26.5 32.5l-2 7h326q22 0 41 12.5t26 32.5l609 1501h22z" />
    <glyph glyph-name="w" unicode="w" horiz-adv-x="2349" 
d="M2415 1485q19 0 30 -15t6 -32l-423 -1504q-4 -20 -22 -33.5t-40 -13.5h-326q-22 0 -39.5 13t-23.5 34l-2 5h340q22 0 39.5 13.5t21.5 33.5l422 1499h17zM946 -14l236 719l35 -105l-220 -666q-6 -21 -23.5 -34t-39.5 -13h-326q-22 0 -39.5 13.5t-21.5 33.5l-2 5h338
q22 0 39.5 13t23.5 34z" />
    <glyph glyph-name="x" unicode="x" horiz-adv-x="1572" 
d="M1167 725l-4 -8l-43 65l477 703h35q15 0 22.5 -14t0.5 -27zM580 -20l221 325l43 -61l-213 -316q-26 -41 -76 -41h-399q-15 0 -22.5 13.5t1.5 27.5l6 11h363q50 0 76 41zM1665 -72q9 -14 2 -27.5t-22 -13.5h-400q-50 0 -76 41l-6 11h430q15 0 22.5 13.5t-1.5 27.5l-4 6
q1 3 3 8t3 8z" />
    <glyph glyph-name="y" unicode="y" horiz-adv-x="1671" 
d="M1735 1485q17 0 24 -13.5t-2 -27.5l-583 -936q-23 -33 -23 -76v-495q0 -20 -14.5 -35t-34.5 -15h-309q-20 0 -35 15t-15 35v2h308q20 0 34.5 14.5t14.5 34.5v495q0 45 22 76l578 926h35z" />
    <glyph glyph-name="z" unicode="z" horiz-adv-x="1492" 
d="M1499 1147l-569 -690h-94l612 741q31 43 31 88v199h2q20 0 34.5 -14.5t14.5 -34.5v-201q0 -45 -31 -88zM250 1087q-20 0 -34.5 15t-14.5 35v2h475l-43 -52h-383zM1483 283q20 0 34.5 -15t14.5 -35v-296q0 -20 -14.5 -35t-34.5 -15h-1258q-20 0 -34.5 15t-14.5 35v2h1256
q20 0 34.5 14.5t14.5 34.5v295h2z" />
    <glyph glyph-name="braceleft" unicode="{" horiz-adv-x="765" 
d="M758 1931q15 0 26 -11t11 -26v-295q0 -15 -11 -25.5t-26 -10.5h-41q-66 0 -108 -36t-42 -102q0 -13 4 -41q-1 2 -3 7.5t-3 7.5l-37 82q-4 10 -8 30q10 50 49.5 76.5t96.5 26.5h41q15 0 25.5 11t10.5 26v280h15zM659 715q-12 28 -38 65q71 86 71 203q0 19 -2 27q2 12 2 34
q0 60 -18 115q69 -142 69 -227q0 -127 -84 -217zM524 20q-4 8 -4 13q8 41 37 103t58.5 115.5t53 121t23.5 121.5q0 20 -2 30q2 10 2 31q0 37 -6 74q57 -82 57 -187q0 -53 -23 -119t-52 -118.5t-58.5 -113.5t-38.5 -101q-6 0 -8 2q-5 1 -11.5 4t-8.5 4q-14 11 -19 20z
M758 -188q15 0 26 -11t11 -26v-295q0 -15 -11 -26t-26 -11h-41q-171 0 -297 74q94 -23 184 -23h103q15 0 25.5 11t10.5 26v281h15z" />
    <glyph glyph-name="bar" unicode="|" horiz-adv-x="628" 
d="M575 1866q20 0 35 -14.5t15 -34.5v-2259q0 -20 -15 -35t-35 -15h-296q-20 0 -35 15t-15 35v2h295q20 0 34.5 14.5t14.5 34.5v2257h2z" />
    <glyph glyph-name="braceright" unicode="}" horiz-adv-x="765" 
d="M602 1030h-2q9 32 35 91t50 111.5t43.5 127t19.5 143.5v62q0 61 -17 137q68 -112 68 -250q0 -61 -16 -129t-33 -109.5t-46.5 -106t-37.5 -83.5q-16 4 -27 4h-21q-4 0 -7.5 0.5t-5.5 1t-3 0.5zM233 1563q-15 0 -25.5 10.5t-10.5 25.5v11q4 0 6 -2q4 -1 11 -4.5l9 -4.5
q14 -11 19 -20q1 -3 3 -8t3 -8h-15zM651 395q-5 11 -19 40.5t-20 43.5q-3 8 -7.5 22t-6.5 19q16 51 82 51h20q7 0 13 5.5t6 11.5v266h33q8 0 13 -5t5 -13v-299q0 -6 -5.5 -11.5t-12.5 -5.5h-21q-44 0 -65 -23t-21 -61q0 -20 6 -41zM748 35q0 104 -41 225q27 -60 44 -103
t32.5 -109t15.5 -126q0 -98 -36.5 -185t-102.5 -152.5t-166 -103.5t-220 -38h-41q-15 0 -25.5 11t-10.5 26v14h26q120 0 220 38t166 103.5t102.5 152.5t36.5 185v62z" />
    <glyph glyph-name="asciitilde" unicode="~" horiz-adv-x="1060" 
d="M1008 729q19 0 33 -15t12 -34q-2 -44 -9 -85t-26 -90t-47.5 -85t-77 -60t-111.5 -24q-92 0 -178 57q34 -6 66 -6q22 0 32 2q8 -2 29 -2q62 0 110.5 24t77 59.5t47.5 84t26 89.5t9 85h7zM449 459v2q22 -15 55 -33q-4 -4 -4 -20q-2 -14 -12 -23.5t-23 -9.5h-191
q-19 0 -33 15t-12 34v2h185q13 0 23 9.5t12 23.5z" />
    <glyph glyph-name="uni00A0" unicode="&#xa0;" horiz-adv-x="575" 
 />
    <glyph glyph-name="exclamdown" unicode="&#xa1;" horiz-adv-x="661" 
d="M520 1016q-18 29 -41 43l-12 6q80 25 132 94t52 154q0 18 -2 28q2 10 2 33q0 17 -4 45q55 -68 55 -157q0 -85 -51.5 -153.5t-130.5 -92.5zM584 854l84 -917q2 -20 -11.5 -35t-33.5 -15h-359q-20 0 -33.5 15t-11.5 35v2h352q20 0 33.5 14.5t11.5 34.5l-2 32q2 8 2 25v8
l-77 850q18 -3 31 -17t14 -32z" />
    <glyph glyph-name="cent" unicode="&#xa2;" horiz-adv-x="1251" 
d="M963 1257v-26l-50 24h-2v52h2q20 0 35 -15t15 -35zM621 592q-22 16 -23 18q-22 22 -27 45q9 48 45 83t86 44q23 -3 39 -16q26 -18 39 -23q23 -10 47 -10q15 0 35 4h2q28 -11 66 6l260 117q17 7 22 27t-4 35q0 2 -2 2q4 8 4 10q34 -38 50 -64q9 -15 3.5 -34.5t-22.5 -26.5
l-260 -117q-27 -12 -46.5 -10t-43.5 20q-48 33 -105 33q-64 0 -110.5 -40.5t-54.5 -102.5zM1243 334q17 -7 22.5 -27t-3.5 -35q-97 -144 -261 -217q-38 -15 -38 -57v-113q0 -20 -15 -34.5t-35 -14.5h-284q-20 0 -34.5 14.5t-14.5 34.5v2h282q20 0 34.5 15t14.5 35v112
q0 41 39 57q162 72 260 218q7 10 7 22z" />
    <glyph glyph-name="sterling" unicode="&#xa3;" horiz-adv-x="1255" 
d="M1214 1298q70 -117 70 -266v-20q0 -6 -5 -11.5t-11 -5.5h-322q-47 0 -63 52h334q6 0 11 5t5 11v82q0 79 -19 153zM668 936q-7 23 -20.5 60t-18.5 51q-11 42 -11 45q12 60 74 73q2 0 2 -2q5 0 8 -6q4 -5 7 -12q7 -21 14 -35l2 -2q-59 -24 -59 -98q0 -34 12 -74h-10z
M1018 762q20 0 34.5 -14.5t14.5 -34.5v-244h-74q23 13 23 41v252h2zM1212 295q20 0 35 -14.5t15 -34.5v-309q0 -20 -15 -35t-35 -15h-960q-20 0 -34.5 15t-14.5 35v2h958q20 0 34.5 14.5t14.5 34.5v307h2z" />
    <glyph glyph-name="yen" unicode="&#xa5;" horiz-adv-x="1785" 
d="M1792 1485q17 0 24.5 -13.5t-1.5 -27.5l-312 -502q-11 18 -20 27q-5 7 -31 22l305 494h35zM1518 827q20 0 34.5 -14.5t14.5 -34.5v-211q0 -20 -14.5 -34.5t-34.5 -14.5h-2q0 30 -21 62q21 14 21 38v209h2zM1518 453q20 0 34.5 -15t14.5 -35v-210q0 -20 -14.5 -35
t-34.5 -15h-267q-17 0 -29 -12t-12 -29v-165q0 -20 -14.5 -35t-34.5 -15h-311q-20 0 -34.5 15t-14.5 35v2h309q20 0 34.5 14.5t14.5 34.5v166q0 17 12 29t29 12h266q20 0 35 14.5t15 34.5v209h2zM444 193v2h183v-52h-133q-20 0 -35 15t-15 35z" />
    <glyph glyph-name="brokenbar" unicode="&#xa6;" horiz-adv-x="653" 
d="M588 1866q20 0 34.5 -14.5t14.5 -34.5v-938q0 -20 -14.5 -35t-34.5 -15h-297q-20 0 -34.5 15t-14.5 35v2h295q20 0 34.5 14.5t14.5 34.5v936h2zM588 545q20 0 34.5 -14.5t14.5 -34.5v-938q0 -20 -14.5 -35t-34.5 -15h-297q-20 0 -34.5 15t-14.5 35v2h295q20 0 34.5 14.5
t14.5 34.5v936h2z" />
    <glyph glyph-name="section" unicode="&#xa7;" horiz-adv-x="1181" 
d="M1128 1106h-176q-41 28 -88 51h213q19 0 26 6.5t7 26.5q0 6 -1 17t-1 16v2q2 10 2 26v2q-4 53 -10 78q58 -83 61 -192q0 -20 -7 -26.5t-26 -6.5zM1100 418q-22 -16 -19 -37q-8 45 -30 90q112 89 112 229q0 21 -2 29q2 12 2 33q0 31 -6 61q57 -80 57 -174
q0 -143 -114 -231zM1081 377q6 -12 9 -15q51 -76 51 -174q0 -158 -124.5 -244.5t-309.5 -86.5q-168 0 -287 71q79 -20 174 -20h61q120 0 216.5 36t157.5 113t61 183q0 16 -3 28q3 15 3 33q0 38 -9 76z" />
    <glyph glyph-name="dieresis" unicode="&#xa8;" horiz-adv-x="911" 
d="M973 1921q51 -61 51 -133q0 -83 -57.5 -142t-139.5 -59q-75 0 -133 51h21q23 0 33 2q10 -2 28 -2q82 0 139.5 59t57.5 142q0 19 -2 29q2 10 2 33v20zM455 1868v10q9 -77 49 -131q-14 -68 -68.5 -114t-124.5 -46q-75 0 -133 51h21q22 0 32 2q10 -2 29 -2q82 0 139.5 59
t57.5 142q0 19 -2 29z" />
    <glyph glyph-name="copyright" unicode="&#xa9;" horiz-adv-x="1818" 
d="M1759 1061q92 -176 92 -375q0 -168 -66.5 -321.5t-178 -264.5t-264.5 -177t-320 -66q-200 0 -379 92q128 -41 266 -41h62q167 0 320 66t264.5 177t178 264.5t66.5 321.5v62q0 134 -41 262zM913 752q-18 0 -32 14q-6 3 -9 6q19 47 64 62q32 -16 35 -17q20 -10 45 -10
q5 0 35 6h2q20 -7 29.5 -5.5t33.5 11.5l182 86q17 7 22.5 28t-3.5 34q0 2 -2 2q2 2 2 6q19 -17 47 -53q4 -11 8 -37q-3 -22 -22 -31l-183 -86q-27 -13 -43.5 -11.5t-46.5 19.5q-26 15 -51 15q-33 0 -61 -19q-17 -7 -29 -14l-2 -2q-8 -4 -21 -4z" />
    <glyph glyph-name="ordfeminine" unicode="&#xaa;" horiz-adv-x="1079" 
d="M1020 1495q20 0 34.5 -14.5t14.5 -34.5v-746q0 -20 -14.5 -34.5t-34.5 -14.5h-232q-10 0 -10 11v2q0 10 -8 6q-68 -39 -178 -39q-120 0 -221 63q53 -12 108 -12h62q81 0 137 20h291q20 0 34.5 15t14.5 35v743h2zM465 1100q-18 7 -29 18q-14 14 -20 39q9 45 40 77.5
t76 41.5q24 -6 41 -23q17 -23 19 -26q-51 -7 -85 -42t-42 -85z" />
    <glyph glyph-name="guillemotleft" unicode="&#xab;" horiz-adv-x="1433" 
d="M754 1276q10 9 23.5 3.5t13.5 -19.5v-207l-52 -45v256zM1374 1276q10 9 23.5 3.5t13.5 -19.5v-386q0 -49 -37 -81l-123 -109l-53 49l125 111q37 32 37 82v338zM631 684l-53 49l79 70v-96zM1374 479q37 -32 37 -82v-383q0 -14 -13.5 -19.5t-23.5 3.5l-61 55q2 0 4 2l6 -6
q11 -9 24 -3t13 20v426zM739 489l27 -22q25 -36 25 -70v-383q0 -14 -13.5 -19.5t-23.5 3.5l-62 55q2 0 4 2l6 -6q10 -9 23.5 -3t13.5 20v423z" />
    <glyph glyph-name="registered" unicode="&#xae;" horiz-adv-x="1150" 
d="M1116 1270q70 -115 70 -252q0 -135 -67 -249.5t-181.5 -181.5t-249.5 -67q-137 0 -252 70q71 -19 139 -19h62q205 0 351.5 146.5t146.5 351.5v61q0 69 -19 140z" />
    <glyph glyph-name="macron" unicode="&#xaf;" horiz-adv-x="733" 
d="M797 1890q20 0 34.5 -14.5t14.5 -34.5v-205q0 -20 -14.5 -34.5t-34.5 -14.5h-635q-20 0 -34.5 14.5t-14.5 34.5v2h632q20 0 35 15t15 35v202h2z" />
    <glyph glyph-name="degree" unicode="&#xb0;" horiz-adv-x="909" 
d="M901 1331q64 -95 64 -215q0 -164 -117 -279.5t-283 -115.5q-118 0 -213 61q52 -10 101 -10q20 0 32 2q8 -2 29 -2q166 0 282.5 115.5t116.5 279.5q0 21 -2 31q2 10 2 31q0 53 -12 102zM451 1165q-24 0 -43 19q-10 10 -15 20q9 31 32.5 55t53.5 31q9 -2 21 -14
q17 -14 20 -39q-49 -18 -69 -72z" />
    <glyph glyph-name="plusminus" unicode="&#xb1;" horiz-adv-x="1159" 
d="M879 1249v-63h-52v112h2q20 0 35 -14.5t15 -34.5zM1120 1012q20 0 34.5 -14.5t14.5 -34.5v-273q0 -20 -14.5 -34.5t-34.5 -14.5h-200q-17 0 -29 -12t-12 -29v-135h-52v186q0 17 12 29t29 12h201q20 0 34.5 14.5t14.5 34.5v271h2zM264 641q-20 0 -34.5 14.5t-14.5 34.5v2
h117v-51h-68zM1110 291q20 0 34.5 -14.5t14.5 -34.5v-273q0 -20 -14.5 -34.5t-34.5 -14.5h-854q-20 0 -34.5 14.5t-14.5 34.5v2h852q20 0 34.5 14.5t14.5 34.5v271h2z" />
    <glyph glyph-name="twosuperior" unicode="&#xb2;" horiz-adv-x="897" 
d="M838 889q-22 14 -54 14h-34q151 147 151 301q0 21 -2 31q2 10 2 31q0 47 -8 86q59 -88 59 -199q0 -137 -114 -264zM483 1243q-9 -12 -34 -37q-1 -1 -20.5 -18.5t-33.5 -28.5q2 4 2 19q0 39 22.5 65.5t61.5 34.5q11 -3 11 -6q2 0 2 -6q0 -5 -2 -9q-1 -2 -9 -14zM197 1094
q-13 0 -19 6.5t-6 25.5v19h207l-57 -51h-125zM897 729q20 0 34.5 -14.5t14.5 -34.5v-184q0 -20 -14.5 -35t-34.5 -15h-690q-20 0 -34.5 15t-14.5 35v2h688q20 0 34.5 14.5t14.5 34.5v182h2z" />
    <glyph glyph-name="threesuperior" unicode="&#xb3;" horiz-adv-x="868" 
d="M836 1028q-14 21 -48 55q66 78 66 181q0 18 -2 28q2 10 2 33q0 29 -2 43q53 -69 53 -156q0 -106 -69 -184zM885 897q53 -62 53 -149q0 -146 -120.5 -234t-295.5 -88q-173 0 -344 82q-2 1 -5 3t-5 3q124 -37 242 -37h61q175 0 295.5 88t120.5 234q0 18 -2 28q2 10 2 33
q0 25 -2 37z" />
    <glyph glyph-name="acute" unicode="&#xb4;" horiz-adv-x="731" 
d="M823 1870q7 -14 2.5 -29.5t-18.5 -21.5l-520 -240q-15 -6 -32 -0.5t-26 18.5l-16 31q6 -2 23 2l520 240q14 6 18.5 21.5t-2.5 29.5l-4 6q4 7 8 25z" />
    <glyph glyph-name="paragraph" unicode="&#xb6;" horiz-adv-x="1718" 
d="M1651 1485q20 0 34.5 -14.5t14.5 -34.5v-1499q0 -20 -14.5 -35t-34.5 -15h-297q-20 0 -34.5 15t-14.5 35v2h294q20 0 35 14.5t15 34.5v1497h2zM535 1006q7 58 38.5 97.5t79.5 53.5v-76q-69 -53 -69 -159v-2q-20 13 -33 34q-13 23 -16 52zM473 430q83 -22 164 -22h16v-43
q-103 19 -180 65zM1122 -61q31 0 45 28q19 -19 56 -26v-4q0 -20 -14.5 -35t-34.5 -15h-297q-20 0 -35 15t-15 35v2h295z" />
    <glyph glyph-name="periodcentered" unicode="&#xb7;" horiz-adv-x="688" 
d="M659 793q56 -69 56 -158q0 -106 -76 -182t-182 -76q-90 0 -158 55q28 -4 45 -4q23 0 33 2q10 -2 29 -2q106 0 182 76t76 182q0 19 -2 29q2 10 2 33q0 10 -5 45z" />
    <glyph glyph-name="cedilla" unicode="&#xb8;" horiz-adv-x="661" 
d="M659 -276q56 -67 56 -166q0 -114 -74 -189.5t-207 -75.5q-104 0 -246 50q-18 7 -24 22q1 0 4 -1t4 -1q85 -18 150 -18q20 0 30 2q10 -2 31 -2q133 0 207 75t74 189q0 21 -2 29q2 12 2 32q0 9 -5 54z" />
    <glyph glyph-name="onesuperior" unicode="&#xb9;" horiz-adv-x="542" 
d="M528 1485q20 0 35 -14.5t15 -34.5v-940q0 -20 -15 -35t-35 -15h-184q-20 0 -34.5 15t-14.5 35v2h182q20 0 34.5 14.5t14.5 34.5v938h2z" />
    <glyph glyph-name="ordmasculine" unicode="&#xba;" horiz-adv-x="1005" 
d="M997 1305q66 -109 66 -234q0 -184 -131 -312t-320 -128q-127 0 -235 65q55 -14 123 -14h61q189 0 320 128t131 312v62q0 62 -15 121zM461 1100q-19 8 -27 18q-16 16 -22 39q9 45 40.5 77.5t75.5 41.5q24 -6 43 -25q12 -12 17 -24q-49 -7 -83.5 -42t-43.5 -85z" />
    <glyph glyph-name="guillemotright" unicode="&#xbb;" horiz-adv-x="1433" 
d="M1411 829q37 -32 37 -81v-220q0 -50 -37 -82l-506 -448q-11 -9 -24 -3.5t-13 19.5v47l492 437q37 32 37 82v262zM776 840l29 -27q22 -28 22 -65v-41l-51 -45v178zM248 14v47l446 396v-97l-409 -362q-11 -9 -24 -3.5t-13 19.5z" />
    <glyph glyph-name="onequarter" unicode="&#xbc;" horiz-adv-x="1990" 
d="M1608 1485q17 0 24.5 -14t-0.5 -29l-897 -1512q-22 -43 -73 -43h-211q-17 0 -25 14t0 29l4 9h180q52 0 74 43l893 1503h31zM631 1436v-738l-51 -86v873h2q20 0 34.5 -14.5t14.5 -34.5zM1831 883l-115 -195h-82l142 238h30q17 0 25 -14t0 -29zM512 498l-31 -52h-84
q-20 0 -34.5 15t-14.5 35v2h164zM1982 328q20 0 35 -14.5t15 -34.5v-168q0 -20 -15 -35t-35 -15h-14q-17 0 -29 -12t-12 -29v-83q0 -20 -14.5 -35t-34.5 -15h-176q-20 0 -34.5 15t-14.5 35v2h174q20 0 34.5 14.5t14.5 34.5v84q0 17 12 29t29 12h14q20 0 34.5 14.5t14.5 34.5
v166h2zM1161 111v2h318v-52h-269q-20 0 -34.5 15t-14.5 35z" />
    <glyph glyph-name="onehalf" unicode="&#xbd;" horiz-adv-x="2072" 
d="M1622 1442l-215 -365q-74 -29 -137 -92l297 500h30q17 0 25 -14t0 -29zM621 1436v-738l-52 -86v873h2q20 0 35 -14.5t15 -34.5zM674 -18l493 831q-18 -61 -18 -133q0 -19 4 -31l-428 -719q-22 -43 -74 -43h-211q-17 0 -24.5 14t0.5 29l4 9h180q52 0 74 43zM1989 330
q-22 14 -54 14h-34q151 147 151 301q0 21 -2 31q2 10 2 31q0 47 -8 86q59 -88 59 -199q0 -137 -114 -264zM1548 618q0 39 22.5 66t61.5 35q10 -3 10 -6q3 0 3 -6q0 -3 -3 -9q-4 -8 -8 -14q-6 -8 -35 -37q-3 -2 -21 -19t-32 -28q2 4 2 18zM1323 567v19h207l-57 -51h-125
q-13 0 -19 6.5t-6 25.5zM502 498l-31 -52h-84q-20 0 -34.5 15t-14.5 35v2h164zM2048 170q20 0 34.5 -14.5t14.5 -34.5v-184q0 -20 -14.5 -35t-34.5 -15h-690q-20 0 -34.5 15t-14.5 35v2h688q20 0 34.5 14.5t14.5 34.5v182h2z" />
    <glyph glyph-name="threequarters" unicode="&#xbe;" horiz-adv-x="2228" 
d="M1845 1485q17 0 25 -14t0 -29l-897 -1512q-22 -43 -74 -43h-211q-17 0 -24.5 14t0.5 29l4 9h180q52 0 74 43l893 1503h30zM889 1028q-16 24 -47 55q65 77 65 181q0 18 -2 28q2 10 2 33q0 29 -2 43q53 -69 53 -156q0 -106 -69 -184zM268 1171h-30q-25 0 -25 29v23h82
q-20 -20 -27 -52zM2068 883l-114 -195h-82l141 238h31q17 0 24.5 -14t-0.5 -29zM770 535l-53 -93q-72 -16 -142 -16q-173 0 -344 82q-2 1 -5 3t-5 3q124 -37 242 -37h61q136 0 246 58zM2220 328q20 0 34.5 -14.5t14.5 -34.5v-168q0 -20 -14.5 -35t-34.5 -15h-14
q-17 0 -29 -12t-12 -29v-83q0 -20 -14.5 -35t-34.5 -15h-177q-20 0 -34.5 15t-14.5 35v2h174q20 0 35 14.5t15 34.5v84q0 17 11.5 29t28.5 12h15q20 0 34.5 14.5t14.5 34.5v166h2zM1399 111v2h317v-52h-268q-20 0 -34.5 15t-14.5 35z" />
    <glyph glyph-name="questiondown" unicode="&#xbf;" horiz-adv-x="1210" 
d="M885 1032q-12 20 -21 29q-19 15 -33 20q64 33 104 95.5t40 136.5q0 18 -2 28q2 10 2 33q0 17 -4 45q55 -68 55 -157q0 -74 -38.5 -135.5t-102.5 -94.5zM575 418q-7 3 -10 10q6 17 21 35t27.5 28.5t41.5 32.5q42 31 67 51t62 58t58 73.5t37 87.5t16 109v15h6
q19 0 32 -13.5t13 -32.5v-20q0 -146 -98 -258h-55q-25 0 -48 -10q-31 -14 -51 -43q-17 -27 -20 -54l-2 -2q-3 -20 -10 -39q-12 -18 -27 -24q-11 -8 -35 -8q-13 0 -25 4zM1219 420q12 0 21 -10t9 -23v-35q0 -97 -33 -179.5t-88 -139.5t-127 -97.5t-149.5 -59.5t-155.5 -19
q-153 0 -274 71q85 -20 162 -20h61q78 0 155.5 19t149.5 59.5t127 97.5t88 139.5t33 179.5v17h21z" />
    <glyph glyph-name="Agrave" unicode="&#xc0;" horiz-adv-x="1697" 
d="M1288 1829q17 -12 22 -32.5t-5 -39.5l-88 -151q-10 -19 -30.5 -25.5t-39.5 2.5l-100 47q1 0 4.5 -1t5.5 -1q1 0 37 6h2q19 -9 38.5 -2.5t30.5 25.5l88 151q12 18 4 41zM895 778l-43 -112h-72l78 206zM637 172h483l21 -51h-453q-41 0 -55 -39l-58 -150q-7 -20 -25 -32.5
t-40 -12.5h-348q-18 0 -27.5 15t-3.5 30l2 7h326q22 0 40 12.5t25 32.5l58 149q14 39 55 39zM1792 -68q6 -15 -3.5 -30t-27.5 -15h-348q-22 0 -39.5 12.5t-25.5 32.5l-2 7h364q18 0 27.5 15t3.5 30l-4 12q6 18 6 37q0 20 -6 35z" />
    <glyph glyph-name="Aacute" unicode="&#xc1;" horiz-adv-x="1697" 
d="M1309 1870q7 -14 2 -29.5t-19 -21.5l-520 -240q-15 -6 -31.5 -1t-25.5 19l-17 31q6 -2 23 2l520 240q14 6 18.5 21.5t-2.5 29.5l-4 6q5 11 9 25zM895 778l-43 -112h-72l78 206zM637 172h483l21 -51h-453q-41 0 -55 -39l-58 -150q-7 -20 -25 -32.5t-40 -12.5h-348
q-18 0 -27.5 15t-3.5 30l2 7h326q22 0 40 12.5t25 32.5l58 149q14 39 55 39zM1792 -68q6 -15 -3.5 -30t-27.5 -15h-348q-22 0 -39.5 12.5t-25.5 32.5l-2 7h364q18 0 27.5 15t3.5 30l-4 12q6 18 6 37q0 20 -6 35z" />
    <glyph glyph-name="Acircumflex" unicode="&#xc2;" horiz-adv-x="1697" 
d="M1389 1827q15 -12 17.5 -33.5t-9.5 -36.5l-115 -141q-12 -17 -33.5 -20t-38.5 8l-65 45q6 0 18 4q17 -9 37.5 -5t30.5 19l115 141q15 18 8 47zM659 1655l211 137l66 -43q-4 0 -8 -4l-217 -141q-17 -11 -38.5 -8t-33.5 20l-27 33q25 -6 47 6zM895 778l-43 -112h-72l78 206
zM637 172h483l21 -51h-453q-41 0 -55 -39l-58 -150q-7 -20 -25 -32.5t-40 -12.5h-348q-18 0 -27.5 15t-3.5 30l2 7h326q22 0 40 12.5t25 32.5l58 149q14 39 55 39zM1792 -68q6 -15 -3.5 -30t-27.5 -15h-348q-22 0 -39.5 12.5t-25.5 32.5l-2 7h364q18 0 27.5 15t3.5 30l-4 12
q6 18 6 37q0 20 -6 35z" />
    <glyph glyph-name="Atilde" unicode="&#xc3;" horiz-adv-x="1697" 
d="M1329 1980q19 0 33 -15t12 -34q-2 -44 -9 -85t-26 -90t-47 -85t-76.5 -60t-111.5 -24q-90 0 -178 58q40 -7 65 -7q23 0 33 2q8 -2 29 -2q62 0 110.5 24t77 59.5t47.5 84t26 89.5t9 85h6zM770 1710v2q22 -15 55 -33q-4 -4 -4 -20q-2 -14 -12 -23.5t-23 -9.5h-190
q-19 0 -33 15t-12 34v2h184q13 0 23 9.5t12 23.5zM895 778l-43 -112h-72l78 206zM637 172h483l21 -51h-453q-41 0 -55 -39l-58 -150q-7 -20 -25 -32.5t-40 -12.5h-348q-18 0 -27.5 15t-3.5 30l2 7h326q22 0 40 12.5t25 32.5l58 149q14 39 55 39zM1792 -68q6 -15 -3.5 -30
t-27.5 -15h-348q-22 0 -39.5 12.5t-25.5 32.5l-2 7h364q18 0 27.5 15t3.5 30l-4 12q6 18 6 37q0 20 -6 35z" />
    <glyph glyph-name="Adieresis" unicode="&#xc4;" horiz-adv-x="1697" 
d="M1368 1921q51 -61 51 -133q0 -83 -57 -142t-139 -59q-75 0 -133 51h20q23 0 33 2q10 -2 28 -2q82 0 139.5 59t57.5 142q0 19 -2 29q2 10 2 33v20zM850 1868v10q9 -77 49 -131q-14 -68 -68 -114t-124 -46q-76 0 -134 51h21q23 0 33 2q10 -2 28 -2q82 0 139.5 59t57.5 142
q0 19 -2 29zM895 778l-43 -112h-72l78 206zM637 172h483l21 -51h-453q-41 0 -55 -39l-58 -150q-7 -20 -25 -32.5t-40 -12.5h-348q-18 0 -27.5 15t-3.5 30l2 7h326q22 0 40 12.5t25 32.5l58 149q14 39 55 39zM1792 -68q6 -15 -3.5 -30t-27.5 -15h-348q-22 0 -39.5 12.5
t-25.5 32.5l-2 7h364q18 0 27.5 15t3.5 30l-4 12q6 18 6 37q0 20 -6 35z" />
    <glyph glyph-name="Aring" unicode="&#xc5;" horiz-adv-x="1697" 
d="M1243 2064q60 -89 60 -190q0 -139 -101 -238.5t-241 -99.5q-103 0 -191 59q33 -8 78 -8q21 0 33 2q8 -2 28 -2q140 0 241 99.5t101 238.5q0 21 -2 29q2 12 2 33q0 41 -8 77zM895 778l-43 -112h-72l78 206zM637 172h483l21 -51h-453q-41 0 -55 -39l-58 -150
q-7 -20 -25 -32.5t-40 -12.5h-348q-18 0 -27.5 15t-3.5 30l2 7h326q22 0 40 12.5t25 32.5l58 149q14 39 55 39zM1792 -68q6 -15 -3.5 -30t-27.5 -15h-348q-22 0 -39.5 12.5t-25.5 32.5l-2 7h364q18 0 27.5 15t3.5 30l-4 12q6 18 6 37q0 20 -6 35z" />
    <glyph glyph-name="AE" unicode="&#xc6;" horiz-adv-x="2623" 
d="M2611 1485q20 0 34.5 -14.5t14.5 -34.5v-299q0 -20 -14.5 -35t-34.5 -15h-729q-17 0 -29 -11.5t-12 -28.5v-15h-51v66q0 17 12 29t29 12h729q20 0 34.5 14.5t14.5 34.5v297h2zM1882 487q-14 0 -25 -8.5t-14 -21.5h-53v41q0 17 12 29t29 12h584q20 0 34.5 14.5t14.5 34.5
v270h2q20 0 34.5 -14.5t14.5 -34.5v-272q0 -20 -14.5 -35t-34.5 -15h-584zM1231 666h-92l121 151v-117zM2611 283q20 0 34.5 -15t14.5 -35v-296q0 -20 -14.5 -35t-34.5 -15h-1128q-20 0 -34.5 15t-14.5 35v2h1126q20 0 34.5 14.5t14.5 34.5v295h2zM727 139q23 33 66 33h467
v-51h-416q-43 0 -66 -33l-129 -162q-28 -39 -80 -39h-428q-15 0 -21 13.5t3 25.5l10 13h385q53 0 80 38z" />
    <glyph glyph-name="Ccedilla" unicode="&#xc7;" horiz-adv-x="1673" 
d="M1438 915q-20 -11 -40 -5t-32 26q-1 1 -8 11t-12 16q22 -6 40 4l283 125q17 7 22.5 27.5t-3.5 35.5v2q1 3 2 8.5t2 8.5q40 -57 47 -70q9 -15 3.5 -36t-22.5 -28zM1008 1120q-180 0 -307.5 -126.5t-127.5 -307.5q0 -39 11 -92q-54 79 -60 176q10 161 125 274.5t275 124.5
q80 -6 149 -41q25 -15 29 -18q-52 10 -94 10zM1722 334q17 -6 23.5 -26.5t-4.5 -35.5q-97 -167 -264 -275.5t-367 -133.5q-18 -4 -23 -8q-17 19 -57 47q11 8 29 12q200 25 367 134t264 276q6 9 6 22zM1165 -360q0 17 -4 53q56 -67 56 -166q0 -114 -74 -189t-207 -75
q-106 0 -246 49q-18 7 -24 22q1 0 4 -1t4 -1q85 -18 149 -18q21 0 31 2q10 -2 31 -2q133 0 206.5 75t73.5 189q0 21 -2 29q2 12 2 33z" />
    <glyph glyph-name="Egrave" unicode="&#xc8;" horiz-adv-x="1425" 
d="M1174 1829q17 -12 21.5 -32.5t-5.5 -39.5l-88 -151q-10 -19 -30.5 -25.5t-39.5 2.5l-100 47q1 0 4.5 -1t5.5 -1q1 0 37 6h2q19 -9 39.5 -2.5t30.5 25.5l88 151q12 18 4 41zM1413 1485q20 0 34.5 -14.5t14.5 -34.5v-299q0 -20 -14.5 -35t-34.5 -15h-727q-17 0 -29 -11.5
t-12 -28.5v-15h-51v66q0 17 12 29t29 12h727q20 0 34.5 14.5t14.5 34.5v297h2zM686 487q-14 0 -25 -8.5t-14 -21.5h-53v41q0 17 12 29t29 12h582q20 0 34.5 14.5t14.5 34.5v270h2q20 0 34.5 -14.5t14.5 -34.5v-272q0 -20 -14.5 -35t-34.5 -15h-582zM1413 283q20 0 34.5 -15
t14.5 -35v-296q0 -20 -14.5 -35t-34.5 -15h-1128q-20 0 -34.5 15t-14.5 35v2h1126q20 0 34.5 14.5t14.5 34.5v295h2z" />
    <glyph glyph-name="Eacute" unicode="&#xc9;" horiz-adv-x="1425" 
d="M1194 1870q7 -14 2.5 -29.5t-18.5 -21.5l-521 -240q-15 -6 -31.5 -1t-25.5 19l-16 31q6 -2 22 2l520 240q14 6 19 21.5t-2 29.5l-4 6q3 7 8 25zM1413 1485q20 0 34.5 -14.5t14.5 -34.5v-299q0 -20 -14.5 -35t-34.5 -15h-727q-17 0 -29 -11.5t-12 -28.5v-15h-51v66
q0 17 12 29t29 12h727q20 0 34.5 14.5t14.5 34.5v297h2zM686 487q-14 0 -25 -8.5t-14 -21.5h-53v41q0 17 12 29t29 12h582q20 0 34.5 14.5t14.5 34.5v270h2q20 0 34.5 -14.5t14.5 -34.5v-272q0 -20 -14.5 -35t-34.5 -15h-582zM1413 283q20 0 34.5 -15t14.5 -35v-296
q0 -20 -14.5 -35t-34.5 -15h-1128q-20 0 -34.5 15t-14.5 35v2h1126q20 0 34.5 14.5t14.5 34.5v295h2z" />
    <glyph glyph-name="Ecircumflex" unicode="&#xca;" horiz-adv-x="1425" 
d="M1274 1827q15 -12 17.5 -33.5t-9.5 -36.5l-115 -141q-12 -17 -33 -20t-38 8l-66 45q7 0 19 4q17 -9 37 -5t30 19l115 141q15 18 8 47zM545 1655l211 137l65 -43q-4 0 -8 -4l-217 -141q-17 -11 -38.5 -8t-33.5 20l-26 33q25 -6 47 6zM1413 1485q20 0 34.5 -14.5
t14.5 -34.5v-299q0 -20 -14.5 -35t-34.5 -15h-727q-17 0 -29 -11.5t-12 -28.5v-15h-51v66q0 17 12 29t29 12h727q20 0 34.5 14.5t14.5 34.5v297h2zM686 487q-14 0 -25 -8.5t-14 -21.5h-53v41q0 17 12 29t29 12h582q20 0 34.5 14.5t14.5 34.5v270h2q20 0 34.5 -14.5
t14.5 -34.5v-272q0 -20 -14.5 -35t-34.5 -15h-582zM1413 283q20 0 34.5 -15t14.5 -35v-296q0 -20 -14.5 -35t-34.5 -15h-1128q-20 0 -34.5 15t-14.5 35v2h1126q20 0 34.5 14.5t14.5 34.5v295h2z" />
    <glyph glyph-name="Edieresis" unicode="&#xcb;" horiz-adv-x="1425" 
d="M1253 1921q52 -62 52 -133q0 -83 -57.5 -142t-139.5 -59q-75 0 -133 51h20q23 0 33 2q10 -2 29 -2q82 0 139 59t57 142q0 19 -2 29q2 10 2 33v20zM735 1868v10q9 -77 49 -131q-14 -68 -68 -114t-124 -46q-75 0 -133 51h20q23 0 33 2q10 -2 29 -2q82 0 139 59t57 142
q0 19 -2 29zM1413 1485q20 0 34.5 -14.5t14.5 -34.5v-299q0 -20 -14.5 -35t-34.5 -15h-727q-17 0 -29 -11.5t-12 -28.5v-15h-51v66q0 17 12 29t29 12h727q20 0 34.5 14.5t14.5 34.5v297h2zM686 487q-14 0 -25 -8.5t-14 -21.5h-53v41q0 17 12 29t29 12h582q20 0 34.5 14.5
t14.5 34.5v270h2q20 0 34.5 -14.5t14.5 -34.5v-272q0 -20 -14.5 -35t-34.5 -15h-582zM1413 283q20 0 34.5 -15t14.5 -35v-296q0 -20 -14.5 -35t-34.5 -15h-1128q-20 0 -34.5 15t-14.5 35v2h1126q20 0 34.5 14.5t14.5 34.5v295h2z" />
    <glyph glyph-name="Igrave" unicode="&#xcc;" horiz-adv-x="655" 
d="M762 1829q17 -12 21.5 -32.5t-5.5 -39.5l-88 -151q-11 -19 -30.5 -25.5t-38.5 2.5l-101 47q1 0 4.5 -1t5.5 -1q1 0 37 6h2q19 -9 39.5 -2.5t30.5 25.5l88 151q12 18 4 41zM596 1485q20 0 34.5 -14.5t14.5 -34.5v-1499q0 -20 -14.5 -35t-34.5 -15h-311q-20 0 -34.5 15
t-14.5 35v2h309q20 0 34.5 14.5t14.5 34.5v1497h2z" />
    <glyph glyph-name="Iacute" unicode="&#xcd;" horiz-adv-x="655" 
d="M784 1870q7 -14 2.5 -29.5t-18.5 -21.5l-520 -240q-15 -6 -32 -0.5t-26 18.5l-16 31q6 -2 23 2l520 240q14 6 18.5 21.5t-2.5 29.5l-4 6q3 7 8 25zM596 1485q20 0 34.5 -14.5t14.5 -34.5v-1499q0 -20 -14.5 -35t-34.5 -15h-311q-20 0 -34.5 15t-14.5 35v2h309
q20 0 34.5 14.5t14.5 34.5v1497h2z" />
    <glyph glyph-name="Icircumflex" unicode="&#xce;" horiz-adv-x="655" 
d="M864 1827q15 -12 17.5 -33.5t-9.5 -36.5l-114 -141q-12 -17 -33.5 -20t-38.5 8l-65 45q6 0 18 4q17 -9 37.5 -5t30.5 19l114 141q15 18 8 47zM135 1655l211 137l66 -43q-5 0 -9 -4l-217 -141q-17 -11 -38 -8t-33 20l-27 33q25 -6 47 6zM596 1485q20 0 34.5 -14.5
t14.5 -34.5v-1499q0 -20 -14.5 -35t-34.5 -15h-311q-20 0 -34.5 15t-14.5 35v2h309q20 0 34.5 14.5t14.5 34.5v1497h2z" />
    <glyph glyph-name="Idieresis" unicode="&#xcf;" horiz-adv-x="655" 
d="M844 1921q51 -61 51 -133q0 -83 -57.5 -142t-139.5 -59q-75 0 -133 51h21q22 0 32 2q10 -2 29 -2q82 0 139.5 59t57.5 142q0 19 -2 29q2 10 2 33v20zM326 1868v10q9 -77 49 -131q-14 -68 -68.5 -114t-124.5 -46q-75 0 -133 51h21q22 0 32 2q10 -2 29 -2q82 0 139.5 59
t57.5 142q0 19 -2 29zM596 1485q20 0 34.5 -14.5t14.5 -34.5v-1499q0 -20 -14.5 -35t-34.5 -15h-311q-20 0 -34.5 15t-14.5 35v2h309q20 0 34.5 14.5t14.5 34.5v1497h2z" />
    <glyph glyph-name="Eth" unicode="&#xd0;" horiz-adv-x="1685" 
d="M655 1047v-25h-51v76q0 17 12 29t29 12h199q79 0 137 -25q32 -11 59 -35q-36 8 -84 8h-260q-17 0 -29 -11.5t-12 -28.5zM1645 1110q98 -183 98 -424q0 -132 -30 -250.5t-92.5 -219t-151 -174t-212 -114.5t-270.5 -41h-692q-20 0 -34.5 15t-14.5 35v2h690q182 0 328 63
t238.5 173t141 253.5t48.5 308.5v62q0 174 -47 311zM696 496q-17 0 -28 -11t-13 -28h-51v49q0 17 12 29t29 12h248q20 0 34.5 14.5t14.5 34.5v252h2q20 0 34.5 -14.5t14.5 -34.5v-254q0 -20 -14.5 -34.5t-34.5 -14.5h-248z" />
    <glyph glyph-name="Ntilde" unicode="&#xd1;" horiz-adv-x="1714" 
d="M1337 1980q19 0 33 -15t12 -34q-2 -44 -9 -85t-26 -90t-47 -85t-76.5 -60t-111.5 -24q-90 0 -178 58q40 -7 65 -7q23 0 33 2q8 -2 29 -2q62 0 110.5 24t77 59.5t47.5 84t26 89.5t9 85h6zM778 1710v2q17 -11 56 -33q-5 -5 -5 -20q-2 -14 -11.5 -23.5t-22.5 -9.5h-191
q-19 0 -33 15t-12 34v2h184q13 0 23 9.5t12 23.5zM1655 1485q20 0 34.5 -14.5t14.5 -34.5v-1499q0 -20 -14.5 -35t-34.5 -15h-248q-52 0 -80 39l-10 13h287q20 0 34.5 14.5t14.5 34.5v1497h2zM594 -12v727l51 -66v-712q0 -20 -14.5 -35t-34.5 -15h-311q-20 0 -34.5 15
t-14.5 35v2h309q20 0 34.5 14.5t14.5 34.5z" />
    <glyph glyph-name="Ograve" unicode="&#xd2;" horiz-adv-x="1789" 
d="M1333 1829q17 -12 22 -32.5t-5 -39.5l-88 -151q-10 -19 -30.5 -25.5t-39.5 2.5l-100 47q1 0 4.5 -1t5.5 -1q1 0 37 6h2q19 -9 39 -2.5t30 25.5l88 151q12 19 5 41zM1008 1120q-180 0 -307.5 -126.5t-127.5 -307.5q0 -39 11 -92q-54 79 -60 176q10 161 125 274.5
t277 124.5q101 -6 178 -59q-52 10 -96 10zM1765 1059q90 -178 90 -373q0 -168 -67 -321.5t-180.5 -264.5t-270.5 -177t-329 -66q-204 0 -390 94q130 -43 277 -43h61q172 0 329 66t270.5 177t181 264.5t67.5 321.5v62q0 132 -39 260z" />
    <glyph glyph-name="Oacute" unicode="&#xd3;" horiz-adv-x="1789" 
d="M1354 1870q7 -14 2 -29.5t-19 -21.5l-520 -240q-15 -6 -31.5 -1t-25.5 19l-17 31q6 -2 23 2l520 240q14 6 19 21.5t-2 29.5l-5 6q6 11 9 25zM1008 1120q-180 0 -307.5 -126.5t-127.5 -307.5q0 -39 11 -92q-54 79 -60 176q10 161 125 274.5t277 124.5q101 -6 178 -59
q-52 10 -96 10zM1765 1059q90 -178 90 -373q0 -168 -67 -321.5t-180.5 -264.5t-270.5 -177t-329 -66q-204 0 -390 94q130 -43 277 -43h61q172 0 329 66t270.5 177t181 264.5t67.5 321.5v62q0 132 -39 260z" />
    <glyph glyph-name="Ocircumflex" unicode="&#xd4;" horiz-adv-x="1789" 
d="M1436 1827q15 -12 17.5 -33.5t-9.5 -36.5l-115 -141q-12 -17 -33.5 -20t-38.5 8l-65 45q6 0 18 4q17 -9 37.5 -5t30.5 19l115 141q15 18 8 47zM707 1655l211 137l65 -43q-4 0 -8 -4l-217 -141q-17 -11 -38.5 -8t-33.5 20l-27 33q26 -7 48 6zM1008 1120
q-180 0 -307.5 -126.5t-127.5 -307.5q0 -39 11 -92q-54 79 -60 176q10 161 125 274.5t277 124.5q101 -6 178 -59q-52 10 -96 10zM1765 1059q90 -178 90 -373q0 -168 -67 -321.5t-180.5 -264.5t-270.5 -177t-329 -66q-204 0 -390 94q130 -43 277 -43h61q172 0 329 66
t270.5 177t181 264.5t67.5 321.5v62q0 132 -39 260z" />
    <glyph glyph-name="Otilde" unicode="&#xd5;" horiz-adv-x="1789" 
d="M1376 1980q19 0 33 -15t12 -34q-2 -44 -9 -85t-26 -90t-47 -85t-76.5 -60t-111.5 -24q-90 0 -178 58q40 -7 65 -7q23 0 33 2q8 -2 29 -2q62 0 110.5 24t77 59.5t47.5 84t26 89.5t9 85h6zM817 1710v2q22 -15 55 -33q-4 -4 -4 -20q-2 -14 -11.5 -23.5t-22.5 -9.5h-191
q-19 0 -33 15t-12 34v2h184q13 0 23 9.5t12 23.5zM1008 1120q-180 0 -307.5 -126.5t-127.5 -307.5q0 -39 11 -92q-54 79 -60 176q10 161 125 274.5t277 124.5q101 -6 178 -59q-52 10 -96 10zM1765 1059q90 -178 90 -373q0 -168 -67 -321.5t-180.5 -264.5t-270.5 -177
t-329 -66q-204 0 -390 94q130 -43 277 -43h61q172 0 329 66t270.5 177t181 264.5t67.5 321.5v62q0 132 -39 260z" />
    <glyph glyph-name="Odieresis" unicode="&#xd6;" horiz-adv-x="1789" 
d="M1413 1921q51 -61 51 -133q0 -83 -57 -142t-139 -59q-75 0 -133 51h20q23 0 33 2q10 -2 29 -2q82 0 139 59t57 142q0 19 -2 29q2 10 2 33v20zM895 1868v10q9 -77 49 -131q-14 -68 -68 -114t-124 -46q-76 0 -134 51h21q23 0 33 2q10 -2 28 -2q82 0 139.5 59t57.5 142
q0 19 -2 29zM1008 1120q-180 0 -307.5 -126.5t-127.5 -307.5q0 -39 11 -92q-54 79 -60 176q10 161 125 274.5t277 124.5q101 -6 178 -59q-52 10 -96 10zM1765 1059q90 -178 90 -373q0 -168 -67 -321.5t-180.5 -264.5t-270.5 -177t-329 -66q-204 0 -390 94q130 -43 277 -43
h61q172 0 329 66t270.5 177t181 264.5t67.5 321.5v62q0 132 -39 260z" />
    <glyph glyph-name="multiply" unicode="&#xd7;" horiz-adv-x="1210" 
d="M1206 864l-182 -182l-51 51l182 182q11 11 13 28.5t-5 31.5v2l43 -43q14 -14 14 -35t-14 -35zM1163 457l43 -43q14 -14 14 -35t-14 -35l-194 -192q-14 -14 -35 -14t-35 14l-43 43h2q14 -7 31.5 -5t28.5 13l194 192q11 11 13 28.5t-5 31.5v2zM442 203l181 180l51 -51
l-180 -180q-14 -14 -35 -14t-35 14l-43 43h2q14 -7 31 -5t28 13z" />
    <glyph glyph-name="Oslash" unicode="&#xd8;" horiz-adv-x="1787" 
d="M1792 1446l-135 -168q-5 10 -12.5 20.5t-16.5 22t-14 18.5l117 146h43q15 0 21 -13.5t-3 -25.5zM573 713l-30 -39q-16 51 -19 94q11 163 124 277t276 124q10 0 16 -2l-51 -63q-132 -37 -219.5 -144t-96.5 -247zM1765 1055q90 -175 90 -369q0 -168 -67.5 -321.5
t-181 -264.5t-270.5 -177t-328 -66q-196 0 -373 86q-37 16 -64 -15l-4 -6q-31 -35 -73 -35h-252q-15 0 -21.5 13.5t2.5 25.5l10 13h209q43 0 74 34l4 7l6 6q180 -78 369 -78h61q171 0 328 66t271 177t181.5 264.5t67.5 321.5v62q0 128 -39 256zM895 426h-16l376 467
q13 -47 13 -94v-4l-289 -361q-54 -8 -84 -8z" />
    <glyph glyph-name="Ugrave" unicode="&#xd9;" 
d="M1272 1829q17 -12 21.5 -32.5t-5.5 -39.5l-88 -151q-10 -19 -30.5 -25.5t-39.5 2.5l-100 47q1 0 4.5 -1t5.5 -1q1 0 37 6h2q19 -9 39.5 -2.5t30.5 25.5l88 151q12 18 4 41zM631 506q-23 30 -37 67q-23 67 -23 150v762h2q20 0 35 -14.5t15 -34.5v-826q0 -63 8 -104z
M1632 1485q20 0 34.5 -14.5t14.5 -34.5v-850q0 -155 -48.5 -287.5t-139.5 -231t-231.5 -154.5t-315.5 -56q-222 0 -389 90q121 -39 277 -39h61q175 0 315.5 56t231.5 154.5t139.5 231t48.5 287.5v848h2z" />
    <glyph glyph-name="Uacute" unicode="&#xda;" 
d="M1292 1870q7 -14 2.5 -29.5t-18.5 -21.5l-520 -240q-15 -6 -32 -0.5t-26 18.5l-16 31q6 -2 23 2l520 240q14 6 18.5 21.5t-2.5 29.5l-4 6q3 7 8 25zM631 506q-23 30 -37 67q-23 67 -23 150v762h2q20 0 35 -14.5t15 -34.5v-826q0 -63 8 -104zM1632 1485q20 0 34.5 -14.5
t14.5 -34.5v-850q0 -155 -48.5 -287.5t-139.5 -231t-231.5 -154.5t-315.5 -56q-222 0 -389 90q121 -39 277 -39h61q175 0 315.5 56t231.5 154.5t139.5 231t48.5 287.5v848h2z" />
    <glyph glyph-name="Ucircumflex" unicode="&#xdb;" 
d="M1372 1827q15 -12 17.5 -33.5t-9.5 -36.5l-114 -141q-12 -17 -33.5 -20t-38.5 8l-66 45q7 0 19 4q17 -9 37 -5t30 19l115 141q15 18 8 47zM643 1655l211 137l66 -43q-5 0 -9 -4l-217 -141q-17 -11 -38 -8t-33 20l-27 33q25 -6 47 6zM631 506q-23 30 -37 67
q-23 67 -23 150v762h2q20 0 35 -14.5t15 -34.5v-826q0 -63 8 -104zM1632 1485q20 0 34.5 -14.5t14.5 -34.5v-850q0 -155 -48.5 -287.5t-139.5 -231t-231.5 -154.5t-315.5 -56q-222 0 -389 90q121 -39 277 -39h61q175 0 315.5 56t231.5 154.5t139.5 231t48.5 287.5v848h2z
" />
    <glyph glyph-name="Udieresis" unicode="&#xdc;" 
d="M1352 1921q51 -61 51 -133q0 -83 -57.5 -142t-139.5 -59q-75 0 -133 51h21q22 0 32 2q10 -2 29 -2q82 0 139.5 59t57.5 142q0 19 -2 29q2 10 2 33v20zM834 1868v10q9 -77 49 -131q-14 -68 -68.5 -114t-124.5 -46q-75 0 -133 51h21q22 0 32 2q10 -2 29 -2q82 0 139.5 59
t57.5 142q0 19 -2 29zM631 506q-23 30 -37 67q-23 67 -23 150v762h2q20 0 35 -14.5t15 -34.5v-826q0 -63 8 -104zM1632 1485q20 0 34.5 -14.5t14.5 -34.5v-850q0 -155 -48.5 -287.5t-139.5 -231t-231.5 -154.5t-315.5 -56q-222 0 -389 90q121 -39 277 -39h61q175 0 315.5 56
t231.5 154.5t139.5 231t48.5 287.5v848h2z" />
    <glyph glyph-name="Yacute" unicode="&#xdd;" horiz-adv-x="1671" 
d="M1292 1870q7 -14 2.5 -29.5t-18.5 -21.5l-520 -240q-15 -6 -32 -0.5t-26 18.5l-16 31q6 -2 23 2l520 240q14 6 18.5 21.5t-2.5 29.5l-4 6q3 7 8 25zM1735 1485q17 0 24 -13.5t-2 -27.5l-583 -936q-23 -33 -23 -76v-495q0 -20 -14.5 -35t-34.5 -15h-309q-20 0 -35 15
t-15 35v2h308q20 0 34.5 14.5t14.5 34.5v495q0 45 22 76l578 926h35z" />
    <glyph glyph-name="Thorn" unicode="&#xde;" horiz-adv-x="1507" 
d="M1487 1012q80 -145 80 -324q0 -129 -39 -240t-114.5 -197t-197.5 -135.5t-276 -49.5h-254q-17 0 -29 -12t-12 -29v-88q0 -20 -14.5 -35t-34.5 -15h-311q-20 0 -34.5 15t-14.5 35v2h309q20 0 34.5 14.5t14.5 34.5v88q0 17 12 29t29 12h254q154 0 276 49.5t197.5 135.5
t114.5 197t39 240v62q0 101 -29 211zM645 887v-275h-51v326q0 17 12 29t29 12h170q46 0 86 -14q24 -12 39 -27l10 -10h-254q-17 0 -29 -12t-12 -29z" />
    <glyph glyph-name="germandbls" unicode="&#xdf;" horiz-adv-x="1810" 
d="M1724 1067l-161 -125q-30 17 -72 37l182 139q39 28 39 80v207q2 -2 4 -2q20 -6 33.5 -24t13.5 -40v-192q0 -52 -39 -80zM965 1161h-11q-171 0 -261.5 -90.5t-90.5 -234.5v-490l-12 -8q-24 -14 -39 -39v588q0 138 84 228t244 97q70 -3 137 -12zM1810 618q66 -101 66 -233
q0 -109 -44 -206t-120 -168t-184 -112.5t-232 -41.5q-200 0 -370 90q121 -39 258 -39h61q124 0 232 41.5t184 112.5t120 168t44 206v62q0 62 -15 120zM1114 537q-50 -10 -78 30l-16 23h2q16 -6 41 -2q51 9 90 12q38 -3 57 -8q53 -14 76 -41q0 -2 2 -4q-72 9 -174 -10z
M551 201q7 -14 12 -19q12 -16 39 -43v-202q0 -20 -14.5 -35t-34.5 -15h-287q-20 0 -34.5 15t-14.5 35v2h285q20 0 34.5 14.5t14.5 34.5v213z" />
    <glyph glyph-name="agrave" unicode="&#xe0;" horiz-adv-x="1697" 
d="M1288 1829q17 -12 22 -32.5t-5 -39.5l-88 -151q-10 -19 -30.5 -25.5t-39.5 2.5l-100 47q1 0 4.5 -1t5.5 -1q1 0 37 6h2q19 -9 38.5 -2.5t30.5 25.5l88 151q12 18 4 41zM895 778l-43 -112h-72l78 206zM637 172h483l21 -51h-453q-41 0 -55 -39l-58 -150q-7 -20 -25 -32.5
t-40 -12.5h-348q-18 0 -27.5 15t-3.5 30l2 7h326q22 0 40 12.5t25 32.5l58 149q14 39 55 39zM1792 -68q6 -15 -3.5 -30t-27.5 -15h-348q-22 0 -39.5 12.5t-25.5 32.5l-2 7h364q18 0 27.5 15t3.5 30l-4 12q6 18 6 37q0 20 -6 35z" />
    <glyph glyph-name="aacute" unicode="&#xe1;" horiz-adv-x="1697" 
d="M1309 1870q7 -14 2 -29.5t-19 -21.5l-520 -240q-15 -6 -31.5 -1t-25.5 19l-17 31q6 -2 23 2l520 240q14 6 18.5 21.5t-2.5 29.5l-4 6q5 11 9 25zM895 778l-43 -112h-72l78 206zM637 172h483l21 -51h-453q-41 0 -55 -39l-58 -150q-7 -20 -25 -32.5t-40 -12.5h-348
q-18 0 -27.5 15t-3.5 30l2 7h326q22 0 40 12.5t25 32.5l58 149q14 39 55 39zM1792 -68q6 -15 -3.5 -30t-27.5 -15h-348q-22 0 -39.5 12.5t-25.5 32.5l-2 7h364q18 0 27.5 15t3.5 30l-4 12q6 18 6 37q0 20 -6 35z" />
    <glyph glyph-name="acircumflex" unicode="&#xe2;" horiz-adv-x="1697" 
d="M1389 1827q15 -12 17.5 -33.5t-9.5 -36.5l-115 -141q-12 -17 -33.5 -20t-38.5 8l-65 45q6 0 18 4q17 -9 37.5 -5t30.5 19l115 141q15 18 8 47zM659 1655l211 137l66 -43q-4 0 -8 -4l-217 -141q-17 -11 -38.5 -8t-33.5 20l-27 33q25 -6 47 6zM895 778l-43 -112h-72l78 206
zM637 172h483l21 -51h-453q-41 0 -55 -39l-58 -150q-7 -20 -25 -32.5t-40 -12.5h-348q-18 0 -27.5 15t-3.5 30l2 7h326q22 0 40 12.5t25 32.5l58 149q14 39 55 39zM1792 -68q6 -15 -3.5 -30t-27.5 -15h-348q-22 0 -39.5 12.5t-25.5 32.5l-2 7h364q18 0 27.5 15t3.5 30l-4 12
q6 18 6 37q0 20 -6 35z" />
    <glyph glyph-name="atilde" unicode="&#xe3;" horiz-adv-x="1697" 
d="M1329 1980q19 0 33 -15t12 -34q-2 -44 -9 -85t-26 -90t-47 -85t-76.5 -60t-111.5 -24q-90 0 -178 58q40 -7 65 -7q23 0 33 2q8 -2 29 -2q62 0 110.5 24t77 59.5t47.5 84t26 89.5t9 85h6zM770 1710v2q22 -15 55 -33q-4 -4 -4 -20q-2 -14 -12 -23.5t-23 -9.5h-190
q-19 0 -33 15t-12 34v2h184q13 0 23 9.5t12 23.5zM895 778l-43 -112h-72l78 206zM637 172h483l21 -51h-453q-41 0 -55 -39l-58 -150q-7 -20 -25 -32.5t-40 -12.5h-348q-18 0 -27.5 15t-3.5 30l2 7h326q22 0 40 12.5t25 32.5l58 149q14 39 55 39zM1792 -68q6 -15 -3.5 -30
t-27.5 -15h-348q-22 0 -39.5 12.5t-25.5 32.5l-2 7h364q18 0 27.5 15t3.5 30l-4 12q6 18 6 37q0 20 -6 35z" />
    <glyph glyph-name="adieresis" unicode="&#xe4;" horiz-adv-x="1697" 
d="M1368 1921q51 -61 51 -133q0 -83 -57 -142t-139 -59q-75 0 -133 51h20q23 0 33 2q10 -2 28 -2q82 0 139.5 59t57.5 142q0 19 -2 29q2 10 2 33v20zM850 1868v10q9 -77 49 -131q-14 -68 -68 -114t-124 -46q-76 0 -134 51h21q23 0 33 2q10 -2 28 -2q82 0 139.5 59t57.5 142
q0 19 -2 29zM895 778l-43 -112h-72l78 206zM637 172h483l21 -51h-453q-41 0 -55 -39l-58 -150q-7 -20 -25 -32.5t-40 -12.5h-348q-18 0 -27.5 15t-3.5 30l2 7h326q22 0 40 12.5t25 32.5l58 149q14 39 55 39zM1792 -68q6 -15 -3.5 -30t-27.5 -15h-348q-22 0 -39.5 12.5
t-25.5 32.5l-2 7h364q18 0 27.5 15t3.5 30l-4 12q6 18 6 37q0 20 -6 35z" />
    <glyph glyph-name="aring" unicode="&#xe5;" horiz-adv-x="1697" 
d="M1243 2064q60 -89 60 -190q0 -139 -101 -238.5t-241 -99.5q-103 0 -191 59q33 -8 78 -8q21 0 33 2q8 -2 28 -2q140 0 241 99.5t101 238.5q0 21 -2 29q2 12 2 33q0 41 -8 77zM895 778l-43 -112h-72l78 206zM637 172h483l21 -51h-453q-41 0 -55 -39l-58 -150
q-7 -20 -25 -32.5t-40 -12.5h-348q-18 0 -27.5 15t-3.5 30l2 7h326q22 0 40 12.5t25 32.5l58 149q14 39 55 39zM1792 -68q6 -15 -3.5 -30t-27.5 -15h-348q-22 0 -39.5 12.5t-25.5 32.5l-2 7h364q18 0 27.5 15t3.5 30l-4 12q6 18 6 37q0 20 -6 35z" />
    <glyph glyph-name="ae" unicode="&#xe6;" horiz-adv-x="2623" 
d="M2611 1485q20 0 34.5 -14.5t14.5 -34.5v-299q0 -20 -14.5 -35t-34.5 -15h-729q-17 0 -29 -11.5t-12 -28.5v-15h-51v66q0 17 12 29t29 12h729q20 0 34.5 14.5t14.5 34.5v297h2zM1882 487q-14 0 -25 -8.5t-14 -21.5h-53v41q0 17 12 29t29 12h584q20 0 34.5 14.5t14.5 34.5
v270h2q20 0 34.5 -14.5t14.5 -34.5v-272q0 -20 -14.5 -35t-34.5 -15h-584zM1231 666h-92l121 151v-117zM2611 283q20 0 34.5 -15t14.5 -35v-296q0 -20 -14.5 -35t-34.5 -15h-1128q-20 0 -34.5 15t-14.5 35v2h1126q20 0 34.5 14.5t14.5 34.5v295h2zM727 139q23 33 66 33h467
v-51h-416q-43 0 -66 -33l-129 -162q-28 -39 -80 -39h-428q-15 0 -21 13.5t3 25.5l10 13h385q53 0 80 38z" />
    <glyph glyph-name="ccedilla" unicode="&#xe7;" horiz-adv-x="1673" 
d="M1438 915q-20 -11 -40 -5t-32 26q-1 1 -8 11t-12 16q22 -6 40 4l283 125q17 7 22.5 27.5t-3.5 35.5v2q1 3 2 8.5t2 8.5q40 -57 47 -70q9 -15 3.5 -36t-22.5 -28zM1008 1120q-180 0 -307.5 -126.5t-127.5 -307.5q0 -39 11 -92q-54 79 -60 176q10 161 125 274.5t275 124.5
q80 -6 149 -41q25 -15 29 -18q-52 10 -94 10zM1722 334q17 -6 23.5 -26.5t-4.5 -35.5q-97 -167 -264 -275.5t-367 -133.5q-18 -4 -23 -8q-17 19 -57 47q11 8 29 12q200 25 367 134t264 276q6 9 6 22zM1165 -360q0 17 -4 53q56 -67 56 -166q0 -114 -74 -189t-207 -75
q-106 0 -246 49q-18 7 -24 22q1 0 4 -1t4 -1q85 -18 149 -18q21 0 31 2q10 -2 31 -2q133 0 206.5 75t73.5 189q0 21 -2 29q2 12 2 33z" />
    <glyph glyph-name="egrave" unicode="&#xe8;" horiz-adv-x="1425" 
d="M1174 1829q17 -12 21.5 -32.5t-5.5 -39.5l-88 -151q-10 -19 -30.5 -25.5t-39.5 2.5l-100 47q1 0 4.5 -1t5.5 -1q1 0 37 6h2q19 -9 39.5 -2.5t30.5 25.5l88 151q12 18 4 41zM1413 1485q20 0 34.5 -14.5t14.5 -34.5v-299q0 -20 -14.5 -35t-34.5 -15h-727q-17 0 -29 -11.5
t-12 -28.5v-15h-51v66q0 17 12 29t29 12h727q20 0 34.5 14.5t14.5 34.5v297h2zM686 487q-14 0 -25 -8.5t-14 -21.5h-53v41q0 17 12 29t29 12h582q20 0 34.5 14.5t14.5 34.5v270h2q20 0 34.5 -14.5t14.5 -34.5v-272q0 -20 -14.5 -35t-34.5 -15h-582zM1413 283q20 0 34.5 -15
t14.5 -35v-296q0 -20 -14.5 -35t-34.5 -15h-1128q-20 0 -34.5 15t-14.5 35v2h1126q20 0 34.5 14.5t14.5 34.5v295h2z" />
    <glyph glyph-name="eacute" unicode="&#xe9;" horiz-adv-x="1425" 
d="M1194 1870q7 -14 2.5 -29.5t-18.5 -21.5l-521 -240q-15 -6 -31.5 -1t-25.5 19l-16 31q6 -2 22 2l520 240q14 6 19 21.5t-2 29.5l-4 6q3 7 8 25zM1413 1485q20 0 34.5 -14.5t14.5 -34.5v-299q0 -20 -14.5 -35t-34.5 -15h-727q-17 0 -29 -11.5t-12 -28.5v-15h-51v66
q0 17 12 29t29 12h727q20 0 34.5 14.5t14.5 34.5v297h2zM686 487q-14 0 -25 -8.5t-14 -21.5h-53v41q0 17 12 29t29 12h582q20 0 34.5 14.5t14.5 34.5v270h2q20 0 34.5 -14.5t14.5 -34.5v-272q0 -20 -14.5 -35t-34.5 -15h-582zM1413 283q20 0 34.5 -15t14.5 -35v-296
q0 -20 -14.5 -35t-34.5 -15h-1128q-20 0 -34.5 15t-14.5 35v2h1126q20 0 34.5 14.5t14.5 34.5v295h2z" />
    <glyph glyph-name="ecircumflex" unicode="&#xea;" horiz-adv-x="1425" 
d="M1274 1827q15 -12 17.5 -33.5t-9.5 -36.5l-115 -141q-12 -17 -33 -20t-38 8l-66 45q7 0 19 4q17 -9 37 -5t30 19l115 141q15 18 8 47zM545 1655l211 137l65 -43q-4 0 -8 -4l-217 -141q-17 -11 -38.5 -8t-33.5 20l-26 33q25 -6 47 6zM1413 1485q20 0 34.5 -14.5
t14.5 -34.5v-299q0 -20 -14.5 -35t-34.5 -15h-727q-17 0 -29 -11.5t-12 -28.5v-15h-51v66q0 17 12 29t29 12h727q20 0 34.5 14.5t14.5 34.5v297h2zM686 487q-14 0 -25 -8.5t-14 -21.5h-53v41q0 17 12 29t29 12h582q20 0 34.5 14.5t14.5 34.5v270h2q20 0 34.5 -14.5
t14.5 -34.5v-272q0 -20 -14.5 -35t-34.5 -15h-582zM1413 283q20 0 34.5 -15t14.5 -35v-296q0 -20 -14.5 -35t-34.5 -15h-1128q-20 0 -34.5 15t-14.5 35v2h1126q20 0 34.5 14.5t14.5 34.5v295h2z" />
    <glyph glyph-name="edieresis" unicode="&#xeb;" horiz-adv-x="1425" 
d="M1253 1921q52 -62 52 -133q0 -83 -57.5 -142t-139.5 -59q-75 0 -133 51h20q23 0 33 2q10 -2 29 -2q82 0 139 59t57 142q0 19 -2 29q2 10 2 33v20zM735 1868v10q9 -77 49 -131q-14 -68 -68 -114t-124 -46q-75 0 -133 51h20q23 0 33 2q10 -2 29 -2q82 0 139 59t57 142
q0 19 -2 29zM1413 1485q20 0 34.5 -14.5t14.5 -34.5v-299q0 -20 -14.5 -35t-34.5 -15h-727q-17 0 -29 -11.5t-12 -28.5v-15h-51v66q0 17 12 29t29 12h727q20 0 34.5 14.5t14.5 34.5v297h2zM686 487q-14 0 -25 -8.5t-14 -21.5h-53v41q0 17 12 29t29 12h582q20 0 34.5 14.5
t14.5 34.5v270h2q20 0 34.5 -14.5t14.5 -34.5v-272q0 -20 -14.5 -35t-34.5 -15h-582zM1413 283q20 0 34.5 -15t14.5 -35v-296q0 -20 -14.5 -35t-34.5 -15h-1128q-20 0 -34.5 15t-14.5 35v2h1126q20 0 34.5 14.5t14.5 34.5v295h2z" />
    <glyph glyph-name="igrave" unicode="&#xec;" horiz-adv-x="655" 
d="M762 1829q17 -12 21.5 -32.5t-5.5 -39.5l-88 -151q-11 -19 -30.5 -25.5t-38.5 2.5l-101 47q1 0 4.5 -1t5.5 -1q1 0 37 6h2q19 -9 39.5 -2.5t30.5 25.5l88 151q12 18 4 41zM596 1485q20 0 34.5 -14.5t14.5 -34.5v-1499q0 -20 -14.5 -35t-34.5 -15h-311q-20 0 -34.5 15
t-14.5 35v2h309q20 0 34.5 14.5t14.5 34.5v1497h2z" />
    <glyph glyph-name="iacute" unicode="&#xed;" horiz-adv-x="655" 
d="M784 1870q7 -14 2.5 -29.5t-18.5 -21.5l-520 -240q-15 -6 -32 -0.5t-26 18.5l-16 31q6 -2 23 2l520 240q14 6 18.5 21.5t-2.5 29.5l-4 6q3 7 8 25zM596 1485q20 0 34.5 -14.5t14.5 -34.5v-1499q0 -20 -14.5 -35t-34.5 -15h-311q-20 0 -34.5 15t-14.5 35v2h309
q20 0 34.5 14.5t14.5 34.5v1497h2z" />
    <glyph glyph-name="icircumflex" unicode="&#xee;" horiz-adv-x="655" 
d="M864 1827q15 -12 17.5 -33.5t-9.5 -36.5l-114 -141q-12 -17 -33.5 -20t-38.5 8l-65 45q6 0 18 4q17 -9 37.5 -5t30.5 19l114 141q15 18 8 47zM135 1655l211 137l66 -43q-5 0 -9 -4l-217 -141q-17 -11 -38 -8t-33 20l-27 33q25 -6 47 6zM596 1485q20 0 34.5 -14.5
t14.5 -34.5v-1499q0 -20 -14.5 -35t-34.5 -15h-311q-20 0 -34.5 15t-14.5 35v2h309q20 0 34.5 14.5t14.5 34.5v1497h2z" />
    <glyph glyph-name="idieresis" unicode="&#xef;" horiz-adv-x="655" 
d="M844 1921q51 -61 51 -133q0 -83 -57.5 -142t-139.5 -59q-75 0 -133 51h21q22 0 32 2q10 -2 29 -2q82 0 139.5 59t57.5 142q0 19 -2 29q2 10 2 33v20zM326 1868v10q9 -77 49 -131q-14 -68 -68.5 -114t-124.5 -46q-75 0 -133 51h21q22 0 32 2q10 -2 29 -2q82 0 139.5 59
t57.5 142q0 19 -2 29zM596 1485q20 0 34.5 -14.5t14.5 -34.5v-1499q0 -20 -14.5 -35t-34.5 -15h-311q-20 0 -34.5 15t-14.5 35v2h309q20 0 34.5 14.5t14.5 34.5v1497h2z" />
    <glyph glyph-name="eth" unicode="&#xf0;" horiz-adv-x="1685" 
d="M655 1047v-25h-51v76q0 17 12 29t29 12h199q79 0 137 -25q32 -11 59 -35q-36 8 -84 8h-260q-17 0 -29 -11.5t-12 -28.5zM1645 1110q98 -183 98 -424q0 -132 -30 -250.5t-92.5 -219t-151 -174t-212 -114.5t-270.5 -41h-692q-20 0 -34.5 15t-14.5 35v2h690q182 0 328 63
t238.5 173t141 253.5t48.5 308.5v62q0 174 -47 311zM696 496q-17 0 -28 -11t-13 -28h-51v49q0 17 12 29t29 12h248q20 0 34.5 14.5t14.5 34.5v252h2q20 0 34.5 -14.5t14.5 -34.5v-254q0 -20 -14.5 -34.5t-34.5 -14.5h-248z" />
    <glyph glyph-name="ntilde" unicode="&#xf1;" horiz-adv-x="1712" 
d="M1335 1980q19 0 33 -15t12 -34q-2 -44 -9 -85t-26 -90t-47 -85t-76.5 -60t-111.5 -24q-90 0 -178 58q40 -7 65 -7q23 0 33 2q8 -2 29 -2q62 0 110.5 24t77 59.5t47.5 84t26 89.5t9 85h6zM776 1710v2q22 -15 55 -33q-4 -4 -4 -20q-2 -14 -11.5 -23.5t-22.5 -9.5h-191
q-19 0 -33 15t-12 34v2h184q13 0 23 9.5t12 23.5zM1653 1485q20 0 34.5 -14.5t14.5 -34.5v-1499q0 -20 -14.5 -35t-34.5 -15h-248q-52 0 -80 39l-10 13h287q20 0 34.5 14.5t14.5 34.5v1497h2zM592 -12v727l51 -66v-712q0 -20 -14.5 -35t-34.5 -15h-309q-20 0 -34.5 15
t-14.5 35v2h307q20 0 34.5 14.5t14.5 34.5z" />
    <glyph glyph-name="ograve" unicode="&#xf2;" horiz-adv-x="1789" 
d="M1333 1829q17 -12 22 -32.5t-5 -39.5l-88 -151q-10 -19 -30.5 -25.5t-39.5 2.5l-100 47q1 0 4.5 -1t5.5 -1q1 0 37 6h2q19 -9 39 -2.5t30 25.5l88 151q12 19 5 41zM1008 1120q-180 0 -307.5 -126.5t-127.5 -307.5q0 -39 11 -92q-54 79 -60 176q10 161 125 274.5
t277 124.5q101 -6 178 -59q-52 10 -96 10zM1765 1059q90 -178 90 -373q0 -168 -67 -321.5t-180.5 -264.5t-270.5 -177t-329 -66q-204 0 -390 94q130 -43 277 -43h61q172 0 329 66t270.5 177t181 264.5t67.5 321.5v62q0 132 -39 260z" />
    <glyph glyph-name="oacute" unicode="&#xf3;" horiz-adv-x="1789" 
d="M1354 1870q7 -14 2 -29.5t-19 -21.5l-520 -240q-15 -6 -31.5 -1t-25.5 19l-17 31q6 -2 23 2l520 240q14 6 19 21.5t-2 29.5l-5 6q6 11 9 25zM1008 1120q-180 0 -307.5 -126.5t-127.5 -307.5q0 -39 11 -92q-54 79 -60 176q10 161 125 274.5t277 124.5q101 -6 178 -59
q-52 10 -96 10zM1765 1059q90 -178 90 -373q0 -168 -67 -321.5t-180.5 -264.5t-270.5 -177t-329 -66q-204 0 -390 94q130 -43 277 -43h61q172 0 329 66t270.5 177t181 264.5t67.5 321.5v62q0 132 -39 260z" />
    <glyph glyph-name="ocircumflex" unicode="&#xf4;" horiz-adv-x="1789" 
d="M1434 1827q15 -12 17.5 -33.5t-9.5 -36.5l-115 -141q-12 -17 -33.5 -20t-38.5 8l-65 45q6 0 18 4q17 -9 37.5 -5t30.5 19l115 141q15 18 8 47zM705 1655l210 137l66 -43q-4 0 -8 -4l-217 -141q-17 -11 -38.5 -8t-33.5 20l-27 33q26 -7 48 6zM1008 1120
q-180 0 -307.5 -126.5t-127.5 -307.5q0 -39 11 -92q-54 79 -60 176q10 161 125 274.5t277 124.5q101 -6 178 -59q-52 10 -96 10zM1765 1059q90 -178 90 -373q0 -168 -67 -321.5t-180.5 -264.5t-270.5 -177t-329 -66q-204 0 -390 94q130 -43 277 -43h61q172 0 329 66
t270.5 177t181 264.5t67.5 321.5v62q0 132 -39 260z" />
    <glyph glyph-name="otilde" unicode="&#xf5;" horiz-adv-x="1789" 
d="M1376 1980q19 0 33 -15t12 -34q-2 -44 -9 -85t-26 -90t-47 -85t-76.5 -60t-111.5 -24q-90 0 -178 58q40 -7 65 -7q23 0 33 2q8 -2 29 -2q62 0 110.5 24t77 59.5t47.5 84t26 89.5t9 85h6zM817 1710v2q22 -15 55 -33q-4 -4 -4 -20q-2 -14 -11.5 -23.5t-22.5 -9.5h-191
q-19 0 -33 15t-12 34v2h184q13 0 23 9.5t12 23.5zM1008 1120q-180 0 -307.5 -126.5t-127.5 -307.5q0 -39 11 -92q-54 79 -60 176q10 161 125 274.5t277 124.5q101 -6 178 -59q-52 10 -96 10zM1765 1059q90 -178 90 -373q0 -168 -67 -321.5t-180.5 -264.5t-270.5 -177
t-329 -66q-204 0 -390 94q130 -43 277 -43h61q172 0 329 66t270.5 177t181 264.5t67.5 321.5v62q0 132 -39 260z" />
    <glyph glyph-name="odieresis" unicode="&#xf6;" horiz-adv-x="1789" 
d="M1413 1921q51 -61 51 -133q0 -83 -57 -142t-139 -59q-75 0 -133 51h20q23 0 33 2q10 -2 29 -2q82 0 139 59t57 142q0 19 -2 29q2 10 2 33v20zM895 1868v10q9 -77 49 -131q-14 -68 -68 -114t-124 -46q-76 0 -134 51h21q23 0 33 2q10 -2 28 -2q82 0 139.5 59t57.5 142
q0 19 -2 29zM1008 1120q-180 0 -307.5 -126.5t-127.5 -307.5q0 -39 11 -92q-54 79 -60 176q10 161 125 274.5t277 124.5q101 -6 178 -59q-52 10 -96 10zM1765 1059q90 -178 90 -373q0 -168 -67 -321.5t-180.5 -264.5t-270.5 -177t-329 -66q-204 0 -390 94q130 -43 277 -43
h61q172 0 329 66t270.5 177t181 264.5t67.5 321.5v62q0 132 -39 260z" />
    <glyph glyph-name="divide" unicode="&#xf7;" horiz-adv-x="1112" 
d="M891 995h-88q71 74 71 179q0 18 -2 28q2 10 2 33q0 17 -4 45q56 -69 56 -158q0 -71 -35 -127zM1096 821q20 0 34.5 -14.5t14.5 -34.5v-272q0 -20 -14.5 -34.5t-34.5 -14.5h-283q-15 18 -33 36q-2 2 -7 7.5t-7 7.5h278q20 0 35 14.5t15 34.5v270h2zM193 500v2h151
q-2 -2 -7 -7.5t-7 -7.5q-18 -18 -33 -36h-55q-20 0 -34.5 14.5t-14.5 34.5zM874 262q0 17 -4 45q56 -69 56 -157q0 -106 -76 -182.5t-182 -76.5q-89 0 -158 56q28 -4 45 -4q23 0 33 2q10 -2 28 -2q106 0 182 76t76 182q0 18 -2 28q2 10 2 33z" />
    <glyph glyph-name="oslash" unicode="&#xf8;" horiz-adv-x="1787" 
d="M1792 1446l-135 -168q-5 10 -12.5 20.5t-16.5 22t-14 18.5l117 146h43q15 0 21 -13.5t-3 -25.5zM573 713l-30 -39q-16 51 -19 94q11 163 124 277t276 124q10 0 16 -2l-51 -63q-132 -37 -219.5 -144t-96.5 -247zM1765 1055q90 -175 90 -369q0 -168 -67.5 -321.5
t-181 -264.5t-270.5 -177t-328 -66q-196 0 -373 86q-37 16 -64 -15l-4 -6q-31 -35 -73 -35h-252q-15 0 -21.5 13.5t2.5 25.5l10 13h209q43 0 74 34l4 7l6 6q180 -78 369 -78h61q171 0 328 66t271 177t181.5 264.5t67.5 321.5v62q0 128 -39 256zM895 426h-16l376 467
q13 -47 13 -94v-4l-289 -361q-54 -8 -84 -8z" />
    <glyph glyph-name="ugrave" unicode="&#xf9;" 
d="M1272 1829q17 -12 21.5 -32.5t-5.5 -39.5l-88 -151q-10 -19 -30.5 -25.5t-39.5 2.5l-100 47q1 0 4.5 -1t5.5 -1q1 0 37 6h2q19 -9 39.5 -2.5t30.5 25.5l88 151q12 18 4 41zM631 506q-23 30 -37 67q-23 67 -23 150v762h2q20 0 35 -14.5t15 -34.5v-826q0 -63 8 -104z
M1632 1485q20 0 34.5 -14.5t14.5 -34.5v-850q0 -155 -48.5 -287.5t-139.5 -231t-231.5 -154.5t-315.5 -56q-222 0 -389 90q121 -39 277 -39h61q175 0 315.5 56t231.5 154.5t139.5 231t48.5 287.5v848h2z" />
    <glyph glyph-name="uacute" unicode="&#xfa;" 
d="M1292 1870q7 -14 2.5 -29.5t-18.5 -21.5l-520 -240q-15 -6 -32 -0.5t-26 18.5l-16 31q6 -2 23 2l520 240q14 6 18.5 21.5t-2.5 29.5l-4 6q3 7 8 25zM631 506q-23 30 -37 67q-23 67 -23 150v762h2q20 0 35 -14.5t15 -34.5v-826q0 -63 8 -104zM1632 1485q20 0 34.5 -14.5
t14.5 -34.5v-850q0 -155 -48.5 -287.5t-139.5 -231t-231.5 -154.5t-315.5 -56q-222 0 -389 90q121 -39 277 -39h61q175 0 315.5 56t231.5 154.5t139.5 231t48.5 287.5v848h2z" />
    <glyph glyph-name="ucircumflex" unicode="&#xfb;" 
d="M1372 1827q15 -12 17.5 -33.5t-9.5 -36.5l-114 -141q-12 -17 -33.5 -20t-38.5 8l-66 45q7 0 19 4q17 -9 37 -5t30 19l115 141q15 18 8 47zM643 1655l211 137l66 -43q-5 0 -9 -4l-217 -141q-17 -11 -38 -8t-33 20l-27 33q25 -6 47 6zM631 506q-23 30 -37 67
q-23 67 -23 150v762h2q20 0 35 -14.5t15 -34.5v-826q0 -63 8 -104zM1632 1485q20 0 34.5 -14.5t14.5 -34.5v-850q0 -155 -48.5 -287.5t-139.5 -231t-231.5 -154.5t-315.5 -56q-222 0 -389 90q121 -39 277 -39h61q175 0 315.5 56t231.5 154.5t139.5 231t48.5 287.5v848h2z
" />
    <glyph glyph-name="udieresis" unicode="&#xfc;" 
d="M1352 1921q51 -61 51 -133q0 -83 -57.5 -142t-139.5 -59q-75 0 -133 51h21q22 0 32 2q10 -2 29 -2q82 0 139.5 59t57.5 142q0 19 -2 29q2 10 2 33v20zM834 1868v10q9 -77 49 -131q-14 -68 -68.5 -114t-124.5 -46q-75 0 -133 51h21q22 0 32 2q10 -2 29 -2q82 0 139.5 59
t57.5 142q0 19 -2 29zM631 506q-23 30 -37 67q-23 67 -23 150v762h2q20 0 35 -14.5t15 -34.5v-826q0 -63 8 -104zM1632 1485q20 0 34.5 -14.5t14.5 -34.5v-850q0 -155 -48.5 -287.5t-139.5 -231t-231.5 -154.5t-315.5 -56q-222 0 -389 90q121 -39 277 -39h61q175 0 315.5 56
t231.5 154.5t139.5 231t48.5 287.5v848h2z" />
    <glyph glyph-name="yacute" unicode="&#xfd;" horiz-adv-x="1671" 
d="M1294 1870q7 -14 2.5 -29.5t-18.5 -21.5l-520 -240q-15 -6 -32 -0.5t-26 18.5l-16 31q6 -2 23 2l520 240q14 6 18.5 21.5t-2.5 29.5l-4 6q3 7 8 25zM1735 1485q17 0 24 -13.5t-2 -27.5l-583 -936q-23 -33 -23 -76v-495q0 -20 -14.5 -35t-34.5 -15h-309q-20 0 -35 15
t-15 35v2h308q20 0 34.5 14.5t14.5 34.5v495q0 45 22 76l578 926h35z" />
    <glyph glyph-name="thorn" unicode="&#xfe;" horiz-adv-x="1507" 
d="M1487 1012q80 -145 80 -324q0 -129 -39 -240t-114.5 -197t-197.5 -135.5t-276 -49.5h-254q-17 0 -29 -12t-12 -29v-88q0 -20 -14.5 -35t-34.5 -15h-311q-20 0 -34.5 15t-14.5 35v2h309q20 0 34.5 14.5t14.5 34.5v88q0 17 12 29t29 12h254q154 0 276 49.5t197.5 135.5
t114.5 197t39 240v62q0 101 -29 211zM645 887v-275h-51v326q0 17 12 29t29 12h170q46 0 86 -14q24 -12 39 -27l10 -10h-254q-17 0 -29 -12t-12 -29z" />
    <glyph glyph-name="ydieresis" unicode="&#xff;" horiz-adv-x="1671" 
d="M1352 1921q51 -61 51 -133q0 -83 -57.5 -142t-139.5 -59q-75 0 -133 51h21q22 0 32 2q10 -2 29 -2q82 0 139.5 59t57.5 142q0 19 -2 29q2 10 2 33v20zM834 1868v10q9 -77 49 -131q-14 -68 -68.5 -114t-124.5 -46q-75 0 -133 51h21q22 0 32 2q10 -2 29 -2q82 0 139.5 59
t57.5 142q0 19 -2 29zM1735 1485q17 0 24 -13.5t-2 -27.5l-583 -936q-23 -33 -23 -76v-495q0 -20 -14.5 -35t-34.5 -15h-309q-20 0 -35 15t-15 35v2h308q20 0 34.5 14.5t14.5 34.5v495q0 45 22 76l578 926h35z" />
    <glyph glyph-name="Amacron" unicode="&#x100;" horiz-adv-x="1697" 
d="M1280 1890q20 0 34.5 -14.5t14.5 -34.5v-205q0 -20 -14.5 -34.5t-34.5 -14.5h-635q-20 0 -34.5 14.5t-14.5 34.5v2h633q20 0 34.5 15t14.5 35v202h2zM895 778l-43 -112h-72l78 206zM637 172h483l21 -51h-453q-41 0 -55 -39l-58 -150q-7 -20 -25 -32.5t-40 -12.5h-348
q-18 0 -27.5 15t-3.5 30l2 7h326q22 0 40 12.5t25 32.5l58 149q14 39 55 39zM1792 -68q6 -15 -3.5 -30t-27.5 -15h-348q-22 0 -39.5 12.5t-25.5 32.5l-2 7h364q18 0 27.5 15t3.5 30l-4 12q6 18 6 37q0 20 -6 35z" />
    <glyph glyph-name="amacron" unicode="&#x101;" horiz-adv-x="1697" 
d="M1280 1890q20 0 34.5 -14.5t14.5 -34.5v-205q0 -20 -14.5 -34.5t-34.5 -14.5h-635q-20 0 -34.5 14.5t-14.5 34.5v2h633q20 0 34.5 15t14.5 35v202h2zM895 778l-43 -112h-72l78 206zM637 172h483l21 -51h-453q-41 0 -55 -39l-58 -150q-7 -20 -25 -32.5t-40 -12.5h-348
q-18 0 -27.5 15t-3.5 30l2 7h326q22 0 40 12.5t25 32.5l58 149q14 39 55 39zM1792 -68q6 -15 -3.5 -30t-27.5 -15h-348q-22 0 -39.5 12.5t-25.5 32.5l-2 7h364q18 0 27.5 15t3.5 30l-4 12q6 18 6 37q0 20 -6 35z" />
    <glyph glyph-name="Abreve" unicode="&#x102;" horiz-adv-x="1697" 
d="M1376 1911q17 -10 22.5 -31.5t-3.5 -36.5q-67 -122 -176.5 -194t-255.5 -72q-137 0 -248 68q73 -17 135 -17h61q146 0 255.5 72t176.5 194q9 11 5 33zM895 778l-43 -112h-72l78 206zM637 172h483l21 -51h-453q-41 0 -55 -39l-58 -150q-7 -20 -25 -32.5t-40 -12.5h-348
q-18 0 -27.5 15t-3.5 30l2 7h326q22 0 40 12.5t25 32.5l58 149q14 39 55 39zM1792 -68q6 -15 -3.5 -30t-27.5 -15h-348q-22 0 -39.5 12.5t-25.5 32.5l-2 7h364q18 0 27.5 15t3.5 30l-4 12q6 18 6 37q0 20 -6 35z" />
    <glyph glyph-name="abreve" unicode="&#x103;" horiz-adv-x="1697" 
d="M1376 1911q17 -10 22.5 -31.5t-3.5 -36.5q-67 -122 -176.5 -194t-255.5 -72q-137 0 -248 68q73 -17 135 -17h61q146 0 255.5 72t176.5 194q9 11 5 33zM895 778l-43 -112h-72l78 206zM637 172h483l21 -51h-453q-41 0 -55 -39l-58 -150q-7 -20 -25 -32.5t-40 -12.5h-348
q-18 0 -27.5 15t-3.5 30l2 7h326q22 0 40 12.5t25 32.5l58 149q14 39 55 39zM1792 -68q6 -15 -3.5 -30t-27.5 -15h-348q-22 0 -39.5 12.5t-25.5 32.5l-2 7h364q18 0 27.5 15t3.5 30l-4 12q6 18 6 37q0 20 -6 35z" />
    <glyph glyph-name="Aogonek" unicode="&#x104;" horiz-adv-x="1695" 
d="M893 778l-43 -112h-72l78 206zM635 172h483l21 -51h-453q-41 0 -55 -39l-58 -150q-7 -20 -25 -32.5t-40 -12.5h-348q-18 0 -27.5 15t-3.5 30l2 7h326q22 0 40 12.5t25 32.5l58 149q14 39 55 39zM1733 70l55 -136q8 -20 1 -39.5t-26 -29.5q-66 -35 -102 -74q-5 5 -27 16
q-16 7 -45 11q35 53 123 98q19 10 26 30t-1 40l-2 4q6 18 6 37q0 24 -8 43zM1755 -410l31 -188q3 -19 -9.5 -34t-31.5 -17q-168 -9 -272 63q59 -12 126 -12h31q30 -3 64 0q19 2 31.5 17t9.5 34l-4 25q4 20 4 30v17l-21 117q35 -8 41 -52z" />
    <glyph glyph-name="aogonek" unicode="&#x105;" horiz-adv-x="1695" 
d="M893 778l-43 -112h-72l78 206zM635 172h483l21 -51h-453q-41 0 -55 -39l-58 -150q-7 -20 -25 -32.5t-40 -12.5h-348q-18 0 -27.5 15t-3.5 30l2 7h326q22 0 40 12.5t25 32.5l58 149q14 39 55 39zM1733 70l55 -136q8 -20 1 -39.5t-26 -29.5q-66 -35 -102 -74q-5 5 -27 16
q-16 7 -45 11q35 53 123 98q19 10 26 30t-1 40l-2 4q6 18 6 37q0 24 -8 43zM1755 -410l31 -188q3 -19 -9.5 -34t-31.5 -17q-168 -9 -272 63q59 -12 126 -12h31q30 -3 64 0q19 2 31.5 17t9.5 34l-4 25q4 20 4 30v17l-21 117q35 -8 41 -52z" />
    <glyph glyph-name="Cacute" unicode="&#x106;" horiz-adv-x="1673" 
d="M1354 1870q7 -14 2 -29.5t-19 -21.5l-520 -240q-15 -6 -31.5 -1t-25.5 19l-17 31q6 -2 23 2l520 240q14 6 19 21.5t-2 29.5l-5 6q6 11 9 25zM1438 915q-20 -11 -40 -5t-32 26q-1 1 -8 11t-12 16q22 -6 40 4l283 125q17 7 22.5 27.5t-3.5 35.5v2q1 3 2 8.5t2 8.5
q40 -57 47 -70q9 -15 3.5 -36t-22.5 -28zM1008 1120q-180 0 -307.5 -126.5t-127.5 -307.5q0 -39 11 -92q-54 79 -60 176q10 161 125 274.5t275 124.5q80 -6 149 -41q25 -15 29 -18q-52 10 -94 10zM1722 334q17 -6 23.5 -26.5t-4.5 -35.5q-110 -190 -306 -302.5t-427 -112.5
q-204 0 -390 94q130 -43 277 -43h61q231 0 427.5 113t306.5 303q6 9 6 22z" />
    <glyph glyph-name="cacute" unicode="&#x107;" horiz-adv-x="1673" 
d="M1354 1870q7 -14 2 -29.5t-19 -21.5l-520 -240q-15 -6 -31.5 -1t-25.5 19l-17 31q6 -2 23 2l520 240q14 6 19 21.5t-2 29.5l-5 6q6 11 9 25zM1438 915q-20 -11 -40 -5t-32 26q-1 1 -8 11t-12 16q22 -6 40 4l283 125q17 7 22.5 27.5t-3.5 35.5v2q1 3 2 8.5t2 8.5
q40 -57 47 -70q9 -15 3.5 -36t-22.5 -28zM1008 1120q-180 0 -307.5 -126.5t-127.5 -307.5q0 -39 11 -92q-54 79 -60 176q10 161 125 274.5t275 124.5q80 -6 149 -41q25 -15 29 -18q-52 10 -94 10zM1722 334q17 -6 23.5 -26.5t-4.5 -35.5q-110 -190 -306 -302.5t-427 -112.5
q-204 0 -390 94q130 -43 277 -43h61q231 0 427.5 113t306.5 303q6 9 6 22z" />
    <glyph glyph-name="Cdotaccent" unicode="&#x10a;" horiz-adv-x="1673" 
d="M1159 1901q51 -61 51 -134q0 -83 -57 -141.5t-139 -58.5q-75 0 -133 51h20q23 0 33 2q10 -2 29 -2q82 0 139 59t57 142q0 18 -2 28q2 10 2 33v21zM1438 915q-20 -11 -40 -5t-32 26q-1 1 -8 11t-12 16q22 -6 40 4l283 125q17 7 22.5 27.5t-3.5 35.5v2q1 3 2 8.5t2 8.5
q40 -57 47 -70q9 -15 3.5 -36t-22.5 -28zM1008 1120q-180 0 -307.5 -126.5t-127.5 -307.5q0 -39 11 -92q-54 79 -60 176q10 161 125 274.5t275 124.5q80 -6 149 -41q25 -15 29 -18q-52 10 -94 10zM1722 334q17 -6 23.5 -26.5t-4.5 -35.5q-110 -190 -306 -302.5t-427 -112.5
q-204 0 -390 94q130 -43 277 -43h61q231 0 427.5 113t306.5 303q6 9 6 22z" />
    <glyph glyph-name="cdotaccent" unicode="&#x10b;" horiz-adv-x="1673" 
d="M1159 1901q51 -61 51 -134q0 -83 -57 -141.5t-139 -58.5q-75 0 -133 51h20q23 0 33 2q10 -2 29 -2q82 0 139 59t57 142q0 18 -2 28q2 10 2 33v21zM1438 915q-20 -11 -40 -5t-32 26q-1 1 -8 11t-12 16q22 -6 40 4l283 125q17 7 22.5 27.5t-3.5 35.5v2q1 3 2 8.5t2 8.5
q40 -57 47 -70q9 -15 3.5 -36t-22.5 -28zM1008 1120q-180 0 -307.5 -126.5t-127.5 -307.5q0 -39 11 -92q-54 79 -60 176q10 161 125 274.5t275 124.5q80 -6 149 -41q25 -15 29 -18q-52 10 -94 10zM1722 334q17 -6 23.5 -26.5t-4.5 -35.5q-110 -190 -306 -302.5t-427 -112.5
q-204 0 -390 94q130 -43 277 -43h61q231 0 427.5 113t306.5 303q6 9 6 22z" />
    <glyph glyph-name="Ccaron" unicode="&#x10c;" horiz-adv-x="1673" 
d="M1444 1976q11 -13 9 -30.5t-15 -26.5l-400 -317q-14 -10 -33 -10t-32 10l-55 43q4 0 12 4q30 -16 57 4l399 317q13 9 15.5 25.5t-6.5 29.5q1 1 2 4t2 5zM1438 915q-20 -11 -40 -5t-32 26q-1 1 -8 11t-12 16q22 -6 40 4l283 125q17 7 22.5 27.5t-3.5 35.5v2q1 3 2 8.5
t2 8.5q40 -57 47 -70q9 -15 3.5 -36t-22.5 -28zM1008 1120q-180 0 -307.5 -126.5t-127.5 -307.5q0 -39 11 -92q-54 79 -60 176q10 161 125 274.5t275 124.5q80 -6 149 -41q25 -15 29 -18q-52 10 -94 10zM1722 334q17 -6 23.5 -26.5t-4.5 -35.5q-110 -190 -306 -302.5
t-427 -112.5q-204 0 -390 94q130 -43 277 -43h61q231 0 427.5 113t306.5 303q6 9 6 22z" />
    <glyph glyph-name="ccaron" unicode="&#x10d;" horiz-adv-x="1673" 
d="M1446 1976q11 -13 9 -30.5t-15 -26.5l-400 -317q-14 -10 -32.5 -10t-32.5 10l-55 43q4 0 12 4q30 -16 57 4l400 317q13 9 15 25.5t-7 29.5q1 1 2 4t2 5zM1438 915q-20 -11 -40 -5t-32 26q-1 1 -8 11t-12 16q22 -6 40 4l283 125q17 7 22.5 27.5t-3.5 35.5v2q1 3 2 8.5
t2 8.5q40 -57 47 -70q9 -15 3.5 -36t-22.5 -28zM1008 1120q-180 0 -307.5 -126.5t-127.5 -307.5q0 -39 11 -92q-54 79 -60 176q10 161 125 274.5t275 124.5q80 -6 149 -41q25 -15 29 -18q-52 10 -94 10zM1722 334q17 -6 23.5 -26.5t-4.5 -35.5q-110 -190 -306 -302.5
t-427 -112.5q-204 0 -390 94q130 -43 277 -43h61q231 0 427.5 113t306.5 303q6 9 6 22z" />
    <glyph glyph-name="Dcaron" unicode="&#x10e;" horiz-adv-x="1675" 
d="M1421 1976q11 -13 9 -30.5t-15 -26.5l-399 -317q-13 -10 -33 -10t-33 10l-55 43q4 0 12 4q30 -17 58 4l399 317q13 9 15 25.5t-7 29.5q1 1 2 4t2 5zM645 1047v-590h-51v641q0 17 12 29t29 12h199q79 0 137 -25q32 -11 59 -35q-36 8 -84 8h-260q-17 0 -29 -11.5t-12 -28.5
zM1634 1110q99 -185 99 -424q0 -132 -30 -250.5t-92.5 -219t-151 -174t-212 -114.5t-270.5 -41h-692q-20 0 -34.5 15t-14.5 35v2h690q147 0 270.5 41t212 114t150.5 173.5t92 219t30 250.5v62q0 174 -47 311z" />
    <glyph glyph-name="dcaron" unicode="&#x10f;" horiz-adv-x="1675" 
d="M1421 1976q11 -13 9 -30.5t-15 -26.5l-399 -317q-13 -10 -33 -10t-33 10l-55 43q4 0 12 4q30 -17 58 4l399 317q13 9 15 25.5t-7 29.5q1 1 2 4t2 5zM645 1047v-590h-51v641q0 17 12 29t29 12h199q79 0 137 -25q32 -11 59 -35q-36 8 -84 8h-260q-17 0 -29 -11.5t-12 -28.5
zM1634 1110q99 -185 99 -424q0 -132 -30 -250.5t-92.5 -219t-151 -174t-212 -114.5t-270.5 -41h-692q-20 0 -34.5 15t-14.5 35v2h690q147 0 270.5 41t212 114t150.5 173.5t92 219t30 250.5v62q0 174 -47 311z" />
    <glyph glyph-name="Dcroat" unicode="&#x110;" horiz-adv-x="1685" 
d="M655 1047v-25h-51v76q0 17 12 29t29 12h199q79 0 137 -25q32 -11 59 -35q-36 8 -84 8h-260q-17 0 -29 -11.5t-12 -28.5zM1645 1110q98 -183 98 -424q0 -132 -30 -250.5t-92.5 -219t-151 -174t-212 -114.5t-270.5 -41h-692q-20 0 -34.5 15t-14.5 35v2h690q182 0 328 63
t238.5 173t141 253.5t48.5 308.5v62q0 174 -47 311zM696 496q-17 0 -28 -11t-13 -28h-51v49q0 17 12 29t29 12h248q20 0 34.5 14.5t14.5 34.5v252h2q20 0 34.5 -14.5t14.5 -34.5v-254q0 -20 -14.5 -34.5t-34.5 -14.5h-248z" />
    <glyph glyph-name="dcroat" unicode="&#x111;" horiz-adv-x="1685" 
d="M655 1047v-25h-51v76q0 17 12 29t29 12h199q79 0 137 -25q32 -11 59 -35q-36 8 -84 8h-260q-17 0 -29 -11.5t-12 -28.5zM1645 1110q98 -183 98 -424q0 -132 -30 -250.5t-92.5 -219t-151 -174t-212 -114.5t-270.5 -41h-692q-20 0 -34.5 15t-14.5 35v2h690q182 0 328 63
t238.5 173t141 253.5t48.5 308.5v62q0 174 -47 311zM696 496q-17 0 -28 -11t-13 -28h-51v49q0 17 12 29t29 12h248q20 0 34.5 14.5t14.5 34.5v252h2q20 0 34.5 -14.5t14.5 -34.5v-254q0 -20 -14.5 -34.5t-34.5 -14.5h-248z" />
    <glyph glyph-name="Emacron" unicode="&#x112;" horiz-adv-x="1425" 
d="M1167 1890q20 0 35 -14.5t15 -34.5v-205q0 -20 -15 -34.5t-35 -14.5h-635q-20 0 -34.5 14.5t-14.5 34.5v2h633q20 0 34.5 15t14.5 35v202h2zM1413 1485q20 0 34.5 -14.5t14.5 -34.5v-299q0 -20 -14.5 -35t-34.5 -15h-727q-17 0 -29 -11.5t-12 -28.5v-15h-51v66
q0 17 12 29t29 12h727q20 0 34.5 14.5t14.5 34.5v297h2zM686 487q-14 0 -25 -8.5t-14 -21.5h-53v41q0 17 12 29t29 12h582q20 0 34.5 14.5t14.5 34.5v270h2q20 0 34.5 -14.5t14.5 -34.5v-272q0 -20 -14.5 -35t-34.5 -15h-582zM1413 283q20 0 34.5 -15t14.5 -35v-296
q0 -20 -14.5 -35t-34.5 -15h-1128q-20 0 -34.5 15t-14.5 35v2h1126q20 0 34.5 14.5t14.5 34.5v295h2z" />
    <glyph glyph-name="emacron" unicode="&#x113;" horiz-adv-x="1425" 
d="M1167 1890q20 0 35 -14.5t15 -34.5v-205q0 -20 -15 -34.5t-35 -14.5h-635q-20 0 -34.5 14.5t-14.5 34.5v2h633q20 0 34.5 15t14.5 35v202h2zM1413 1485q20 0 34.5 -14.5t14.5 -34.5v-299q0 -20 -14.5 -35t-34.5 -15h-727q-17 0 -29 -11.5t-12 -28.5v-15h-51v66
q0 17 12 29t29 12h727q20 0 34.5 14.5t14.5 34.5v297h2zM686 487q-14 0 -25 -8.5t-14 -21.5h-53v41q0 17 12 29t29 12h582q20 0 34.5 14.5t14.5 34.5v270h2q20 0 34.5 -14.5t14.5 -34.5v-272q0 -20 -14.5 -35t-34.5 -15h-582zM1413 283q20 0 34.5 -15t14.5 -35v-296
q0 -20 -14.5 -35t-34.5 -15h-1128q-20 0 -34.5 15t-14.5 35v2h1126q20 0 34.5 14.5t14.5 34.5v295h2z" />
    <glyph glyph-name="Edotaccent" unicode="&#x116;" horiz-adv-x="1425" 
d="M995 1901q52 -62 52 -134q0 -83 -57.5 -141.5t-139.5 -58.5q-75 0 -133 51h20q23 0 33 2q10 -2 29 -2q82 0 139 59t57 142q0 18 -2 28q2 10 2 33v21zM1413 1485q20 0 34.5 -14.5t14.5 -34.5v-299q0 -20 -14.5 -35t-34.5 -15h-727q-17 0 -29 -11.5t-12 -28.5v-15h-51v66
q0 17 12 29t29 12h727q20 0 34.5 14.5t14.5 34.5v297h2zM686 487q-14 0 -25 -8.5t-14 -21.5h-53v41q0 17 12 29t29 12h582q20 0 34.5 14.5t14.5 34.5v270h2q20 0 34.5 -14.5t14.5 -34.5v-272q0 -20 -14.5 -35t-34.5 -15h-582zM1413 283q20 0 34.5 -15t14.5 -35v-296
q0 -20 -14.5 -35t-34.5 -15h-1128q-20 0 -34.5 15t-14.5 35v2h1126q20 0 34.5 14.5t14.5 34.5v295h2z" />
    <glyph glyph-name="edotaccent" unicode="&#x117;" horiz-adv-x="1425" 
d="M995 1901q52 -62 52 -134q0 -83 -57.5 -141.5t-139.5 -58.5q-75 0 -133 51h20q23 0 33 2q10 -2 29 -2q82 0 139 59t57 142q0 18 -2 28q2 10 2 33v21zM1413 1485q20 0 34.5 -14.5t14.5 -34.5v-299q0 -20 -14.5 -35t-34.5 -15h-727q-17 0 -29 -11.5t-12 -28.5v-15h-51v66
q0 17 12 29t29 12h727q20 0 34.5 14.5t14.5 34.5v297h2zM686 487q-14 0 -25 -8.5t-14 -21.5h-53v41q0 17 12 29t29 12h582q20 0 34.5 14.5t14.5 34.5v270h2q20 0 34.5 -14.5t14.5 -34.5v-272q0 -20 -14.5 -35t-34.5 -15h-582zM1413 283q20 0 34.5 -15t14.5 -35v-296
q0 -20 -14.5 -35t-34.5 -15h-1128q-20 0 -34.5 15t-14.5 35v2h1126q20 0 34.5 14.5t14.5 34.5v295h2z" />
    <glyph glyph-name="Eogonek" unicode="&#x118;" horiz-adv-x="1425" 
d="M1413 1485q20 0 34.5 -14.5t14.5 -34.5v-299q0 -20 -14.5 -35t-34.5 -15h-727q-17 0 -29 -11.5t-12 -28.5v-15h-51v66q0 17 12 29t29 12h727q20 0 34.5 14.5t14.5 34.5v297h2zM686 487q-14 0 -25 -8.5t-14 -21.5h-53v41q0 17 12 29t29 12h582q20 0 34.5 14.5t14.5 34.5
v270h2q20 0 34.5 -14.5t14.5 -34.5v-272q0 -20 -14.5 -35t-34.5 -15h-582zM1413 283q20 0 34.5 -15t14.5 -35v-294q0 -49 -45 -74q-60 -32 -100 -72q-2 2 -27 14q-16 7 -45 11q36 55 121 98q45 25 45 74v293h2zM236 -63v2h663q-7 -8 -20 -35q-1 -3 -4.5 -8.5t-4.5 -8.5h-585
q-20 0 -34.5 15t-14.5 35zM1411 -410l31 -188q3 -19 -9.5 -34t-31.5 -17q-169 -9 -273 63q58 -12 127 -12h31q30 -3 64 0q19 2 31.5 17t9.5 34l-5 25q5 25 5 30v17l-21 117q35 -8 41 -52z" />
    <glyph glyph-name="eogonek" unicode="&#x119;" horiz-adv-x="1425" 
d="M1413 1485q20 0 34.5 -14.5t14.5 -34.5v-299q0 -20 -14.5 -35t-34.5 -15h-727q-17 0 -29 -11.5t-12 -28.5v-15h-51v66q0 17 12 29t29 12h727q20 0 34.5 14.5t14.5 34.5v297h2zM686 487q-14 0 -25 -8.5t-14 -21.5h-53v41q0 17 12 29t29 12h582q20 0 34.5 14.5t14.5 34.5
v270h2q20 0 34.5 -14.5t14.5 -34.5v-272q0 -20 -14.5 -35t-34.5 -15h-582zM1413 283q20 0 34.5 -15t14.5 -35v-294q0 -49 -45 -74q-60 -32 -100 -72q-2 2 -27 14q-16 7 -45 11q36 55 121 98q45 25 45 74v293h2zM236 -63v2h663q-7 -8 -20 -35q-1 -3 -4.5 -8.5t-4.5 -8.5h-585
q-20 0 -34.5 15t-14.5 35zM1411 -410l31 -188q3 -19 -9.5 -34t-31.5 -17q-169 -9 -273 63q58 -12 127 -12h31q30 -3 64 0q19 2 31.5 17t9.5 34l-5 25q5 25 5 30v17l-21 117q35 -8 41 -52z" />
    <glyph glyph-name="Ecaron" unicode="&#x11a;" horiz-adv-x="1425" 
d="M1288 1976q11 -13 9 -30.5t-15 -26.5l-399 -317q-13 -10 -33 -10t-33 10l-55 43q4 0 12 4q30 -16 57 4l400 317q13 9 15 25.5t-7 29.5q1 1 2 4t2 5zM1413 1485q20 0 34.5 -14.5t14.5 -34.5v-299q0 -20 -14.5 -35t-34.5 -15h-727q-17 0 -29 -11.5t-12 -28.5v-15h-51v66
q0 17 12 29t29 12h727q20 0 34.5 14.5t14.5 34.5v297h2zM686 487q-14 0 -25 -8.5t-14 -21.5h-53v41q0 17 12 29t29 12h582q20 0 34.5 14.5t14.5 34.5v270h2q20 0 34.5 -14.5t14.5 -34.5v-272q0 -20 -14.5 -35t-34.5 -15h-582zM1413 283q20 0 34.5 -15t14.5 -35v-296
q0 -20 -14.5 -35t-34.5 -15h-1128q-20 0 -34.5 15t-14.5 35v2h1126q20 0 34.5 14.5t14.5 34.5v295h2z" />
    <glyph glyph-name="ecaron" unicode="&#x11b;" horiz-adv-x="1425" 
d="M1286 1976q11 -13 9 -30.5t-15 -26.5l-399 -317q-13 -10 -33 -10t-33 10l-55 43q4 0 12 4q30 -16 57 4l400 317q13 9 15 25.5t-7 29.5q1 1 2 4t2 5zM1413 1485q20 0 34.5 -14.5t14.5 -34.5v-299q0 -20 -14.5 -35t-34.5 -15h-727q-17 0 -29 -11.5t-12 -28.5v-15h-51v66
q0 17 12 29t29 12h727q20 0 34.5 14.5t14.5 34.5v297h2zM686 487q-14 0 -25 -8.5t-14 -21.5h-53v41q0 17 12 29t29 12h582q20 0 34.5 14.5t14.5 34.5v270h2q20 0 34.5 -14.5t14.5 -34.5v-272q0 -20 -14.5 -35t-34.5 -15h-582zM1413 283q20 0 34.5 -15t14.5 -35v-296
q0 -20 -14.5 -35t-34.5 -15h-1128q-20 0 -34.5 15t-14.5 35v2h1126q20 0 34.5 14.5t14.5 34.5v295h2z" />
    <glyph glyph-name="Gbreve" unicode="&#x11e;" horiz-adv-x="1703" 
d="M1419 1911q17 -10 22.5 -31.5t-3.5 -36.5q-67 -122 -176.5 -194t-255.5 -72q-137 0 -248 68q73 -17 135 -17h61q146 0 255.5 72t176.5 194q9 11 5 33zM1653 1221q12 -15 9.5 -35t-17.5 -31l-240 -162h-88q-13 13 -41 37q4 0 8 2q28 -15 57 4l252 170q14 9 18 28t-5 34v2
q33 -33 47 -49zM1008 1120q-182 0 -308.5 -126.5t-126.5 -307.5q0 -37 11 -94q-54 79 -60 178q10 161 124.5 274.5t275.5 124.5q96 -6 178 -59q-52 10 -94 10zM1683 819q20 0 35 -14.5t15 -34.5v-833q0 -20 -15 -35t-35 -15h-223q-20 0 -34.5 15t-14.5 35v2h221
q20 0 34.5 14.5t14.5 34.5v831h2zM963 528v2h180q-34 -34 -64 -51h-67q-20 0 -34.5 14.5t-14.5 34.5zM1255 -12q8 -13 15 -17q18 -19 47 -28q-131 -86 -309 -86q-204 0 -390 94q128 -43 277 -43h61q175 0 299 80z" />
    <glyph glyph-name="gbreve" unicode="&#x11f;" horiz-adv-x="1703" 
d="M1419 1911q17 -10 22.5 -31.5t-3.5 -36.5q-67 -122 -176.5 -194t-255.5 -72q-137 0 -248 68q73 -17 135 -17h61q146 0 255.5 72t176.5 194q9 11 5 33zM1653 1221q12 -15 9.5 -35t-17.5 -31l-240 -162h-88q-13 13 -41 37q4 0 8 2q28 -15 57 4l252 170q14 9 18 28t-5 34v2
q33 -33 47 -49zM1008 1120q-182 0 -308.5 -126.5t-126.5 -307.5q0 -37 11 -94q-54 79 -60 178q10 161 124.5 274.5t275.5 124.5q96 -6 178 -59q-52 10 -94 10zM1683 819q20 0 35 -14.5t15 -34.5v-833q0 -20 -15 -35t-35 -15h-223q-20 0 -34.5 15t-14.5 35v2h221
q20 0 34.5 14.5t14.5 34.5v831h2zM963 528v2h180q-34 -34 -64 -51h-67q-20 0 -34.5 14.5t-14.5 34.5zM1255 -12q8 -13 15 -17q18 -19 47 -28q-131 -86 -309 -86q-204 0 -390 94q128 -43 277 -43h61q175 0 299 80z" />
    <glyph glyph-name="Gdotaccent" unicode="&#x120;" horiz-adv-x="1703" 
d="M1155 1901q51 -61 51 -134q0 -83 -57 -141.5t-139 -58.5q-75 0 -133 51h20q23 0 33 2q10 -2 28 -2q82 0 139.5 59t57.5 142q0 18 -2 28q2 10 2 33v21zM1653 1221q12 -15 9.5 -35t-17.5 -31l-240 -162h-88q-13 13 -41 37q4 0 8 2q28 -15 57 4l252 170q14 9 18 28t-5 34v2
q33 -33 47 -49zM1008 1120q-182 0 -308.5 -126.5t-126.5 -307.5q0 -37 11 -94q-54 79 -60 178q10 161 124.5 274.5t275.5 124.5q96 -6 178 -59q-52 10 -94 10zM1683 819q20 0 35 -14.5t15 -34.5v-833q0 -20 -15 -35t-35 -15h-223q-20 0 -34.5 15t-14.5 35v2h221
q20 0 34.5 14.5t14.5 34.5v831h2zM963 528v2h180q-34 -34 -64 -51h-67q-20 0 -34.5 14.5t-14.5 34.5zM1255 -12q8 -13 15 -17q18 -19 47 -28q-131 -86 -309 -86q-204 0 -390 94q128 -43 277 -43h61q175 0 299 80z" />
    <glyph glyph-name="gdotaccent" unicode="&#x121;" horiz-adv-x="1703" 
d="M1155 1901q51 -61 51 -134q0 -83 -57 -141.5t-139 -58.5q-75 0 -133 51h20q23 0 33 2q10 -2 28 -2q82 0 139.5 59t57.5 142q0 18 -2 28q2 10 2 33v21zM1653 1221q12 -15 9.5 -35t-17.5 -31l-240 -162h-88q-13 13 -41 37q4 0 8 2q28 -15 57 4l252 170q14 9 18 28t-5 34v2
q33 -33 47 -49zM1008 1120q-182 0 -308.5 -126.5t-126.5 -307.5q0 -37 11 -94q-54 79 -60 178q10 161 124.5 274.5t275.5 124.5q96 -6 178 -59q-52 10 -94 10zM1683 819q20 0 35 -14.5t15 -34.5v-833q0 -20 -15 -35t-35 -15h-223q-20 0 -34.5 15t-14.5 35v2h221
q20 0 34.5 14.5t14.5 34.5v831h2zM963 528v2h180q-34 -34 -64 -51h-67q-20 0 -34.5 14.5t-14.5 34.5zM1255 -12q8 -13 15 -17q18 -19 47 -28q-131 -86 -309 -86q-204 0 -390 94q128 -43 277 -43h61q175 0 299 80z" />
    <glyph glyph-name="Gcommaaccent" unicode="&#x122;" horiz-adv-x="1703" 
d="M1653 1221q12 -15 9.5 -35t-17.5 -31l-240 -162h-88q-13 13 -41 37q4 0 8 2q28 -15 57 4l252 170q14 9 18 28t-5 34v2q33 -33 47 -49zM1008 1120q-182 0 -308.5 -126.5t-126.5 -307.5q0 -37 11 -94q-54 79 -60 178q10 161 124.5 274.5t275.5 124.5q96 -6 178 -59
q-52 10 -94 10zM1683 819q20 0 35 -14.5t15 -34.5v-833q0 -20 -15 -35t-35 -15h-223q-20 0 -34.5 15t-14.5 35v2h221q20 0 34.5 14.5t14.5 34.5v831h2zM963 528v2h180q-34 -34 -64 -51h-67q-20 0 -34.5 14.5t-14.5 34.5zM1255 -12q8 -13 15 -17q18 -19 47 -28
q-131 -86 -309 -86q-204 0 -390 94q128 -43 277 -43h61q175 0 299 80zM1163 -236q54 -54 54 -143q0 -69 -53.5 -152t-162.5 -192q-13 -13 -34 -13t-35 13l-45 43h4q14 -7 31 -5t28 13q108 108 161.5 191t53.5 153q0 21 -2 31q2 10 2 31q0 20 -2 30z" />
    <glyph glyph-name="gcommaaccent" unicode="&#x123;" horiz-adv-x="1703" 
d="M1653 1221q12 -15 9.5 -35t-17.5 -31l-240 -162h-88q-13 13 -41 37q4 0 8 2q28 -15 57 4l252 170q14 9 18 28t-5 34v2q33 -33 47 -49zM1008 1120q-182 0 -308.5 -126.5t-126.5 -307.5q0 -37 11 -94q-54 79 -60 178q10 161 124.5 274.5t275.5 124.5q96 -6 178 -59
q-52 10 -94 10zM1683 819q20 0 35 -14.5t15 -34.5v-833q0 -20 -15 -35t-35 -15h-223q-20 0 -34.5 15t-14.5 35v2h221q20 0 34.5 14.5t14.5 34.5v831h2zM963 528v2h180q-34 -34 -64 -51h-67q-20 0 -34.5 14.5t-14.5 34.5zM1255 -12q8 -13 15 -17q18 -19 47 -28
q-131 -86 -309 -86q-204 0 -390 94q128 -43 277 -43h61q175 0 299 80zM1163 -236q54 -54 54 -143q0 -69 -53.5 -152t-162.5 -192q-13 -13 -34 -13t-35 13l-45 43h4q14 -7 31 -5t28 13q108 108 161.5 191t53.5 153q0 21 -2 31q2 10 2 31q0 20 -2 30z" />
    <glyph glyph-name="Hbar" unicode="&#x126;" horiz-adv-x="1722" 
d="M1759 1329q19 0 32 -13t13 -32v-213q0 -20 -13 -33.5t-32 -13.5h-10q-17 0 -29 -12t-12 -29v-1046q0 -20 -14.5 -35t-34.5 -15h-311q-20 0 -35 15t-15 35v2h310q20 0 34.5 14.5t14.5 34.5v1046q0 17 12 29t29 12h10q19 0 32 13.5t13 33.5v207h6zM596 1038q1 15 13.5 26
t27.5 11h487v-37h-528zM596 492q0 17 12 28.5t29 11.5h487v-51h-436q-17 0 -29 -12t-12 -29v-503q0 -20 -14.5 -35t-34.5 -15h-309q-20 0 -34.5 15t-14.5 35v2h307q20 0 34.5 14.5t14.5 34.5v504z" />
    <glyph glyph-name="hbar" unicode="&#x127;" horiz-adv-x="1722" 
d="M1759 1329q19 0 32 -13t13 -32v-213q0 -20 -13 -33.5t-32 -13.5h-10q-17 0 -29 -12t-12 -29v-1046q0 -20 -14.5 -35t-34.5 -15h-311q-20 0 -35 15t-15 35v2h310q20 0 34.5 14.5t14.5 34.5v1046q0 17 12 29t29 12h10q19 0 32 13.5t13 33.5v207h6zM596 1038q1 15 13.5 26
t27.5 11h487v-37h-528zM596 492q0 17 12 28.5t29 11.5h487v-51h-436q-17 0 -29 -12t-12 -29v-503q0 -20 -14.5 -35t-34.5 -15h-309q-20 0 -34.5 15t-14.5 35v2h307q20 0 34.5 14.5t14.5 34.5v504z" />
    <glyph glyph-name="Itilde" unicode="&#x128;" horiz-adv-x="655" 
d="M807 1980q19 0 33 -15t12 -34q-2 -44 -9 -85t-26 -90t-47 -85t-76.5 -60t-111.5 -24q-91 0 -179 58q40 -7 66 -7q23 0 33 2q8 -2 28 -2q62 0 110.5 24t77 59.5t47.5 84t26.5 90t9.5 84.5h6zM248 1710v2q22 -15 55 -33q-4 -4 -4 -20q-2 -14 -12 -23.5t-23 -9.5h-190
q-19 0 -33 15t-12 34v2h184q13 0 23 9.5t12 23.5zM596 1485q20 0 34.5 -14.5t14.5 -34.5v-1499q0 -20 -14.5 -35t-34.5 -15h-311q-20 0 -34.5 15t-14.5 35v2h309q20 0 34.5 14.5t14.5 34.5v1497h2z" />
    <glyph glyph-name="itilde" unicode="&#x129;" horiz-adv-x="655" 
d="M807 1980q19 0 33 -15t12 -34q-2 -44 -9 -85t-26 -90t-47 -85t-76.5 -60t-111.5 -24q-91 0 -179 58q40 -7 66 -7q23 0 33 2q8 -2 28 -2q62 0 110.5 24t77 59.5t47.5 84t26.5 90t9.5 84.5h6zM248 1710v2q22 -15 55 -33q-4 -4 -4 -20q-2 -14 -12 -23.5t-23 -9.5h-190
q-19 0 -33 15t-12 34v2h184q13 0 23 9.5t12 23.5zM596 1485q20 0 34.5 -14.5t14.5 -34.5v-1499q0 -20 -14.5 -35t-34.5 -15h-311q-20 0 -34.5 15t-14.5 35v2h309q20 0 34.5 14.5t14.5 34.5v1497h2z" />
    <glyph glyph-name="Imacron" unicode="&#x12a;" horiz-adv-x="655" 
d="M758 1890q20 0 34.5 -14.5t14.5 -34.5v-205q0 -20 -14.5 -34.5t-34.5 -14.5h-635q-20 0 -34.5 14.5t-14.5 34.5v2h633q20 0 34.5 15t14.5 35v202h2zM596 1485q20 0 34.5 -14.5t14.5 -34.5v-1499q0 -20 -14.5 -35t-34.5 -15h-311q-20 0 -34.5 15t-14.5 35v2h309
q20 0 34.5 14.5t14.5 34.5v1497h2z" />
    <glyph glyph-name="imacron" unicode="&#x12b;" horiz-adv-x="655" 
d="M758 1890q20 0 34.5 -14.5t14.5 -34.5v-205q0 -20 -14.5 -34.5t-34.5 -14.5h-635q-20 0 -34.5 14.5t-14.5 34.5v2h633q20 0 34.5 15t14.5 35v202h2zM596 1485q20 0 34.5 -14.5t14.5 -34.5v-1499q0 -20 -14.5 -35t-34.5 -15h-311q-20 0 -34.5 15t-14.5 35v2h309
q20 0 34.5 14.5t14.5 34.5v1497h2z" />
    <glyph glyph-name="Ibreve" unicode="&#x12c;" horiz-adv-x="655" 
d="M852 1911q17 -10 22 -31.5t-4 -36.5q-67 -122 -176.5 -194t-255.5 -72q-137 0 -248 68q73 -17 136 -17h61q146 0 255.5 72t176.5 194q8 10 4 33zM596 1485q20 0 34.5 -14.5t14.5 -34.5v-1499q0 -20 -14.5 -35t-34.5 -15h-311q-20 0 -34.5 15t-14.5 35v2h309
q20 0 34.5 14.5t14.5 34.5v1497h2z" />
    <glyph glyph-name="ibreve" unicode="&#x12d;" horiz-adv-x="655" 
d="M852 1911q17 -10 22 -31.5t-4 -36.5q-67 -122 -176.5 -194t-255.5 -72q-137 0 -248 68q73 -17 136 -17h61q146 0 255.5 72t176.5 194q8 10 4 33zM596 1485q20 0 34.5 -14.5t14.5 -34.5v-1499q0 -20 -14.5 -35t-34.5 -15h-311q-20 0 -34.5 15t-14.5 35v2h309
q20 0 34.5 14.5t14.5 34.5v1497h2z" />
    <glyph glyph-name="Iogonek" unicode="&#x12e;" horiz-adv-x="655" 
d="M596 1485q20 0 34.5 -14.5t14.5 -34.5v-1497q0 -49 -45 -74q-66 -35 -102 -74q-5 5 -27 16q-16 7 -45 11q35 53 123 98q45 25 45 74v1495h2zM592 -410l31 -188q3 -19 -9.5 -34t-31.5 -17q-169 -9 -273 63q58 -12 127 -12h31q29 -3 63 0q19 2 31.5 17t9.5 34l-4 25
q4 20 4 30v17l-20 117q35 -8 41 -52z" />
    <glyph glyph-name="iogonek" unicode="&#x12f;" horiz-adv-x="655" 
d="M596 1485q20 0 34.5 -14.5t14.5 -34.5v-1497q0 -49 -45 -74q-66 -35 -102 -74q-5 5 -27 16q-16 7 -45 11q35 53 123 98q45 25 45 74v1495h2zM592 -410l31 -188q3 -19 -9.5 -34t-31.5 -17q-169 -9 -273 63q58 -12 127 -12h31q29 -3 63 0q19 2 31.5 17t9.5 34l-4 25
q4 20 4 30v17l-20 117q35 -8 41 -52z" />
    <glyph glyph-name="Idotaccent" unicode="&#x130;" horiz-adv-x="655" 
d="M586 1901q51 -61 51 -134q0 -83 -57.5 -141.5t-139.5 -58.5q-75 0 -133 51h21q22 0 32 2q10 -2 29 -2q82 0 139.5 59t57.5 142q0 18 -2 28q2 10 2 33v21zM596 1485q20 0 34.5 -14.5t14.5 -34.5v-1499q0 -20 -14.5 -35t-34.5 -15h-311q-20 0 -34.5 15t-14.5 35v2h309
q20 0 34.5 14.5t14.5 34.5v1497h2z" />
    <glyph glyph-name="dotlessi" unicode="&#x131;" horiz-adv-x="655" 
d="M596 1485q20 0 34.5 -14.5t14.5 -34.5v-1499q0 -20 -14.5 -35t-34.5 -15h-311q-20 0 -34.5 15t-14.5 35v2h309q20 0 34.5 14.5t14.5 34.5v1497h2z" />
    <glyph glyph-name="IJ" unicode="&#x132;" horiz-adv-x="2017" 
d="M596 1485q20 0 34.5 -14.5t14.5 -34.5v-1499q0 -20 -14.5 -35t-34.5 -15h-311q-20 0 -34.5 15t-14.5 35v2h309q20 0 34.5 14.5t14.5 34.5v1497h2zM1972 1485q20 0 34.5 -14.5t14.5 -34.5v-957q0 -156 -48 -277t-132 -195t-192.5 -112t-235.5 -38q-183 0 -328 80
q113 -29 215 -29h62q127 0 235.5 38t192.5 112t132 195t48 277v955h2zM1210 449q-19 11 -34 45q-17 39 -17 104v20h2q20 0 34.5 -14.5t14.5 -34.5v-84q0 -27 2 -39z" />
    <glyph glyph-name="ij" unicode="&#x133;" horiz-adv-x="2017" 
d="M596 1485q20 0 34.5 -14.5t14.5 -34.5v-1499q0 -20 -14.5 -35t-34.5 -15h-311q-20 0 -34.5 15t-14.5 35v2h309q20 0 34.5 14.5t14.5 34.5v1497h2zM1972 1485q20 0 34.5 -14.5t14.5 -34.5v-957q0 -156 -48 -277t-132 -195t-192.5 -112t-235.5 -38q-183 0 -328 80
q113 -29 215 -29h62q127 0 235.5 38t192.5 112t132 195t48 277v955h2zM1210 449q-19 11 -34 45q-17 39 -17 104v20h2q20 0 34.5 -14.5t14.5 -34.5v-84q0 -27 2 -39z" />
    <glyph glyph-name="Jcircumflex" unicode="&#x134;" horiz-adv-x="1361" 
d="M1587 1827q15 -12 17.5 -33.5t-9.5 -36.5l-114 -141q-12 -17 -33.5 -20t-38.5 8l-66 45q7 0 19 4q17 -9 37.5 -5t30.5 19l114 141q15 18 8 47zM858 1655l211 137l66 -43q-5 0 -9 -4l-217 -141q-17 -11 -38 -8t-33 20l-27 33q25 -6 47 6zM1317 1485q20 0 34.5 -14.5
t14.5 -34.5v-957q0 -156 -48 -277t-132 -195t-192.5 -112t-235.5 -38q-183 0 -328 80q113 -29 215 -29h62q127 0 235.5 38t192.5 112t132 195t48 277v955h2zM555 449q-21 12 -35 45q-16 37 -16 104v20h2q20 0 34.5 -14.5t14.5 -34.5v-84q0 -27 2 -39z" />
    <glyph glyph-name="jcircumflex" unicode="&#x135;" horiz-adv-x="1361" 
d="M1587 1827q15 -12 17.5 -33.5t-9.5 -36.5l-114 -141q-12 -17 -33.5 -20t-38.5 8l-66 45q7 0 19 4q17 -9 37.5 -5t30.5 19l114 141q15 18 8 47zM858 1655l211 137l66 -43q-5 0 -9 -4l-217 -141q-17 -11 -38 -8t-33 20l-27 33q25 -6 47 6zM1317 1485q20 0 34.5 -14.5
t14.5 -34.5v-957q0 -156 -48 -277t-132 -195t-192.5 -112t-235.5 -38q-183 0 -328 80q113 -29 215 -29h62q127 0 235.5 38t192.5 112t132 195t48 277v955h2zM555 449q-21 12 -35 45q-16 37 -16 104v20h2q20 0 34.5 -14.5t14.5 -34.5v-84q0 -27 2 -39z" />
    <glyph glyph-name="Kcommaaccent" unicode="&#x136;" horiz-adv-x="1572" 
d="M1620 1485q14 0 19.5 -13.5t-3.5 -23.5l-569 -619q0 -1 -1 -2t-1 -2l-45 62l553 598h47zM645 1436v-172l-51 -56v277h2q20 0 34.5 -14.5t14.5 -34.5zM621 451l30 32l43 -59l-22 -25q-27 -30 -27 -71v-391q0 -20 -14.5 -35t-34.5 -15h-311q-20 0 -34.5 15t-14.5 35v2h309
q20 0 34.5 14.5t14.5 34.5v391q0 42 27 72zM1673 -74q9 -12 2 -25.5t-22 -13.5h-410q-51 0 -78 39l-8 13h445q15 0 22 13t-2 25l-6 7l6 12zM1133 -236q53 -53 53 -143q0 -70 -53.5 -153t-161.5 -191q-13 -13 -35 -13t-35 13l-45 43h4q14 -7 31.5 -5t28.5 13
q108 108 161.5 191t53.5 153q0 21 -2 31q2 10 2 31q0 20 -2 30z" />
    <glyph glyph-name="kcommaaccent" unicode="&#x137;" horiz-adv-x="1572" 
d="M1620 1485q14 0 19.5 -13.5t-3.5 -23.5l-569 -619q0 -1 -1 -2t-1 -2l-45 62l553 598h47zM645 1436v-172l-51 -56v277h2q20 0 34.5 -14.5t14.5 -34.5zM621 451l30 32l43 -59l-22 -25q-27 -30 -27 -71v-391q0 -20 -14.5 -35t-34.5 -15h-311q-20 0 -34.5 15t-14.5 35v2h309
q20 0 34.5 14.5t14.5 34.5v391q0 42 27 72zM1673 -74q9 -12 2 -25.5t-22 -13.5h-410q-51 0 -78 39l-8 13h445q15 0 22 13t-2 25l-6 7l6 12zM1096 -236q53 -53 53 -143q0 -70 -53.5 -153t-161.5 -191q-14 -13 -35 -13t-35 13l-45 43h4q14 -7 31.5 -5t28.5 13
q108 108 161.5 191t53.5 153q0 21 -2 31q2 10 2 31q0 20 -2 30z" />
    <glyph glyph-name="Lacute" unicode="&#x139;" horiz-adv-x="1323" 
d="M784 1870q7 -14 2.5 -29.5t-18.5 -21.5l-520 -240q-15 -6 -32 -0.5t-26 18.5l-16 31q6 -2 23 2l520 240q14 6 18.5 21.5t-2.5 29.5l-4 6q3 7 8 25zM643 1436v-979h-51v1028h2q20 0 34.5 -14.5t14.5 -34.5zM1360 283q20 0 34.5 -15t14.5 -35v-296q0 -20 -14.5 -35
t-34.5 -15h-1075q-20 0 -34.5 15t-14.5 35v2h1073q20 0 34.5 14.5t14.5 34.5v295h2z" />
    <glyph glyph-name="lacute" unicode="&#x13a;" horiz-adv-x="1323" 
d="M784 1870q7 -14 2.5 -29.5t-18.5 -21.5l-520 -240q-15 -6 -32 -0.5t-26 18.5l-16 31q6 -2 23 2l520 240q14 6 18.5 21.5t-2.5 29.5l-4 6q3 7 8 25zM643 1436v-979h-51v1028h2q20 0 34.5 -14.5t14.5 -34.5zM1360 283q20 0 34.5 -15t14.5 -35v-296q0 -20 -14.5 -35
t-34.5 -15h-1075q-20 0 -34.5 15t-14.5 35v2h1073q20 0 34.5 14.5t14.5 34.5v295h2z" />
    <glyph glyph-name="Lcommaaccent" unicode="&#x13b;" horiz-adv-x="1323" 
d="M643 1436v-979h-51v1028h2q20 0 34.5 -14.5t14.5 -34.5zM1360 283q20 0 34.5 -15t14.5 -35v-296q0 -20 -14.5 -35t-34.5 -15h-1075q-20 0 -34.5 15t-14.5 35v2h1073q20 0 34.5 14.5t14.5 34.5v295h2zM946 -236q53 -53 53 -143q0 -70 -53.5 -153t-161.5 -191
q-14 -13 -35 -13t-34 13l-45 43h4q14 -7 31 -5t28 13q108 108 161.5 191t53.5 153q0 21 -2 31q2 10 2 31q0 20 -2 30z" />
    <glyph glyph-name="lcommaaccent" unicode="&#x13c;" horiz-adv-x="1323" 
d="M643 1436v-979h-51v1028h2q20 0 34.5 -14.5t14.5 -34.5zM1360 283q20 0 34.5 -15t14.5 -35v-296q0 -20 -14.5 -35t-34.5 -15h-1075q-20 0 -34.5 15t-14.5 35v2h1073q20 0 34.5 14.5t14.5 34.5v295h2zM946 -236q53 -53 53 -143q0 -70 -53.5 -153t-161.5 -191
q-14 -13 -35 -13t-34 13l-45 43h4q14 -7 31 -5t28 13q108 108 161.5 191t53.5 153q0 21 -2 31q2 10 2 31q0 20 -2 30z" />
    <glyph glyph-name="Lcaron" unicode="&#x13d;" horiz-adv-x="1323" 
d="M643 1436v-979h-51v1028h2q20 0 34.5 -14.5t14.5 -34.5zM1034 1470q53 -53 53 -143q0 -70 -53.5 -153t-161.5 -191q-14 -13 -35 -13t-34 13l-45 43h4q14 -7 31 -5t28 13q108 108 161.5 191t53.5 153q0 21 -2 31q2 10 2 31q0 20 -2 30zM1360 283q20 0 34.5 -15t14.5 -35
v-296q0 -20 -14.5 -35t-34.5 -15h-1075q-20 0 -34.5 15t-14.5 35v2h1073q20 0 34.5 14.5t14.5 34.5v295h2z" />
    <glyph glyph-name="lcaron" unicode="&#x13e;" horiz-adv-x="1323" 
d="M643 1436v-979h-51v1028h2q20 0 34.5 -14.5t14.5 -34.5zM1034 1470q53 -53 53 -143q0 -70 -53.5 -153t-161.5 -191q-14 -13 -35 -13t-34 13l-45 43h4q14 -7 31 -5t28 13q108 108 161.5 191t53.5 153q0 21 -2 31q2 10 2 31q0 20 -2 30zM1360 283q20 0 34.5 -15t14.5 -35
v-296q0 -20 -14.5 -35t-34.5 -15h-1075q-20 0 -34.5 15t-14.5 35v2h1073q20 0 34.5 14.5t14.5 34.5v295h2z" />
    <glyph glyph-name="Ldot" unicode="&#x13f;" horiz-adv-x="1323" 
d="M643 1436v-979h-51v1028h2q20 0 34.5 -14.5t14.5 -34.5zM1167 879q52 -62 52 -134q0 -83 -57.5 -141.5t-139.5 -58.5q-75 0 -133 51h20q23 0 33 2q10 -2 29 -2q82 0 139 59t57 142q0 18 -2 28q2 10 2 33v21zM1360 283q20 0 34.5 -15t14.5 -35v-296q0 -20 -14.5 -35
t-34.5 -15h-1075q-20 0 -34.5 15t-14.5 35v2h1073q20 0 34.5 14.5t14.5 34.5v295h2z" />
    <glyph glyph-name="ldot" unicode="&#x140;" horiz-adv-x="1323" 
d="M643 1436v-979h-51v1028h2q20 0 34.5 -14.5t14.5 -34.5zM1167 879q52 -62 52 -134q0 -83 -57.5 -141.5t-139.5 -58.5q-75 0 -133 51h20q23 0 33 2q10 -2 29 -2q82 0 139 59t57 142q0 18 -2 28q2 10 2 33v21zM1360 283q20 0 34.5 -15t14.5 -35v-296q0 -20 -14.5 -35
t-34.5 -15h-1075q-20 0 -34.5 15t-14.5 35v2h1073q20 0 34.5 14.5t14.5 34.5v295h2z" />
    <glyph glyph-name="Lslash" unicode="&#x141;" horiz-adv-x="1339" 
d="M659 1436v-219l-51 -23v291h2q20 0 34.5 -14.5t14.5 -34.5zM659 522v-65h-51v116q0 42 37 58l295 135q20 9 32.5 28.5t12.5 41.5v299l6 2q15 8 30 -2t15 -27v-324q0 -22 -12.5 -41t-32.5 -28l-295 -135q-37 -16 -37 -58zM1376 283q20 0 34.5 -15t14.5 -35v-296
q0 -20 -14.5 -35t-34.5 -15h-1075q-20 0 -34.5 15t-14.5 35v2h1073q20 0 34.5 14.5t14.5 34.5v295h2z" />
    <glyph glyph-name="lslash" unicode="&#x142;" horiz-adv-x="1339" 
d="M659 1436v-219l-51 -23v291h2q20 0 34.5 -14.5t14.5 -34.5zM659 522v-65h-51v116q0 42 37 58l295 135q20 9 32.5 28.5t12.5 41.5v299l6 2q15 8 30 -2t15 -27v-324q0 -22 -12.5 -41t-32.5 -28l-295 -135q-37 -16 -37 -58zM1376 283q20 0 34.5 -15t14.5 -35v-296
q0 -20 -14.5 -35t-34.5 -15h-1075q-20 0 -34.5 15t-14.5 35v2h1073q20 0 34.5 14.5t14.5 34.5v295h2z" />
    <glyph glyph-name="Nacute" unicode="&#x143;" horiz-adv-x="1714" 
d="M1317 1870q7 -14 2 -29.5t-19 -21.5l-520 -240q-15 -6 -31.5 -1t-25.5 19l-16 31q6 -2 22 2l520 240q14 6 19 21.5t-2 29.5l-4 6q4 7 8 25zM1655 1485q20 0 34.5 -14.5t14.5 -34.5v-1499q0 -20 -14.5 -35t-34.5 -15h-248q-52 0 -80 39l-10 13h287q20 0 34.5 14.5
t14.5 34.5v1497h2zM594 -12v727l51 -66v-712q0 -20 -14.5 -35t-34.5 -15h-311q-20 0 -34.5 15t-14.5 35v2h309q20 0 34.5 14.5t14.5 34.5z" />
    <glyph glyph-name="nacute" unicode="&#x144;" horiz-adv-x="1712" 
d="M1315 1870q7 -14 2 -29.5t-19 -21.5l-520 -240q-15 -6 -31.5 -1t-25.5 19l-16 31q6 -2 22 2l520 240q14 6 19 21.5t-2 29.5l-4 6q4 7 8 25zM1653 1485q20 0 34.5 -14.5t14.5 -34.5v-1499q0 -20 -14.5 -35t-34.5 -15h-248q-52 0 -80 39l-10 13h287q20 0 34.5 14.5
t14.5 34.5v1497h2zM592 -12v727l51 -66v-712q0 -20 -14.5 -35t-34.5 -15h-309q-20 0 -34.5 15t-14.5 35v2h307q20 0 34.5 14.5t14.5 34.5z" />
    <glyph glyph-name="Ncommaaccent" unicode="&#x145;" horiz-adv-x="1714" 
d="M1655 1485q20 0 34.5 -14.5t14.5 -34.5v-1499q0 -20 -14.5 -35t-34.5 -15h-248q-52 0 -80 39l-10 13h287q20 0 34.5 14.5t14.5 34.5v1497h2zM594 -12v727l51 -66v-712q0 -20 -14.5 -35t-34.5 -15h-311q-20 0 -34.5 15t-14.5 35v2h309q20 0 34.5 14.5t14.5 34.5z
M1100 -236q53 -53 53 -143q0 -70 -53.5 -153t-161.5 -191q-14 -13 -35 -13t-35 13l-45 43h4q14 -7 31.5 -5t28.5 13q108 108 161.5 191t53.5 153q0 21 -2 31q2 10 2 31q0 20 -2 30z" />
    <glyph glyph-name="ncommaaccent" unicode="&#x146;" horiz-adv-x="1712" 
d="M1653 1485q20 0 34.5 -14.5t14.5 -34.5v-1499q0 -20 -14.5 -35t-34.5 -15h-248q-52 0 -80 39l-10 13h287q20 0 34.5 14.5t14.5 34.5v1497h2zM592 -12v727l51 -66v-712q0 -20 -14.5 -35t-34.5 -15h-309q-20 0 -34.5 15t-14.5 35v2h307q20 0 34.5 14.5t14.5 34.5z
M1098 -236q53 -53 53 -143q0 -70 -53.5 -153t-161.5 -191q-14 -13 -35 -13t-35 13l-45 43h4q14 -7 31.5 -5t28.5 13q108 108 161.5 191t53.5 153q0 21 -2 31q2 10 2 31q0 20 -2 30z" />
    <glyph glyph-name="Ncaron" unicode="&#x147;" horiz-adv-x="1714" 
d="M1411 1976q11 -13 9 -30.5t-15 -26.5l-399 -317q-14 -10 -33 -10t-33 10l-55 43q4 0 12 4q30 -16 57 4l400 317q13 9 15 25.5t-7 29.5q1 1 2 4t2 5zM1655 1485q20 0 34.5 -14.5t14.5 -34.5v-1499q0 -20 -14.5 -35t-34.5 -15h-248q-52 0 -80 39l-10 13h287q20 0 34.5 14.5
t14.5 34.5v1497h2zM594 -12v727l51 -66v-712q0 -20 -14.5 -35t-34.5 -15h-311q-20 0 -34.5 15t-14.5 35v2h309q20 0 34.5 14.5t14.5 34.5z" />
    <glyph glyph-name="ncaron" unicode="&#x148;" horiz-adv-x="1712" 
d="M1409 1976q11 -13 9 -30.5t-15 -26.5l-399 -317q-14 -10 -33 -10t-33 10l-55 43q4 0 12 4q30 -16 57 4l400 317q13 9 15 25.5t-7 29.5q1 1 2 4t2 5zM1653 1485q20 0 34.5 -14.5t14.5 -34.5v-1499q0 -20 -14.5 -35t-34.5 -15h-248q-52 0 -80 39l-10 13h287q20 0 34.5 14.5
t14.5 34.5v1497h2zM592 -12v727l51 -66v-712q0 -20 -14.5 -35t-34.5 -15h-309q-20 0 -34.5 15t-14.5 35v2h307q20 0 34.5 14.5t14.5 34.5z" />
    <glyph glyph-name="Eng" unicode="&#x14a;" horiz-adv-x="1714" 
d="M1655 1485q20 0 34.5 -14.5t14.5 -34.5v-1569q0 -154 -52.5 -276.5t-139 -196.5t-191 -112t-217.5 -38q-154 0 -289 74q90 -23 176 -23h62q113 0 217.5 38t191 112t139 196.5t52.5 276.5v1567h2zM594 -12v727l51 -64v-714q0 -20 -14.5 -35t-34.5 -15h-311q-20 0 -34.5 15
t-14.5 35v2h309q20 0 34.5 14.5t14.5 34.5z" />
    <glyph glyph-name="eng" unicode="&#x14b;" horiz-adv-x="1714" 
d="M1655 1485q20 0 34.5 -14.5t14.5 -34.5v-1569q0 -154 -52.5 -276.5t-139 -196.5t-191 -112t-217.5 -38q-154 0 -289 74q90 -23 176 -23h62q113 0 217.5 38t191 112t139 196.5t52.5 276.5v1567h2zM594 -12v727l51 -64v-714q0 -20 -14.5 -35t-34.5 -15h-311q-20 0 -34.5 15
t-14.5 35v2h309q20 0 34.5 14.5t14.5 34.5z" />
    <glyph glyph-name="Omacron" unicode="&#x14c;" horiz-adv-x="1789" 
d="M1327 1890q20 0 34.5 -14.5t14.5 -34.5v-205q0 -20 -14.5 -34.5t-34.5 -14.5h-635q-20 0 -34.5 14.5t-14.5 34.5v2h633q20 0 34.5 15t14.5 35v202h2zM1008 1120q-180 0 -307.5 -126.5t-127.5 -307.5q0 -39 11 -92q-54 79 -60 176q10 161 125 274.5t277 124.5
q101 -6 178 -59q-52 10 -96 10zM1765 1059q90 -178 90 -373q0 -168 -67 -321.5t-180.5 -264.5t-270.5 -177t-329 -66q-204 0 -390 94q130 -43 277 -43h61q172 0 329 66t270.5 177t181 264.5t67.5 321.5v62q0 132 -39 260z" />
    <glyph glyph-name="omacron" unicode="&#x14d;" horiz-adv-x="1789" 
d="M1327 1890q20 0 34.5 -14.5t14.5 -34.5v-205q0 -20 -14.5 -34.5t-34.5 -14.5h-635q-20 0 -34.5 14.5t-14.5 34.5v2h633q20 0 34.5 15t14.5 35v202h2zM1008 1120q-180 0 -307.5 -126.5t-127.5 -307.5q0 -39 11 -92q-54 79 -60 176q10 161 125 274.5t277 124.5
q101 -6 178 -59q-52 10 -96 10zM1765 1059q90 -178 90 -373q0 -168 -67 -321.5t-180.5 -264.5t-270.5 -177t-329 -66q-204 0 -390 94q130 -43 277 -43h61q172 0 329 66t270.5 177t181 264.5t67.5 321.5v62q0 132 -39 260z" />
    <glyph glyph-name="Obreve" unicode="&#x14e;" horiz-adv-x="1789" 
d="M1423 1911q17 -10 22.5 -31.5t-3.5 -36.5q-67 -122 -176.5 -194t-255.5 -72q-137 0 -248 68q73 -17 135 -17h61q146 0 256 72t177 194q8 10 4 33zM1008 1120q-180 0 -307.5 -126.5t-127.5 -307.5q0 -39 11 -92q-54 79 -60 176q10 161 125 274.5t277 124.5q101 -6 178 -59
q-52 10 -96 10zM1765 1059q90 -178 90 -373q0 -168 -67 -321.5t-180.5 -264.5t-270.5 -177t-329 -66q-204 0 -390 94q130 -43 277 -43h61q172 0 329 66t270.5 177t181 264.5t67.5 321.5v62q0 132 -39 260z" />
    <glyph glyph-name="obreve" unicode="&#x14f;" horiz-adv-x="1789" 
d="M1421 1911q17 -10 22.5 -31.5t-3.5 -36.5q-67 -122 -176.5 -194t-255.5 -72q-137 0 -248 68q73 -17 135 -17h61q146 0 256 72t177 194q8 10 4 33zM1008 1120q-180 0 -307.5 -126.5t-127.5 -307.5q0 -39 11 -92q-54 79 -60 176q10 161 125 274.5t277 124.5q101 -6 178 -59
q-52 10 -96 10zM1765 1059q90 -178 90 -373q0 -168 -67 -321.5t-180.5 -264.5t-270.5 -177t-329 -66q-204 0 -390 94q130 -43 277 -43h61q172 0 329 66t270.5 177t181 264.5t67.5 321.5v62q0 132 -39 260z" />
    <glyph glyph-name="Ohungarumlaut" unicode="&#x150;" horiz-adv-x="1789" 
d="M1661 2040q13 -14 12 -34t-16 -32l-340 -274q-17 -12 -38 -11.5t-36 15.5l-39 41h2q28 -15 60 6l340 274q13 10 16 28.5t-6 31.5zM940 1931q10 -19 23 -30l24 -25l-221 -176q-17 -12 -38 -11.5t-36 15.5l-41 41h4q28 -15 60 6zM1008 1120q-180 0 -307.5 -126.5
t-127.5 -307.5q0 -39 11 -92q-54 79 -60 176q10 161 125 274.5t277 124.5q101 -6 178 -59q-52 10 -96 10zM1765 1059q90 -178 90 -373q0 -168 -67 -321.5t-180.5 -264.5t-270.5 -177t-329 -66q-204 0 -390 94q130 -43 277 -43h61q172 0 329 66t270.5 177t181 264.5
t67.5 321.5v62q0 132 -39 260z" />
    <glyph glyph-name="ohungarumlaut" unicode="&#x151;" horiz-adv-x="1789" 
d="M1659 2040q13 -14 12 -34t-16 -32l-340 -274q-17 -12 -38 -11.5t-36 15.5l-39 41h2q28 -15 60 6l340 274q13 10 16 28.5t-6 31.5zM938 1931q10 -19 23 -30l24 -25l-221 -176q-17 -12 -38 -11.5t-36 15.5l-41 41h4q28 -15 60 6zM1008 1120q-180 0 -307.5 -126.5
t-127.5 -307.5q0 -39 11 -92q-54 79 -60 176q10 161 125 274.5t277 124.5q101 -6 178 -59q-52 10 -96 10zM1765 1059q90 -178 90 -373q0 -168 -67 -321.5t-180.5 -264.5t-270.5 -177t-329 -66q-204 0 -390 94q130 -43 277 -43h61q172 0 329 66t270.5 177t181 264.5
t67.5 321.5v62q0 132 -39 260z" />
    <glyph glyph-name="OE" unicode="&#x152;" horiz-adv-x="2404" 
d="M2394 1485q20 0 34.5 -14.5t14.5 -34.5v-299q0 -20 -14.5 -35t-34.5 -15h-727q-17 0 -29 -11.5t-12 -28.5v-15h-51v66q0 17 12 29t29 12h727q20 0 34.5 14.5t14.5 34.5v297h2zM1042 1087q-227 -4 -347 -114.5t-120 -286.5q0 -44 9 -84q-2 2 -2 4q-50 68 -56 164
q11 167 135 268t349 101h32v-52zM1667 487q-14 0 -25 -8.5t-14 -21.5h-53v41q0 17 12 29t29 12h582q20 0 34.5 14.5t14.5 34.5v270h2q20 0 34.5 -14.5t14.5 -34.5v-272q0 -20 -14.5 -35t-34.5 -15h-582zM2394 283q20 0 34.5 -15t14.5 -35v-296q0 -20 -14.5 -35t-34.5 -15
h-1333q-265 0 -473 105q165 -53 360 -53h1395q20 0 34.5 14.5t14.5 34.5v295h2z" />
    <glyph glyph-name="oe" unicode="&#x153;" horiz-adv-x="2406" 
d="M2394 1485q20 0 34.5 -14.5t14.5 -34.5v-299q0 -20 -14.5 -35t-34.5 -15h-727q-17 0 -29 -11.5t-12 -28.5v-15h-51v66q0 17 12 29t29 12h727q20 0 34.5 14.5t14.5 34.5v297h2zM1042 1087q-227 -4 -347 -114.5t-120 -286.5q0 -44 9 -84q-2 2 -2 4q-50 68 -56 164
q11 167 135 268t349 101h32v-52zM1667 487q-14 0 -25 -8.5t-14 -21.5h-53v41q0 17 12 29t29 12h582q20 0 34.5 14.5t14.5 34.5v270h2q20 0 34.5 -14.5t14.5 -34.5v-272q0 -20 -14.5 -35t-34.5 -15h-582zM2394 283q20 0 34.5 -15t14.5 -35v-296q0 -20 -14.5 -35t-34.5 -15
h-1333q-265 0 -473 105q165 -53 360 -53h1395q20 0 34.5 14.5t14.5 34.5v295h2z" />
    <glyph glyph-name="Racute" unicode="&#x154;" horiz-adv-x="1568" 
d="M1286 1870q7 -14 2.5 -29.5t-18.5 -21.5l-520 -240q-15 -6 -32 -0.5t-26 18.5l-16 31q6 -2 22 2l521 240q14 6 18.5 21.5t-2.5 29.5l-4 6q3 7 8 25zM1335 389l-4 -2l-41 57q135 75 204 210t69 298v62q0 108 -27 207q78 -141 78 -320q0 -165 -70.5 -301t-208.5 -211z
M1001 1130q15 -15 17 -18h-334q-17 0 -29 -12t-12 -29v-211h-51v262q0 17 12 29t29 12h248q54 0 84 -12q21 -9 36 -21zM713 360h2l30 -45h-61q-17 0 -29 -12t-12 -29v-337q0 -20 -14.5 -35t-34.5 -15h-309q-20 0 -34.5 15t-14.5 35v2h307q20 0 34.5 14.5t14.5 34.5v338
q0 17 12 29t29 12h65q7 0 11 -2zM1616 -72q9 -14 1.5 -27.5t-22.5 -13.5h-391q-48 0 -78 41l-8 11h426q15 0 22.5 13.5t-1.5 27.5l-4 6q4 8 4 12z" />
    <glyph glyph-name="racute" unicode="&#x155;" horiz-adv-x="1568" 
d="M1286 1870q7 -14 2.5 -29.5t-18.5 -21.5l-520 -240q-15 -6 -32 -0.5t-26 18.5l-16 31q6 -2 22 2l521 240q14 6 18.5 21.5t-2.5 29.5l-4 6q3 7 8 25zM1335 389l-4 -2l-41 57q135 75 204 210t69 298v62q0 108 -27 207q78 -141 78 -320q0 -165 -70.5 -301t-208.5 -211z
M1001 1130q15 -15 17 -18h-334q-17 0 -29 -12t-12 -29v-211h-51v262q0 17 12 29t29 12h248q54 0 84 -12q21 -9 36 -21zM713 360h2l30 -45h-61q-17 0 -29 -12t-12 -29v-337q0 -20 -14.5 -35t-34.5 -15h-309q-20 0 -34.5 15t-14.5 35v2h307q20 0 34.5 14.5t14.5 34.5v338
q0 17 12 29t29 12h65q7 0 11 -2zM1616 -72q9 -14 1.5 -27.5t-22.5 -13.5h-391q-48 0 -78 41l-8 11h426q15 0 22.5 13.5t-1.5 27.5l-4 6q4 8 4 12z" />
    <glyph glyph-name="Rcommaaccent" unicode="&#x156;" horiz-adv-x="1568" 
d="M1335 389l-4 -2l-41 57q135 75 204 210t69 298v62q0 108 -27 207q78 -141 78 -320q0 -165 -70.5 -301t-208.5 -211zM1001 1130q15 -15 17 -18h-334q-17 0 -29 -12t-12 -29v-211h-51v262q0 17 12 29t29 12h248q54 0 84 -12q21 -9 36 -21zM713 360h2l30 -45h-61
q-17 0 -29 -12t-12 -29v-337q0 -20 -14.5 -35t-34.5 -15h-309q-20 0 -34.5 15t-14.5 35v2h307q20 0 34.5 14.5t14.5 34.5v338q0 17 12 29t29 12h65q7 0 11 -2zM1616 -72q9 -14 1.5 -27.5t-22.5 -13.5h-391q-48 0 -78 41l-8 11h426q15 0 22.5 13.5t-1.5 27.5l-4 6q4 8 4 12z
M1065 -236q53 -53 53 -143q0 -70 -53.5 -153t-161.5 -191q-13 -13 -34 -13t-35 13l-46 43h5q14 -7 31 -5t28 13q108 108 161.5 191t53.5 153q0 21 -2 31q2 10 2 31q0 20 -2 30z" />
    <glyph glyph-name="rcommaaccent" unicode="&#x157;" horiz-adv-x="1568" 
d="M1335 389l-4 -2l-41 57q135 75 204 210t69 298v62q0 108 -27 207q78 -141 78 -320q0 -165 -70.5 -301t-208.5 -211zM1001 1130q15 -15 17 -18h-334q-17 0 -29 -12t-12 -29v-211h-51v262q0 17 12 29t29 12h248q54 0 84 -12q21 -9 36 -21zM713 360h2l30 -45h-61
q-17 0 -29 -12t-12 -29v-337q0 -20 -14.5 -35t-34.5 -15h-309q-20 0 -34.5 15t-14.5 35v2h307q20 0 34.5 14.5t14.5 34.5v338q0 17 12 29t29 12h65q7 0 11 -2zM1616 -72q9 -14 1.5 -27.5t-22.5 -13.5h-391q-48 0 -78 41l-8 11h426q15 0 22.5 13.5t-1.5 27.5l-4 6q4 8 4 12z
M1065 -236q53 -53 53 -143q0 -70 -53.5 -153t-161.5 -191q-13 -13 -34 -13t-35 13l-46 43h5q14 -7 31 -5t28 13q108 108 161.5 191t53.5 153q0 21 -2 31q2 10 2 31q0 20 -2 30z" />
    <glyph glyph-name="Rcaron" unicode="&#x158;" horiz-adv-x="1568" 
d="M1376 1976q11 -13 9 -30.5t-15 -26.5l-399 -317q-13 -10 -33 -10t-33 10l-55 43q4 0 12 4q30 -17 58 4l399 317q13 9 15 25.5t-7 29.5q1 1 2 4t2 5zM1335 389l-4 -2l-41 57q135 75 204 210t69 298v62q0 108 -27 207q78 -141 78 -320q0 -165 -70.5 -301t-208.5 -211z
M1001 1130q15 -15 17 -18h-334q-17 0 -29 -12t-12 -29v-211h-51v262q0 17 12 29t29 12h248q54 0 84 -12q21 -9 36 -21zM713 360h2l30 -45h-61q-17 0 -29 -12t-12 -29v-337q0 -20 -14.5 -35t-34.5 -15h-309q-20 0 -34.5 15t-14.5 35v2h307q20 0 34.5 14.5t14.5 34.5v338
q0 17 12 29t29 12h65q7 0 11 -2zM1616 -72q9 -14 1.5 -27.5t-22.5 -13.5h-391q-48 0 -78 41l-8 11h426q15 0 22.5 13.5t-1.5 27.5l-4 6q4 8 4 12z" />
    <glyph glyph-name="rcaron" unicode="&#x159;" horiz-adv-x="1568" 
d="M1376 1976q11 -13 9 -30.5t-15 -26.5l-399 -317q-13 -10 -33 -10t-33 10l-55 43q4 0 12 4q30 -17 58 4l399 317q13 9 15 25.5t-7 29.5q1 1 2 4t2 5zM1335 389l-4 -2l-41 57q135 75 204 210t69 298v62q0 108 -27 207q78 -141 78 -320q0 -165 -70.5 -301t-208.5 -211z
M1001 1130q15 -15 17 -18h-334q-17 0 -29 -12t-12 -29v-211h-51v262q0 17 12 29t29 12h248q54 0 84 -12q21 -9 36 -21zM713 360h2l30 -45h-61q-17 0 -29 -12t-12 -29v-337q0 -20 -14.5 -35t-34.5 -15h-309q-20 0 -34.5 15t-14.5 35v2h307q20 0 34.5 14.5t14.5 34.5v338
q0 17 12 29t29 12h65q7 0 11 -2zM1616 -72q9 -14 1.5 -27.5t-22.5 -13.5h-391q-48 0 -78 41l-8 11h426q15 0 22.5 13.5t-1.5 27.5l-4 6q4 8 4 12z" />
    <glyph glyph-name="Sacute" unicode="&#x15a;" horiz-adv-x="1431" 
d="M1155 1870q7 -14 2.5 -29.5t-18.5 -21.5l-521 -240q-15 -6 -31.5 -1t-25.5 19l-16 31q6 -2 22 2l520 240q14 6 19 21.5t-2 29.5l-4 6q4 7 8 25zM1124 977q-50 0 -67 51h301q22 0 38.5 17.5t14.5 39.5q0 11 -4 31q4 20 4 27v8q-2 34 -14 92q56 -92 65 -209
q2 -22 -14.5 -39.5t-38.5 -17.5h-285zM651 1114q-4 2 -17.5 8t-19.5 8q-18 9 -28 19q36 55 147 61q56 -3 101 -28q10 -5 28 -23q-14 2 -45 2q-116 0 -166 -47zM1421 559q64 -103 64 -227q0 -152 -83.5 -260.5t-225 -161.5t-326.5 -53q-249 0 -426 94q142 -43 313 -43h62
q185 0 326.5 53t225 161.5t83.5 260.5v61q0 55 -13 115z" />
    <glyph glyph-name="sacute" unicode="&#x15b;" horiz-adv-x="1431" 
d="M1157 1870q7 -14 2.5 -29.5t-18.5 -21.5l-520 -240q-15 -6 -32 -0.5t-26 18.5l-16 31q6 -2 22 2l521 240q14 6 18.5 21.5t-2.5 29.5l-4 6q4 7 8 25zM1124 977q-50 0 -67 51h301q22 0 38.5 17.5t14.5 39.5q0 11 -4 31q4 20 4 27v8q-2 34 -14 92q56 -92 65 -209
q2 -22 -14.5 -39.5t-38.5 -17.5h-285zM651 1114q-4 2 -17.5 8t-19.5 8q-18 9 -28 19q36 55 147 61q56 -3 101 -28q10 -5 28 -23q-14 2 -45 2q-116 0 -166 -47zM1421 559q64 -103 64 -227q0 -152 -83.5 -260.5t-225 -161.5t-326.5 -53q-249 0 -426 94q142 -43 313 -43h62
q185 0 326.5 53t225 161.5t83.5 260.5v61q0 55 -13 115z" />
    <glyph glyph-name="Scircumflex" unicode="&#x15c;" horiz-adv-x="1431" 
d="M1235 1827q15 -12 17.5 -33.5t-9.5 -36.5l-115 -141q-12 -17 -33 -20t-38 8l-66 45q7 0 19 4q17 -9 37 -5t30 19l115 141q15 18 8 47zM506 1655l211 137l65 -43q-4 0 -8 -4l-217 -141q-17 -11 -38.5 -8t-33.5 20l-26 33q25 -6 47 6zM1124 977q-50 0 -67 51h301
q22 0 38.5 17.5t14.5 39.5q0 11 -4 31q4 20 4 27v8q-2 34 -14 92q56 -92 65 -209q2 -22 -14.5 -39.5t-38.5 -17.5h-285zM651 1114q-4 2 -17.5 8t-19.5 8q-18 9 -28 19q36 55 147 61q56 -3 101 -28q10 -5 28 -23q-14 2 -45 2q-116 0 -166 -47zM1421 559q64 -103 64 -227
q0 -152 -83.5 -260.5t-225 -161.5t-326.5 -53q-249 0 -426 94q142 -43 313 -43h62q185 0 326.5 53t225 161.5t83.5 260.5v61q0 55 -13 115z" />
    <glyph glyph-name="scircumflex" unicode="&#x15d;" horiz-adv-x="1431" 
d="M1237 1827q15 -12 17.5 -33.5t-9.5 -36.5l-115 -141q-12 -17 -33 -20t-38 8l-66 45q7 0 19 4q17 -9 37 -5t30 19l115 141q15 18 8 47zM508 1655l211 137l65 -43q-4 0 -8 -4l-217 -141q-17 -11 -38.5 -8t-33.5 20l-26 33q25 -6 47 6zM1124 977q-50 0 -67 51h301
q22 0 38.5 17.5t14.5 39.5q0 11 -4 31q4 20 4 27v8q-2 34 -14 92q56 -92 65 -209q2 -22 -14.5 -39.5t-38.5 -17.5h-285zM651 1114q-4 2 -17.5 8t-19.5 8q-18 9 -28 19q36 55 147 61q56 -3 101 -28q10 -5 28 -23q-14 2 -45 2q-116 0 -166 -47zM1421 559q64 -103 64 -227
q0 -152 -83.5 -260.5t-225 -161.5t-326.5 -53q-249 0 -426 94q142 -43 313 -43h62q185 0 326.5 53t225 161.5t83.5 260.5v61q0 55 -13 115z" />
    <glyph glyph-name="Scedilla" unicode="&#x15e;" horiz-adv-x="1431" 
d="M1124 977q-50 0 -67 51h301q22 0 38.5 17.5t14.5 39.5q0 11 -4 31q4 20 4 27v8q-2 34 -14 92q56 -92 65 -209q2 -22 -14.5 -39.5t-38.5 -17.5h-285zM651 1114q-4 2 -17.5 8t-19.5 8q-18 9 -28 19q36 55 147 61q56 -3 101 -28q10 -5 28 -23q-14 2 -45 2q-116 0 -166 -47z
M1421 559q64 -103 64 -227q0 -195 -133.5 -315.5t-356.5 -149.5q-8 0 -16 -4q-28 31 -57 49q18 6 22 6q223 29 356.5 149.5t133.5 315.5v61q0 55 -13 115zM420 -47q73 -23 141 -31l-10 -24q-70 21 -131 55zM1053 -348q0 17 -4 53q55 -66 55 -166q0 -114 -74 -189t-207 -75
q-105 0 -245 49q-19 8 -25 23q1 0 4 -1t4 -1q89 -19 150 -19q20 0 30 2q10 -2 31 -2q133 0 207 75t74 189q0 21 -2 29q2 12 2 33z" />
    <glyph glyph-name="scedilla" unicode="&#x15f;" horiz-adv-x="1431" 
d="M1124 977q-50 0 -67 51h301q22 0 38.5 17.5t14.5 39.5q0 11 -4 31q4 20 4 27v8q-2 34 -14 92q56 -92 65 -209q2 -22 -14.5 -39.5t-38.5 -17.5h-285zM651 1114q-4 2 -17.5 8t-19.5 8q-18 9 -28 19q36 55 147 61q56 -3 101 -28q10 -5 28 -23q-14 2 -45 2q-116 0 -166 -47z
M1421 559q64 -103 64 -227q0 -195 -133.5 -315.5t-356.5 -149.5q-8 0 -16 -4q-28 31 -57 49q18 6 22 6q223 29 356.5 149.5t133.5 315.5v61q0 55 -13 115zM420 -47q73 -23 141 -31l-10 -24q-70 21 -131 55zM1053 -348q0 17 -4 53q55 -66 55 -166q0 -114 -74 -189t-207 -75
q-105 0 -245 49q-19 8 -25 23q1 0 4 -1t4 -1q89 -19 150 -19q20 0 30 2q10 -2 31 -2q133 0 207 75t74 189q0 21 -2 29q2 12 2 33z" />
    <glyph glyph-name="Scaron" unicode="&#x160;" horiz-adv-x="1431" 
d="M1249 1976q11 -13 9 -30.5t-15 -26.5l-399 -317q-14 -10 -33 -10t-33 10l-55 43q4 0 12 4q30 -17 58 4l399 317q13 9 15 25.5t-7 29.5q1 1 2 4t2 5zM1124 977q-50 0 -67 51h301q22 0 38.5 17.5t14.5 39.5q0 11 -4 31q4 20 4 27v8q-2 34 -14 92q56 -92 65 -209
q2 -22 -14.5 -39.5t-38.5 -17.5h-285zM651 1114q-4 2 -17.5 8t-19.5 8q-18 9 -28 19q36 55 147 61q56 -3 101 -28q10 -5 28 -23q-14 2 -45 2q-116 0 -166 -47zM1421 559q64 -103 64 -227q0 -152 -83.5 -260.5t-225 -161.5t-326.5 -53q-249 0 -426 94q142 -43 313 -43h62
q185 0 326.5 53t225 161.5t83.5 260.5v61q0 55 -13 115z" />
    <glyph glyph-name="scaron" unicode="&#x161;" horiz-adv-x="1431" 
d="M1249 1976q11 -13 9 -30.5t-15 -26.5l-399 -317q-14 -10 -33 -10t-33 10l-55 43q4 0 12 4q30 -17 58 4l399 317q13 9 15 25.5t-7 29.5q1 1 2 4t2 5zM1124 977q-50 0 -67 51h301q22 0 38.5 17.5t14.5 39.5q0 11 -4 31q4 20 4 27v8q-2 34 -14 92q56 -92 65 -209
q2 -22 -14.5 -39.5t-38.5 -17.5h-285zM651 1114q-4 2 -17.5 8t-19.5 8q-18 9 -28 19q36 55 147 61q56 -3 101 -28q10 -5 28 -23q-14 2 -45 2q-116 0 -166 -47zM1421 559q64 -103 64 -227q0 -152 -83.5 -260.5t-225 -161.5t-326.5 -53q-249 0 -426 94q142 -43 313 -43h62
q185 0 326.5 53t225 161.5t83.5 260.5v61q0 55 -13 115z" />
    <glyph glyph-name="Tcommaaccent" unicode="&#x162;" horiz-adv-x="1454" 
d="M1493 1485q20 0 34.5 -14.5t14.5 -34.5v-299q0 -20 -14.5 -35t-34.5 -15h-408q-17 0 -29 -11.5t-12 -28.5v-1110q0 -20 -14.5 -35t-34.5 -15h-311q-20 0 -34.5 15t-14.5 35v2h309q20 0 34.5 14.5t14.5 34.5v1110q0 17 12 29t29 12h408q20 0 34.5 14.5t14.5 34.5v297h2z
M137 1137v2h324v-52h-275q-20 0 -34.5 15t-14.5 35zM965 -236q53 -53 53 -143q0 -70 -53.5 -153t-161.5 -191q-13 -13 -35 -13t-35 13l-45 43h4q14 -7 31.5 -5t28.5 13q108 108 161.5 191t53.5 153q0 21 -2 31q2 10 2 31q0 20 -2 30z" />
    <glyph glyph-name="tcommaaccent" unicode="&#x163;" horiz-adv-x="1454" 
d="M1493 1485q20 0 34.5 -14.5t14.5 -34.5v-299q0 -20 -14.5 -35t-34.5 -15h-408q-17 0 -29 -11.5t-12 -28.5v-1110q0 -20 -14.5 -35t-34.5 -15h-311q-20 0 -34.5 15t-14.5 35v2h309q20 0 34.5 14.5t14.5 34.5v1110q0 17 12 29t29 12h408q20 0 34.5 14.5t14.5 34.5v297h2z
M137 1137v2h324v-52h-275q-20 0 -34.5 15t-14.5 35zM965 -236q53 -53 53 -143q0 -70 -53.5 -153t-161.5 -191q-13 -13 -35 -13t-35 13l-45 43h4q14 -7 31.5 -5t28.5 13q108 108 161.5 191t53.5 153q0 21 -2 31q2 10 2 31q0 20 -2 30z" />
    <glyph glyph-name="Tcaron" unicode="&#x164;" horiz-adv-x="1454" 
d="M1276 1976q11 -13 9 -30.5t-15 -26.5l-400 -317q-14 -10 -32.5 -10t-32.5 10l-55 43q4 0 12 4q30 -16 57 4l400 317q13 9 15 25.5t-7 29.5q1 1 2 4t2 5zM1493 1485q20 0 34.5 -14.5t14.5 -34.5v-299q0 -20 -14.5 -35t-34.5 -15h-408q-17 0 -29 -11.5t-12 -28.5v-1110
q0 -20 -14.5 -35t-34.5 -15h-311q-20 0 -34.5 15t-14.5 35v2h309q20 0 34.5 14.5t14.5 34.5v1110q0 17 12 29t29 12h408q20 0 34.5 14.5t14.5 34.5v297h2zM137 1137v2h324v-52h-275q-20 0 -34.5 15t-14.5 35z" />
    <glyph glyph-name="tcaron" unicode="&#x165;" horiz-adv-x="1454" 
d="M1276 1976q11 -13 9 -30.5t-15 -26.5l-400 -317q-14 -10 -32.5 -10t-32.5 10l-55 43q4 0 12 4q30 -16 57 4l400 317q13 9 15 25.5t-7 29.5q1 1 2 4t2 5zM1493 1485q20 0 34.5 -14.5t14.5 -34.5v-299q0 -20 -14.5 -35t-34.5 -15h-408q-17 0 -29 -11.5t-12 -28.5v-1110
q0 -20 -14.5 -35t-34.5 -15h-311q-20 0 -34.5 15t-14.5 35v2h309q20 0 34.5 14.5t14.5 34.5v1110q0 17 12 29t29 12h408q20 0 34.5 14.5t14.5 34.5v297h2zM137 1137v2h324v-52h-275q-20 0 -34.5 15t-14.5 35z" />
    <glyph glyph-name="Tbar" unicode="&#x166;" horiz-adv-x="1472" 
d="M1503 1485q20 0 34.5 -14.5t14.5 -34.5v-299q0 -20 -14.5 -35t-34.5 -15h-407q-17 0 -29 -11.5t-12 -28.5v-173h-51v224q0 17 11.5 29t28.5 12h408q20 0 34.5 14.5t14.5 34.5v297h2zM147 1137v2h324v-52h-274q-20 0 -35 15t-15 35zM1253 700q20 0 35 -14.5t15 -34.5v-205
q0 -20 -15 -34.5t-35 -14.5h-157q-17 0 -29 -12t-12 -29v-419q0 -20 -14.5 -35t-34.5 -15h-312q-20 0 -34.5 15t-14.5 35v2h309q20 0 35 14.5t15 34.5v420q0 17 11.5 29t28.5 12h158q20 0 34.5 14.5t14.5 34.5v202h2zM395 446v3h76v-52h-27q-20 0 -34.5 14.5t-14.5 34.5z
" />
    <glyph glyph-name="tbar" unicode="&#x167;" horiz-adv-x="1472" 
d="M1503 1485q20 0 34.5 -14.5t14.5 -34.5v-299q0 -20 -14.5 -35t-34.5 -15h-407q-17 0 -29 -11.5t-12 -28.5v-173h-51v224q0 17 11.5 29t28.5 12h408q20 0 34.5 14.5t14.5 34.5v297h2zM147 1137v2h324v-52h-274q-20 0 -35 15t-15 35zM1253 700q20 0 35 -14.5t15 -34.5v-205
q0 -20 -15 -34.5t-35 -14.5h-157q-17 0 -29 -12t-12 -29v-419q0 -20 -14.5 -35t-34.5 -15h-312q-20 0 -34.5 15t-14.5 35v2h309q20 0 35 14.5t15 34.5v420q0 17 11.5 29t28.5 12h158q20 0 34.5 14.5t14.5 34.5v202h2zM395 446v3h76v-52h-27q-20 0 -34.5 14.5t-14.5 34.5z
" />
    <glyph glyph-name="Utilde" unicode="&#x168;" 
d="M1315 1980q19 0 33 -15t12 -34q-2 -44 -9 -85t-26 -90t-47 -85t-76.5 -60t-111.5 -24q-91 0 -179 58q40 -7 66 -7q23 0 33 2q8 -2 28 -2q62 0 110.5 24t77 59.5t47.5 84t26.5 90t9.5 84.5h6zM756 1710v2q22 -15 55 -33q-4 -4 -4 -20q-2 -14 -12 -23.5t-23 -9.5h-190
q-19 0 -33 15t-12 34v2h184q13 0 23 9.5t12 23.5zM631 506q-23 30 -37 67q-23 67 -23 150v762h2q20 0 35 -14.5t15 -34.5v-826q0 -63 8 -104zM1632 1485q20 0 34.5 -14.5t14.5 -34.5v-850q0 -155 -48.5 -287.5t-139.5 -231t-231.5 -154.5t-315.5 -56q-222 0 -389 90
q121 -39 277 -39h61q175 0 315.5 56t231.5 154.5t139.5 231t48.5 287.5v848h2z" />
    <glyph glyph-name="utilde" unicode="&#x169;" 
d="M1315 1980q19 0 33 -15t12 -34q-2 -44 -9 -85t-26 -90t-47 -85t-76.5 -60t-111.5 -24q-91 0 -179 58q40 -7 66 -7q23 0 33 2q8 -2 28 -2q62 0 110.5 24t77 59.5t47.5 84t26.5 90t9.5 84.5h6zM756 1710v2q22 -15 55 -33q-4 -4 -4 -20q-2 -14 -12 -23.5t-23 -9.5h-190
q-19 0 -33 15t-12 34v2h184q13 0 23 9.5t12 23.5zM631 506q-23 30 -37 67q-23 67 -23 150v762h2q20 0 35 -14.5t15 -34.5v-826q0 -63 8 -104zM1632 1485q20 0 34.5 -14.5t14.5 -34.5v-850q0 -155 -48.5 -287.5t-139.5 -231t-231.5 -154.5t-315.5 -56q-222 0 -389 90
q121 -39 277 -39h61q175 0 315.5 56t231.5 154.5t139.5 231t48.5 287.5v848h2z" />
    <glyph glyph-name="Umacron" unicode="&#x16a;" 
d="M1266 1890q20 0 34.5 -14.5t14.5 -34.5v-205q0 -20 -14.5 -34.5t-34.5 -14.5h-635q-20 0 -34.5 14.5t-14.5 34.5v2h632q20 0 35 15t15 35v202h2zM631 506q-23 30 -37 67q-23 67 -23 150v762h2q20 0 35 -14.5t15 -34.5v-826q0 -63 8 -104zM1632 1485q20 0 34.5 -14.5
t14.5 -34.5v-850q0 -155 -48.5 -287.5t-139.5 -231t-231.5 -154.5t-315.5 -56q-222 0 -389 90q121 -39 277 -39h61q175 0 315.5 56t231.5 154.5t139.5 231t48.5 287.5v848h2z" />
    <glyph glyph-name="umacron" unicode="&#x16b;" 
d="M1266 1890q20 0 34.5 -14.5t14.5 -34.5v-205q0 -20 -14.5 -34.5t-34.5 -14.5h-635q-20 0 -34.5 14.5t-14.5 34.5v2h632q20 0 35 15t15 35v202h2zM631 506q-23 30 -37 67q-23 67 -23 150v762h2q20 0 35 -14.5t15 -34.5v-826q0 -63 8 -104zM1632 1485q20 0 34.5 -14.5
t14.5 -34.5v-850q0 -155 -48.5 -287.5t-139.5 -231t-231.5 -154.5t-315.5 -56q-222 0 -389 90q121 -39 277 -39h61q175 0 315.5 56t231.5 154.5t139.5 231t48.5 287.5v848h2z" />
    <glyph glyph-name="Ubreve" unicode="&#x16c;" 
d="M1360 1911q17 -10 22 -31.5t-4 -36.5q-67 -122 -176.5 -194t-255.5 -72q-137 0 -248 68q73 -17 136 -17h61q146 0 255.5 72t176.5 194q8 10 4 33zM631 506q-23 30 -37 67q-23 67 -23 150v762h2q20 0 35 -14.5t15 -34.5v-826q0 -63 8 -104zM1632 1485q20 0 34.5 -14.5
t14.5 -34.5v-850q0 -155 -48.5 -287.5t-139.5 -231t-231.5 -154.5t-315.5 -56q-222 0 -389 90q121 -39 277 -39h61q175 0 315.5 56t231.5 154.5t139.5 231t48.5 287.5v848h2z" />
    <glyph glyph-name="ubreve" unicode="&#x16d;" 
d="M1360 1911q17 -10 22 -31.5t-4 -36.5q-67 -122 -176.5 -194t-255.5 -72q-137 0 -248 68q73 -17 136 -17h61q146 0 255.5 72t176.5 194q8 10 4 33zM631 506q-23 30 -37 67q-23 67 -23 150v762h2q20 0 35 -14.5t15 -34.5v-826q0 -63 8 -104zM1632 1485q20 0 34.5 -14.5
t14.5 -34.5v-850q0 -155 -48.5 -287.5t-139.5 -231t-231.5 -154.5t-315.5 -56q-222 0 -389 90q121 -39 277 -39h61q175 0 315.5 56t231.5 154.5t139.5 231t48.5 287.5v848h2z" />
    <glyph glyph-name="Uring" unicode="&#x16e;" 
d="M1227 2064q59 -88 59 -190q0 -139 -101 -238.5t-241 -99.5q-102 0 -190 59q33 -8 77 -8q21 0 33 2q8 -2 29 -2q140 0 241 99.5t101 238.5q0 21 -2 29q2 12 2 33q0 41 -8 77zM631 506q-23 30 -37 67q-23 67 -23 150v762h2q20 0 35 -14.5t15 -34.5v-826q0 -63 8 -104z
M1632 1485q20 0 34.5 -14.5t14.5 -34.5v-850q0 -155 -48.5 -287.5t-139.5 -231t-231.5 -154.5t-315.5 -56q-222 0 -389 90q121 -39 277 -39h61q175 0 315.5 56t231.5 154.5t139.5 231t48.5 287.5v848h2z" />
    <glyph glyph-name="uring" unicode="&#x16f;" 
d="M1227 2064q59 -88 59 -190q0 -139 -101 -238.5t-241 -99.5q-102 0 -190 59q33 -8 77 -8q21 0 33 2q8 -2 29 -2q140 0 241 99.5t101 238.5q0 21 -2 29q2 12 2 33q0 41 -8 77zM631 506q-23 30 -37 67q-23 67 -23 150v762h2q20 0 35 -14.5t15 -34.5v-826q0 -63 8 -104z
M1632 1485q20 0 34.5 -14.5t14.5 -34.5v-850q0 -155 -48.5 -287.5t-139.5 -231t-231.5 -154.5t-315.5 -56q-222 0 -389 90q121 -39 277 -39h61q175 0 315.5 56t231.5 154.5t139.5 231t48.5 287.5v848h2z" />
    <glyph glyph-name="Uhungarumlaut" unicode="&#x170;" 
d="M1597 2040q13 -14 12 -34t-16 -32l-340 -274q-17 -12 -37.5 -11.5t-35.5 15.5l-39 41h2q27 -15 59 6l340 274q13 10 16 28.5t-6 31.5zM877 1931q10 -21 22 -30l25 -25l-222 -176q-17 -12 -37.5 -11.5t-35.5 15.5l-41 41h4q27 -15 59 6zM631 506q-23 30 -37 67
q-23 67 -23 150v762h2q20 0 35 -14.5t15 -34.5v-826q0 -63 8 -104zM1632 1485q20 0 34.5 -14.5t14.5 -34.5v-850q0 -155 -48.5 -287.5t-139.5 -231t-231.5 -154.5t-315.5 -56q-222 0 -389 90q121 -39 277 -39h61q175 0 315.5 56t231.5 154.5t139.5 231t48.5 287.5v848h2z
" />
    <glyph glyph-name="uhungarumlaut" unicode="&#x171;" 
d="M1597 2040q13 -14 12 -34t-16 -32l-340 -274q-17 -12 -37.5 -11.5t-35.5 15.5l-39 41h2q27 -15 59 6l340 274q13 10 16 28.5t-6 31.5zM877 1931q10 -21 22 -30l25 -25l-222 -176q-17 -12 -37.5 -11.5t-35.5 15.5l-41 41h4q27 -15 59 6zM631 506q-23 30 -37 67
q-23 67 -23 150v762h2q20 0 35 -14.5t15 -34.5v-826q0 -63 8 -104zM1632 1485q20 0 34.5 -14.5t14.5 -34.5v-850q0 -155 -48.5 -287.5t-139.5 -231t-231.5 -154.5t-315.5 -56q-222 0 -389 90q121 -39 277 -39h61q175 0 315.5 56t231.5 154.5t139.5 231t48.5 287.5v848h2z
" />
    <glyph glyph-name="Uogonek" unicode="&#x172;" 
d="M623 1436v-826q0 -63 8 -104q-23 30 -37 67q-23 67 -23 150v762h2q20 0 35 -14.5t15 -34.5zM1632 1485q20 0 34.5 -14.5t14.5 -34.5v-850q0 -264 -135 -454.5t-383 -250.5q-27 -6 -63 -24q-52 -30 -82 -64q-2 2 -27 14q-20 7 -45 11q29 47 103 90q36 18 63 24
q248 60 383 250.5t135 454.5v848h2zM1112 -410l31 -188q3 -19 -9.5 -34t-31.5 -17q-169 -9 -273 63q59 -12 127 -12h31q30 -3 64 0q19 2 31.5 17t9.5 34l-5 25q5 25 5 30v17l-21 117q35 -8 41 -52z" />
    <glyph glyph-name="uogonek" unicode="&#x173;" 
d="M623 1436v-826q0 -63 8 -104q-23 30 -37 67q-23 67 -23 150v762h2q20 0 35 -14.5t15 -34.5zM1632 1485q20 0 34.5 -14.5t14.5 -34.5v-850q0 -264 -135 -454.5t-383 -250.5q-27 -6 -63 -24q-52 -30 -82 -64q-2 2 -27 14q-20 7 -45 11q29 47 103 90q36 18 63 24
q248 60 383 250.5t135 454.5v848h2zM1112 -410l31 -188q3 -19 -9.5 -34t-31.5 -17q-169 -9 -273 63q59 -12 127 -12h31q30 -3 64 0q19 2 31.5 17t9.5 34l-5 25q5 25 5 30v17l-21 117q35 -8 41 -52z" />
    <glyph glyph-name="Wcircumflex" unicode="&#x174;" horiz-adv-x="2349" 
d="M1714 1827q15 -12 17.5 -33.5t-9.5 -36.5l-114 -141q-12 -17 -33.5 -20t-38.5 8l-66 45q7 0 19 4q17 -9 37 -5t30 19l115 141q15 18 8 47zM985 1655l211 137l66 -43q-5 0 -9 -4l-217 -141q-17 -11 -38 -8t-33 20l-27 33q25 -6 47 6zM2415 1485q19 0 30 -15t6 -32
l-423 -1504q-4 -20 -22 -33.5t-40 -13.5h-326q-22 0 -39.5 13t-23.5 34l-2 5h340q22 0 39.5 13.5t21.5 33.5l422 1499h17zM946 -14l236 719l35 -105l-220 -666q-6 -21 -23.5 -34t-39.5 -13h-326q-22 0 -39.5 13.5t-21.5 33.5l-2 5h338q22 0 39.5 13t23.5 34z" />
    <glyph glyph-name="wcircumflex" unicode="&#x175;" horiz-adv-x="2349" 
d="M1712 1827q15 -12 17.5 -33.5t-9.5 -36.5l-114 -141q-12 -17 -33.5 -20t-38.5 8l-66 45q7 0 19 4q17 -9 37 -5t30 19l115 141q15 18 8 47zM983 1655l211 137l66 -43q-5 0 -9 -4l-217 -141q-17 -11 -38 -8t-33 20l-27 33q25 -6 47 6zM2415 1485q19 0 30 -15t6 -32
l-423 -1504q-4 -20 -22 -33.5t-40 -13.5h-326q-22 0 -39.5 13t-23.5 34l-2 5h340q22 0 39.5 13.5t21.5 33.5l422 1499h17zM946 -14l236 719l35 -105l-220 -666q-6 -21 -23.5 -34t-39.5 -13h-326q-22 0 -39.5 13.5t-21.5 33.5l-2 5h338q22 0 39.5 13t23.5 34z" />
    <glyph glyph-name="ycircumflex" unicode="&#x177;" horiz-adv-x="1671" 
d="M1372 1827q15 -12 17.5 -33.5t-9.5 -36.5l-114 -141q-12 -17 -33.5 -20t-38.5 8l-66 45q7 0 19 4q17 -9 37 -5t30 19l115 141q15 18 8 47zM643 1655l211 137l66 -43q-5 0 -9 -4l-217 -141q-17 -11 -38 -8t-33 20l-27 33q25 -6 47 6zM1735 1485q17 0 24 -13.5t-2 -27.5
l-583 -936q-23 -33 -23 -76v-495q0 -20 -14.5 -35t-34.5 -15h-309q-20 0 -35 15t-15 35v2h308q20 0 34.5 14.5t14.5 34.5v495q0 45 22 76l578 926h35z" />
    <glyph glyph-name="Ydieresis" unicode="&#x178;" horiz-adv-x="1671" 
d="M1352 1921q51 -61 51 -133q0 -83 -57.5 -142t-139.5 -59q-75 0 -133 51h21q22 0 32 2q10 -2 29 -2q82 0 139.5 59t57.5 142q0 19 -2 29q2 10 2 33v20zM834 1868v10q9 -77 49 -131q-14 -68 -68.5 -114t-124.5 -46q-75 0 -133 51h21q22 0 32 2q10 -2 29 -2q82 0 139.5 59
t57.5 142q0 19 -2 29zM1735 1485q17 0 24 -13.5t-2 -27.5l-583 -936q-23 -33 -23 -76v-495q0 -20 -14.5 -35t-34.5 -15h-309q-20 0 -35 15t-15 35v2h308q20 0 34.5 14.5t14.5 34.5v495q0 45 22 76l578 926h35z" />
    <glyph glyph-name="Zacute" unicode="&#x179;" horiz-adv-x="1492" 
d="M1200 1870q7 -14 2.5 -29.5t-18.5 -21.5l-520 -240q-15 -6 -32 -0.5t-26 18.5l-16 31q6 -2 22 2l521 240q14 6 18.5 21.5t-2.5 29.5l-4 6q3 7 8 25zM1499 1147l-569 -690h-94l612 741q31 43 31 88v199h2q20 0 34.5 -14.5t14.5 -34.5v-201q0 -45 -31 -88zM250 1087
q-20 0 -34.5 15t-14.5 35v2h475l-43 -52h-383zM1483 283q20 0 34.5 -15t14.5 -35v-296q0 -20 -14.5 -35t-34.5 -15h-1258q-20 0 -34.5 15t-14.5 35v2h1256q20 0 34.5 14.5t14.5 34.5v295h2z" />
    <glyph glyph-name="zacute" unicode="&#x17a;" horiz-adv-x="1492" 
d="M1200 1870q7 -14 2.5 -29.5t-18.5 -21.5l-520 -240q-15 -6 -32 -0.5t-26 18.5l-16 31q6 -2 22 2l521 240q14 6 18.5 21.5t-2.5 29.5l-4 6q3 7 8 25zM1499 1147l-569 -690h-94l612 741q31 43 31 88v199h2q20 0 34.5 -14.5t14.5 -34.5v-201q0 -45 -31 -88zM250 1087
q-20 0 -34.5 15t-14.5 35v2h475l-43 -52h-383zM1483 283q20 0 34.5 -15t14.5 -35v-296q0 -20 -14.5 -35t-34.5 -15h-1258q-20 0 -34.5 15t-14.5 35v2h1256q20 0 34.5 14.5t14.5 34.5v295h2z" />
    <glyph glyph-name="Zdotaccent" unicode="&#x17b;" horiz-adv-x="1492" 
d="M1001 1901q52 -62 52 -134q0 -83 -57.5 -141.5t-139.5 -58.5q-75 0 -133 51h20q23 0 33 2q10 -2 29 -2q82 0 139 59t57 142q0 18 -2 28q2 10 2 33v21zM1499 1147l-569 -690h-94l612 741q31 43 31 88v199h2q20 0 34.5 -14.5t14.5 -34.5v-201q0 -45 -31 -88zM250 1087
q-20 0 -34.5 15t-14.5 35v2h475l-43 -52h-383zM1483 283q20 0 34.5 -15t14.5 -35v-296q0 -20 -14.5 -35t-34.5 -15h-1258q-20 0 -34.5 15t-14.5 35v2h1256q20 0 34.5 14.5t14.5 34.5v295h2z" />
    <glyph glyph-name="zdotaccent" unicode="&#x17c;" horiz-adv-x="1492" 
d="M1001 1901q52 -62 52 -134q0 -83 -57.5 -141.5t-139.5 -58.5q-75 0 -133 51h20q23 0 33 2q10 -2 29 -2q82 0 139 59t57 142q0 18 -2 28q2 10 2 33v21zM1499 1147l-569 -690h-94l612 741q31 43 31 88v199h2q20 0 34.5 -14.5t14.5 -34.5v-201q0 -45 -31 -88zM250 1087
q-20 0 -34.5 15t-14.5 35v2h475l-43 -52h-383zM1483 283q20 0 34.5 -15t14.5 -35v-296q0 -20 -14.5 -35t-34.5 -15h-1258q-20 0 -34.5 15t-14.5 35v2h1256q20 0 34.5 14.5t14.5 34.5v295h2z" />
    <glyph glyph-name="Zcaron" unicode="&#x17d;" horiz-adv-x="1492" 
d="M1294 1976q11 -13 9 -30.5t-15 -26.5l-399 -317q-13 -10 -32.5 -10t-33.5 10l-55 43q4 0 12 4q30 -17 58 4l399 317q13 9 15 25.5t-7 29.5q1 1 2 4t2 5zM1499 1147l-569 -690h-94l612 741q31 43 31 88v199h2q20 0 34.5 -14.5t14.5 -34.5v-201q0 -45 -31 -88zM250 1087
q-20 0 -34.5 15t-14.5 35v2h475l-43 -52h-383zM1483 283q20 0 34.5 -15t14.5 -35v-296q0 -20 -14.5 -35t-34.5 -15h-1258q-20 0 -34.5 15t-14.5 35v2h1256q20 0 34.5 14.5t14.5 34.5v295h2z" />
    <glyph glyph-name="zcaron" unicode="&#x17e;" horiz-adv-x="1492" 
d="M1292 1976q11 -13 9 -30.5t-15 -26.5l-399 -317q-13 -10 -32.5 -10t-33.5 10l-55 43q4 0 12 4q30 -17 58 4l399 317q13 9 15 25.5t-7 29.5q1 1 2 4t2 5zM1499 1147l-569 -690h-94l612 741q31 43 31 88v199h2q20 0 34.5 -14.5t14.5 -34.5v-201q0 -45 -31 -88zM250 1087
q-20 0 -34.5 15t-14.5 35v2h475l-43 -52h-383zM1483 283q20 0 34.5 -15t14.5 -35v-296q0 -20 -14.5 -35t-34.5 -15h-1258q-20 0 -34.5 15t-14.5 35v2h1256q20 0 34.5 14.5t14.5 34.5v295h2z" />
    <glyph glyph-name="AEacute" unicode="&#x1fc;" horiz-adv-x="2623" 
d="M2146 1870q7 -14 2.5 -29.5t-18.5 -21.5l-520 -240q-15 -6 -32 -0.5t-26 18.5l-16 31q6 -2 23 2l520 240q14 6 18.5 21.5t-2.5 29.5l-4 6q3 7 8 25zM2611 1485q20 0 34.5 -14.5t14.5 -34.5v-299q0 -20 -14.5 -35t-34.5 -15h-729q-17 0 -29 -11.5t-12 -28.5v-15h-51v66
q0 17 12 29t29 12h729q20 0 34.5 14.5t14.5 34.5v297h2zM1882 487q-14 0 -25 -8.5t-14 -21.5h-53v41q0 17 12 29t29 12h584q20 0 34.5 14.5t14.5 34.5v270h2q20 0 34.5 -14.5t14.5 -34.5v-272q0 -20 -14.5 -35t-34.5 -15h-584zM1231 666h-92l121 151v-117zM2611 283
q20 0 34.5 -15t14.5 -35v-296q0 -20 -14.5 -35t-34.5 -15h-1128q-20 0 -34.5 15t-14.5 35v2h1126q20 0 34.5 14.5t14.5 34.5v295h2zM727 139q23 33 66 33h467v-51h-416q-43 0 -66 -33l-129 -162q-28 -39 -80 -39h-428q-15 0 -21 13.5t3 25.5l10 13h385q53 0 80 38z" />
    <glyph glyph-name="aeacute" unicode="&#x1fd;" horiz-adv-x="2623" 
d="M2144 1870q7 -14 2.5 -29.5t-18.5 -21.5l-520 -240q-15 -6 -32 -0.5t-26 18.5l-16 31q6 -2 22 2l521 240q14 6 18.5 21.5t-2.5 29.5l-4 6q3 7 8 25zM2611 1485q20 0 34.5 -14.5t14.5 -34.5v-299q0 -20 -14.5 -35t-34.5 -15h-729q-17 0 -29 -11.5t-12 -28.5v-15h-51v66
q0 17 12 29t29 12h729q20 0 34.5 14.5t14.5 34.5v297h2zM1882 487q-14 0 -25 -8.5t-14 -21.5h-53v41q0 17 12 29t29 12h584q20 0 34.5 14.5t14.5 34.5v270h2q20 0 34.5 -14.5t14.5 -34.5v-272q0 -20 -14.5 -35t-34.5 -15h-584zM1231 666h-92l121 151v-117zM2611 283
q20 0 34.5 -15t14.5 -35v-296q0 -20 -14.5 -35t-34.5 -15h-1128q-20 0 -34.5 15t-14.5 35v2h1126q20 0 34.5 14.5t14.5 34.5v295h2zM727 139q23 33 66 33h467v-51h-416q-43 0 -66 -33l-129 -162q-28 -39 -80 -39h-428q-15 0 -21 13.5t3 25.5l10 13h385q53 0 80 38z" />
    <glyph glyph-name="Oslashacute" unicode="&#x1fe;" horiz-adv-x="1787" 
d="M1354 1870q7 -14 2 -29.5t-19 -21.5l-520 -240q-15 -6 -31.5 -1t-25.5 19l-17 31q6 -2 23 2l520 240q14 6 19 21.5t-2 29.5l-5 6q6 11 9 25zM1792 1446l-135 -168q-5 10 -12.5 20.5t-16.5 22t-14 18.5l117 146h43q15 0 21 -13.5t-3 -25.5zM573 713l-30 -39q-16 51 -19 94
q11 163 124 277t276 124q10 0 16 -2l-51 -63q-132 -37 -219.5 -144t-96.5 -247zM1765 1055q90 -175 90 -369q0 -168 -67.5 -321.5t-181 -264.5t-270.5 -177t-328 -66q-196 0 -373 86q-37 16 -64 -15l-4 -6q-31 -35 -73 -35h-252q-15 0 -21.5 13.5t2.5 25.5l10 13h209
q43 0 74 34l4 7l6 6q180 -78 369 -78h61q171 0 328 66t271 177t181.5 264.5t67.5 321.5v62q0 128 -39 256zM895 426h-16l376 467q13 -47 13 -94v-4l-289 -361q-54 -8 -84 -8z" />
    <glyph glyph-name="oslashacute" unicode="&#x1ff;" horiz-adv-x="1787" 
d="M1354 1870q7 -14 2 -29.5t-19 -21.5l-520 -240q-15 -6 -31.5 -1t-25.5 19l-17 31q6 -2 23 2l520 240q14 6 19 21.5t-2 29.5l-5 6q6 11 9 25zM1792 1446l-135 -168q-5 10 -12.5 20.5t-16.5 22t-14 18.5l117 146h43q15 0 21 -13.5t-3 -25.5zM573 713l-30 -39q-16 51 -19 94
q11 163 124 277t276 124q10 0 16 -2l-51 -63q-132 -37 -219.5 -144t-96.5 -247zM1765 1055q90 -175 90 -369q0 -168 -67.5 -321.5t-181 -264.5t-270.5 -177t-328 -66q-196 0 -373 86q-37 16 -64 -15l-4 -6q-31 -35 -73 -35h-252q-15 0 -21.5 13.5t2.5 25.5l10 13h209
q43 0 74 34l4 7l6 6q180 -78 369 -78h61q171 0 328 66t271 177t181.5 264.5t67.5 321.5v62q0 128 -39 256zM895 426h-16l376 467q13 -47 13 -94v-4l-289 -361q-54 -8 -84 -8z" />
    <glyph glyph-name="Scommaaccent" unicode="&#x218;" horiz-adv-x="1431" 
d="M1124 977q-50 0 -67 51h301q22 0 38.5 17.5t14.5 39.5q0 11 -4 31q4 20 4 27v8q-2 34 -14 92q56 -92 65 -209q2 -22 -14.5 -39.5t-38.5 -17.5h-285zM651 1114q-4 2 -17.5 8t-19.5 8q-18 9 -28 19q36 55 147 61q56 -3 101 -28q10 -5 28 -23q-14 2 -45 2q-116 0 -166 -47z
M1421 559q64 -103 64 -227q0 -152 -83.5 -260.5t-225 -161.5t-326.5 -53q-249 0 -426 94q142 -43 313 -43h62q185 0 326.5 53t225 161.5t83.5 260.5v61q0 55 -13 115zM975 -236q53 -53 53 -143q0 -70 -53.5 -153t-161.5 -191q-13 -13 -35 -13t-35 13l-45 43h4q14 -7 31.5 -5
t28.5 13q108 108 161.5 191t53.5 153q0 21 -2 31q2 10 2 31q0 20 -2 30z" />
    <glyph glyph-name="scommaaccent" unicode="&#x219;" horiz-adv-x="1431" 
d="M1124 977q-50 0 -67 51h301q22 0 38.5 17.5t14.5 39.5q0 11 -4 31q4 20 4 27v8q-2 34 -14 92q56 -92 65 -209q2 -22 -14.5 -39.5t-38.5 -17.5h-285zM651 1114q-4 2 -17.5 8t-19.5 8q-18 9 -28 19q36 55 147 61q56 -3 101 -28q10 -5 28 -23q-14 2 -45 2q-116 0 -166 -47z
M1421 559q64 -103 64 -227q0 -152 -83.5 -260.5t-225 -161.5t-326.5 -53q-249 0 -426 94q142 -43 313 -43h62q185 0 326.5 53t225 161.5t83.5 260.5v61q0 55 -13 115zM975 -236q53 -53 53 -143q0 -70 -53.5 -153t-161.5 -191q-13 -13 -35 -13t-35 13l-45 43h4q14 -7 31.5 -5
t28.5 13q108 108 161.5 191t53.5 153q0 21 -2 31q2 10 2 31q0 20 -2 30z" />
    <glyph glyph-name="circumflex" unicode="&#x2c6;" horiz-adv-x="1009" 
d="M1044 1827q15 -12 18 -33.5t-9 -36.5l-115 -141q-12 -17 -33.5 -20t-38.5 8l-65 45q6 0 18 4q17 -9 37.5 -5t30.5 19l114 141q16 19 9 47zM315 1655l211 137l66 -43q-4 0 -8 -4l-217 -141q-17 -11 -38.5 -8t-33.5 20l-27 33q25 -6 47 6z" />
    <glyph glyph-name="caron" unicode="&#x2c7;" horiz-adv-x="1009" 
d="M1057 1976q11 -13 9 -30.5t-15 -26.5l-400 -317q-14 -10 -32.5 -10t-32.5 10l-56 43q5 0 13 4q30 -16 57 4l399 317q13 9 15.5 25.5t-6.5 29.5q1 1 2 4t2 5z" />
    <glyph glyph-name="breve" unicode="&#x2d8;" horiz-adv-x="909" 
d="M981 1911q17 -10 22 -31.5t-4 -36.5q-67 -122 -176.5 -194t-255.5 -72q-137 0 -248 68q73 -17 136 -17h61q146 0 255.5 72t176.5 194q8 10 4 33z" />
    <glyph glyph-name="dotaccent" unicode="&#x2d9;" horiz-adv-x="395" 
d="M457 1901q51 -61 51 -134q0 -83 -57.5 -141.5t-139.5 -58.5q-75 0 -133 51h21q22 0 32 2q10 -2 29 -2q82 0 139.5 59t57.5 142q0 18 -2 28q2 10 2 33v21z" />
    <glyph glyph-name="ring" unicode="&#x2da;" horiz-adv-x="679" 
d="M733 2064q60 -89 60 -190q0 -139 -101 -238.5t-241 -99.5q-103 0 -191 59q33 -8 78 -8q21 0 33 2q8 -2 28 -2q140 0 241 99.5t101 238.5q0 21 -2 29q2 12 2 33q0 41 -8 77z" />
    <glyph glyph-name="ogonek" unicode="&#x2db;" horiz-adv-x="436" 
d="M416 -207q-2 2 -27 14q-16 7 -45 11q36 55 121 98q20 10 25.5 30t-3.5 38v2q0 4 2 6q24 -7 33 -27l17 -33q9 -19 3 -38t-26 -29q-60 -32 -100 -72zM510 -410l31 -188q3 -19 -9.5 -34t-31.5 -17q-169 -9 -273 63q58 -12 127 -12h31q30 -3 64 0q19 2 31 17t9 34l-4 25
q4 20 4 30v17l-20 117q35 -8 41 -52z" />
    <glyph glyph-name="tilde" unicode="&#x2dc;" horiz-adv-x="962" 
d="M961 1980q19 0 33 -15t12 -34q-2 -44 -9 -85t-26 -90t-47.5 -85t-77 -60t-111.5 -24q-90 0 -178 58q40 -7 66 -7q22 0 32 2q8 -2 29 -2q62 0 110.5 24t77 59.5t47.5 84t26 89.5t9 85h7zM401 1710v2q17 -11 56 -33q-4 -4 -4 -20q-2 -14 -12 -23.5t-23 -9.5h-191
q-19 0 -33 15t-12 34v2h185q13 0 22.5 9.5t11.5 23.5z" />
    <glyph glyph-name="hungarumlaut" unicode="&#x2dd;" horiz-adv-x="1165" 
d="M1243 2040q13 -14 12 -34t-16 -32l-340 -274q-17 -12 -38 -11.5t-36 15.5l-39 41h2q28 -15 60 6l340 274q13 10 16 28.5t-6 31.5zM522 1931q10 -19 23 -30l24 -25l-221 -176q-17 -12 -38 -11.5t-36 15.5l-41 41h5q27 -15 59 6z" />
    <glyph glyph-name="Wgrave" unicode="&#x1e80;" horiz-adv-x="2349" 
d="M1612 1829q17 -12 21.5 -32.5t-5.5 -39.5l-88 -151q-10 -19 -30.5 -25.5t-39.5 2.5l-100 47q1 0 4.5 -1t5.5 -1q1 0 37 6h2q19 -9 39.5 -2.5t30.5 25.5l88 151q12 18 4 41zM2415 1485q19 0 30 -15t6 -32l-423 -1504q-4 -20 -22 -33.5t-40 -13.5h-326q-22 0 -39.5 13
t-23.5 34l-2 5h340q22 0 39.5 13.5t21.5 33.5l422 1499h17zM946 -14l236 719l35 -105l-220 -666q-6 -21 -23.5 -34t-39.5 -13h-326q-22 0 -39.5 13.5t-21.5 33.5l-2 5h338q22 0 39.5 13t23.5 34z" />
    <glyph glyph-name="wgrave" unicode="&#x1e81;" horiz-adv-x="2349" 
d="M1612 1829q17 -12 21.5 -32.5t-5.5 -39.5l-88 -151q-10 -19 -30.5 -25.5t-39.5 2.5l-100 47q1 0 4.5 -1t5.5 -1q1 0 37 6h2q19 -9 39.5 -2.5t30.5 25.5l88 151q12 18 4 41zM2415 1485q19 0 30 -15t6 -32l-423 -1504q-4 -20 -22 -33.5t-40 -13.5h-326q-22 0 -39.5 13
t-23.5 34l-2 5h340q22 0 39.5 13.5t21.5 33.5l422 1499h17zM946 -14l236 719l35 -105l-220 -666q-6 -21 -23.5 -34t-39.5 -13h-326q-22 0 -39.5 13.5t-21.5 33.5l-2 5h338q22 0 39.5 13t23.5 34z" />
    <glyph glyph-name="Wacute" unicode="&#x1e82;" horiz-adv-x="2349" 
d="M1632 1870q7 -14 2.5 -29.5t-18.5 -21.5l-520 -240q-15 -6 -32 -0.5t-26 18.5l-16 31q6 -2 22 2l521 240q14 6 18.5 21.5t-2.5 29.5l-4 6q3 7 8 25zM2415 1485q19 0 30 -15t6 -32l-423 -1504q-4 -20 -22 -33.5t-40 -13.5h-326q-22 0 -39.5 13t-23.5 34l-2 5h340
q22 0 39.5 13.5t21.5 33.5l422 1499h17zM946 -14l236 719l35 -105l-220 -666q-6 -21 -23.5 -34t-39.5 -13h-326q-22 0 -39.5 13.5t-21.5 33.5l-2 5h338q22 0 39.5 13t23.5 34z" />
    <glyph glyph-name="wacute" unicode="&#x1e83;" horiz-adv-x="2349" 
d="M1632 1870q7 -14 2.5 -29.5t-18.5 -21.5l-520 -240q-15 -6 -32 -0.5t-26 18.5l-16 31q6 -2 22 2l521 240q14 6 18.5 21.5t-2.5 29.5l-4 6q3 7 8 25zM2415 1485q19 0 30 -15t6 -32l-423 -1504q-4 -20 -22 -33.5t-40 -13.5h-326q-22 0 -39.5 13t-23.5 34l-2 5h340
q22 0 39.5 13.5t21.5 33.5l422 1499h17zM946 -14l236 719l35 -105l-220 -666q-6 -21 -23.5 -34t-39.5 -13h-326q-22 0 -39.5 13.5t-21.5 33.5l-2 5h338q22 0 39.5 13t23.5 34z" />
    <glyph glyph-name="Wdieresis" unicode="&#x1e84;" horiz-adv-x="2351" 
d="M1692 1921q51 -61 51 -133q0 -83 -57.5 -142t-139.5 -59q-75 0 -133 51h21q22 0 32 2q10 -2 29 -2q82 0 139.5 59t57.5 142q0 19 -2 29q2 10 2 33v20zM1174 1868v10q9 -77 49 -131q-14 -68 -68.5 -114t-124.5 -46q-75 0 -133 51h21q22 0 32 2q10 -2 29 -2q82 0 139.5 59
t57.5 142q0 19 -2 29zM2415 1485q19 0 30 -15t6 -32l-423 -1504q-4 -20 -22 -33.5t-40 -13.5h-326q-22 0 -39.5 13t-23.5 34l-2 5h340q22 0 39.5 13.5t21.5 33.5l422 1499h17zM946 -14l236 719l35 -105l-220 -666q-6 -21 -23.5 -34t-39.5 -13h-326q-22 0 -39.5 13.5
t-21.5 33.5l-2 5h338q22 0 39.5 13t23.5 34z" />
    <glyph glyph-name="wdieresis" unicode="&#x1e85;" horiz-adv-x="2351" 
d="M1692 1921q51 -61 51 -133q0 -83 -57.5 -142t-139.5 -59q-75 0 -133 51h21q22 0 32 2q10 -2 29 -2q82 0 139.5 59t57.5 142q0 19 -2 29q2 10 2 33v20zM1174 1868v10q9 -77 49 -131q-14 -68 -68.5 -114t-124.5 -46q-75 0 -133 51h21q22 0 32 2q10 -2 29 -2q82 0 139.5 59
t57.5 142q0 19 -2 29zM2415 1485q19 0 30 -15t6 -32l-423 -1504q-4 -20 -22 -33.5t-40 -13.5h-326q-22 0 -39.5 13t-23.5 34l-2 5h340q22 0 39.5 13.5t21.5 33.5l422 1499h17zM946 -14l236 719l35 -105l-220 -666q-6 -21 -23.5 -34t-39.5 -13h-326q-22 0 -39.5 13.5
t-21.5 33.5l-2 5h338q22 0 39.5 13t23.5 34z" />
    <glyph glyph-name="uni1E9E" unicode="&#x1e9e;" horiz-adv-x="1810" 
d="M1724 1067l-161 -125q-30 17 -72 37l182 139q39 28 39 80v207q2 -2 4 -2q20 -6 33.5 -24t13.5 -40v-192q0 -52 -39 -80zM965 1161h-11q-171 0 -261.5 -90.5t-90.5 -234.5v-490l-12 -8q-24 -14 -39 -39v588q0 138 84 228t244 97q70 -3 137 -12zM1810 618q66 -101 66 -233
q0 -109 -44 -206t-120 -168t-184 -112.5t-232 -41.5q-200 0 -370 90q121 -39 258 -39h61q124 0 232 41.5t184 112.5t120 168t44 206v62q0 62 -15 120zM1114 537q-50 -10 -78 30l-16 23h2q16 -6 41 -2q51 9 90 12q38 -3 57 -8q53 -14 76 -41q0 -2 2 -4q-72 9 -174 -10z
M551 201q7 -14 12 -19q12 -16 39 -43v-202q0 -20 -14.5 -35t-34.5 -15h-287q-20 0 -34.5 15t-14.5 35v2h285q20 0 34.5 14.5t14.5 34.5v213z" />
    <glyph glyph-name="Ygrave" unicode="&#x1ef2;" horiz-adv-x="1671" 
d="M1272 1829q17 -12 21.5 -32.5t-5.5 -39.5l-88 -151q-10 -19 -30.5 -25.5t-39.5 2.5l-100 47q1 0 4.5 -1t5.5 -1q1 0 37 6h2q19 -9 39.5 -2.5t30.5 25.5l88 151q12 18 4 41zM1735 1485q17 0 24 -13.5t-2 -27.5l-583 -936q-23 -33 -23 -76v-495q0 -20 -14.5 -35t-34.5 -15
h-309q-20 0 -35 15t-15 35v2h308q20 0 34.5 14.5t14.5 34.5v495q0 45 22 76l578 926h35z" />
    <glyph glyph-name="ygrave" unicode="&#x1ef3;" horiz-adv-x="1671" 
d="M1270 1829q17 -12 21.5 -32.5t-5.5 -39.5l-88 -151q-10 -19 -30.5 -25.5t-39.5 2.5l-100 47q1 0 4.5 -1t5.5 -1q1 0 37 6h2q19 -9 39.5 -2.5t30.5 25.5l88 151q12 18 4 41zM1735 1485q17 0 24 -13.5t-2 -27.5l-583 -936q-23 -33 -23 -76v-495q0 -20 -14.5 -35t-34.5 -15
h-309q-20 0 -35 15t-15 35v2h308q20 0 34.5 14.5t14.5 34.5v495q0 45 22 76l578 926h35z" />
    <glyph glyph-name="endash" unicode="&#x2013;" horiz-adv-x="1296" 
d="M1245 745q20 0 34.5 -14.5t14.5 -34.5v-284q0 -20 -14.5 -35t-34.5 -15h-966q-20 0 -35 15t-15 35v2h965q20 0 34.5 14.5t14.5 34.5v282h2z" />
    <glyph glyph-name="emdash" unicode="&#x2014;" horiz-adv-x="1622" 
d="M1571 745q20 0 34.5 -14.5t14.5 -34.5v-284q0 -20 -14.5 -35t-34.5 -15h-1292q-20 0 -35 15t-15 35v2h1291q20 0 34.5 14.5t14.5 34.5v282h2z" />
    <glyph glyph-name="quoteleft" unicode="&#x2018;" horiz-adv-x="659" 
d="M668 1346q-44 -49 -88 -111q-20 32 -48 57q53 70 84 105q24 27 7 57v2l41 -39q15 -14 16 -35t-12 -36zM629 1065q0 7 -1 22.5t-1 22.5q53 -77 53 -158q0 -106 -76 -182t-182 -76q-89 0 -158 54q8 0 23 -1.5t22 -1.5q18 0 33 3q12 -3 29 -3q106 0 182 76.5t76 182.5
q0 20 -2 28q2 12 2 33z" />
    <glyph glyph-name="quoteright" unicode="&#x2019;" horiz-adv-x="651" 
d="M666 1415q57 -73 57 -180q0 -113 -86.5 -242.5t-253.5 -290.5q-13 -14 -35 -13t-35 16l-43 40h4q14 -7 30.5 -4.5t27.5 13.5q168 161 254 290t86 242q0 21 -2 31q2 10 2 31q0 37 -6 67z" />
    <glyph glyph-name="quotesinglbase" unicode="&#x201a;" horiz-adv-x="661" 
d="M641 270q57 -73 57 -180q0 -113 -86 -242t-254 -290q-13 -14 -34.5 -13.5t-34.5 15.5l-43 41h4q14 -7 30 -5t27 13q168 161 254 290t86 242q0 21 -2 31q2 10 2 31q0 37 -6 67z" />
    <glyph glyph-name="quotedblleft" unicode="&#x201c;" horiz-adv-x="1208" 
d="M1219 1346q-49 -55 -89 -111q-21 34 -47 57q53 70 84 105q24 27 7 57v2l40 -39q15 -14 16.5 -35t-11.5 -36zM666 1417q4 -4 6 -8q-4 -6 -13.5 -19.5t-13.5 -19.5q-41 -61 -70 -127q-18 27 -40 49q59 78 83 105t7 57v2zM1180 1065q0 7 -1 22.5t-1 22.5q53 -77 53 -158
q0 -106 -76 -182t-182 -76q-89 0 -158 54q8 0 23 -1.5t22 -1.5q18 0 33 3q12 -3 29 -3q106 0 182 76.5t76 182.5q0 20 -2 28q2 12 2 33zM600 883q11 -15 37 -45q10 -10 12 -11q-34 -61 -94 -97t-131 -36q-89 0 -158 54q8 0 23 -1.5t22 -1.5q18 0 33 3q12 -3 29 -3
q72 0 133 38t94 100z" />
    <glyph glyph-name="quotedblright" unicode="&#x201d;" horiz-adv-x="1202" 
d="M1217 1415q57 -73 57 -180q0 -113 -86.5 -242.5t-253.5 -290.5q-13 -14 -35 -13t-35 16l-43 40h4q14 -7 30.5 -4.5t27.5 13.5q168 161 254 290t86 242q0 21 -2 31q2 10 2 31q0 37 -6 67zM651 1176q16 -23 47 -54q-51 -69 -84 -106q-28 -28 -28 -74q0 -12 2 -18
q-74 -95 -205 -222q-13 -14 -35 -13t-35 16l-43 40h4q14 -7 30.5 -4.5t27.5 13.5q263 253 319 422z" />
    <glyph glyph-name="quotedblbase" unicode="&#x201e;" horiz-adv-x="1212" 
d="M641 270q57 -73 57 -180q0 -113 -86 -242t-254 -290q-13 -14 -34.5 -13.5t-34.5 15.5l-43 41h4q14 -7 30 -5t27 13q168 161 254 290t86 242q0 21 -2 31q2 10 2 31q0 37 -6 67zM1192 270q57 -73 57 -180q0 -113 -86 -242t-254 -290q-13 -14 -34.5 -13.5t-34.5 15.5l-43 41
h4q14 -7 30 -5t27 13q168 161 254 290t86 242q0 21 -2 31q2 10 2 31q0 37 -6 67z" />
    <glyph glyph-name="dagger" unicode="&#x2020;" horiz-adv-x="1001" 
d="M870 1255q0 -55 -26 -112h-80q1 4 12 20q43 65 43 144q0 18 -2 28q2 10 2 33q0 17 -4 45q55 -68 55 -158zM989 969q20 0 34.5 -14.5t14.5 -34.5v-209q0 -20 -14.5 -34.5t-34.5 -14.5h-147q-17 0 -29 -12t-12 -29v-986q0 -20 -14.5 -34.5t-34.5 -14.5h-275
q-20 0 -34.5 14.5t-14.5 34.5v3h272q20 0 35 14.5t15 34.5v985q0 17 12 29t29 12h147q20 0 34.5 14.5t14.5 34.5v207h2zM188 711v2h66v-51h-16q-20 0 -35 14.5t-15 34.5z" />
    <glyph glyph-name="daggerdbl" unicode="&#x2021;" horiz-adv-x="1013" 
d="M877 1255q0 -53 -27 -112h-80q1 4 12 20q43 65 43 144q0 18 -2 28q2 10 2 33q0 17 -4 45q56 -69 56 -158zM995 969q20 0 34.5 -14.5t14.5 -34.5v-209q0 -20 -14.5 -34.5t-34.5 -14.5h-20q-8 12 -14 18q-30 33 -78 33h61q20 0 34.5 14.5t14.5 34.5v207h2zM995 539
q20 0 34.5 -15t14.5 -35v-208q0 -20 -14.5 -35t-34.5 -15h-147q-17 0 -29 -12t-12 -29v-555q0 -20 -14.5 -34.5t-34.5 -14.5h-275q-20 0 -34.5 14.5t-14.5 34.5v3h273q20 0 34.5 14.5t14.5 34.5v555q0 17 12 29t29 12h147q20 0 34.5 14.5t14.5 34.5v207h2zM195 281v2h65v-52
h-16q-20 0 -34.5 15t-14.5 35z" />
    <glyph glyph-name="bullet" unicode="&#x2022;" horiz-adv-x="925" 
d="M846 733q57 -82 57 -180q0 -135 -97 -232.5t-231 -97.5q-99 0 -182 58q40 -7 70 -7q23 0 33 2q8 -2 28 -2q134 0 231 97.5t97 232.5q0 19 -2 29q2 10 2 33q0 32 -6 67z" />
    <glyph glyph-name="ellipsis" unicode="&#x2026;" horiz-adv-x="1826" 
d="M1815 268q55 -68 55 -157q0 -106 -76 -182t-182 -76q-90 0 -158 55q28 -4 45 -4q23 0 33 2q10 -2 29 -2q106 0 182 76t76 182q0 18 -2 28q2 10 2 33q0 17 -4 45zM389 -96q83 0 150 49t94 125q15 -28 45 -66q-30 -71 -94.5 -115t-143.5 -44q-89 0 -157 55q28 -4 45 -4
q22 0 32 2q10 -2 29 -2zM979 -96q80 0 146 46.5t96 119.5q21 -40 45 -64q-31 -69 -95 -111t-141 -42q-90 0 -158 55q28 -4 46 -4q22 0 32 2q10 -2 29 -2z" />
    <glyph glyph-name="perthousand" unicode="&#x2030;" horiz-adv-x="3180" 
d="M2003 1446l-385 -535q-54 -10 -115 -37l441 611h38q15 0 22.5 -13.5t-1.5 -25.5zM1073 1145l-47 -64q2 12 2 37v62q0 65 -14 120q44 -71 59 -155zM698 627q-35 -6 -67 -6q-125 0 -236 65q55 -14 123 -14h62q92 0 180 37zM3158 530q66 -109 66 -233q0 -185 -132 -316
t-317 -131q-122 0 -235 66q55 -14 122 -14h62q185 0 316.5 130.5t131.5 315.5v62q0 65 -14 120zM1206 463q-2 -18 -2 -53q0 -22 4 -68l-299 -416q-31 -39 -78 -39h-346q-15 0 -22 13.5t2 25.5l8 13h307q48 0 78 38zM1776 -98q145 0 260.5 82.5t161.5 214.5q15 -34 43 -74
q-52 -123 -164.5 -199t-249.5 -76q-123 0 -236 66q55 -14 123 -14h62z" />
    <glyph glyph-name="guilsinglleft" unicode="&#x2039;" horiz-adv-x="813" 
d="M754 1276q10 9 23.5 3.5t13.5 -19.5v-386q0 -49 -37 -81l-123 -109l-53 49l124 111q37 32 37 82v338zM754 479q37 -32 37 -82v-383q0 -14 -13.5 -19.5t-23.5 3.5l-62 55q2 0 4 2l6 -6q10 -9 23.5 -3t13.5 20v426z" />
    <glyph glyph-name="guilsinglright" unicode="&#x203a;" horiz-adv-x="813" 
d="M791 829q36 -31 36 -81v-220q0 -51 -36 -82l-506 -448q-11 -9 -24 -3.5t-13 19.5v47l491 437q37 32 37 82v262z" />
    <glyph glyph-name="fraction" unicode="&#x2044;" horiz-adv-x="1275" 
d="M1391 1485q17 0 24.5 -14t-0.5 -29l-897 -1512q-22 -43 -74 -43h-333q-17 0 -25 14t0 29l4 9h303q52 0 74 43l893 1503h31z" />
    <glyph glyph-name="zerosuperior" unicode="&#x2070;" horiz-adv-x="1005" 
d="M997 1282q78 -141 78 -315q0 -105 -30 -201t-86.5 -172.5t-146 -122t-200.5 -45.5q-129 0 -231 63q55 -12 119 -12h61q111 0 200.5 45.5t146 122t86.5 172.5t30 201v61q0 104 -27 203zM442 897q-20 20 -30 49q-19 43 -25 103q6 94 44 154.5t95 74.5q2 -1 7.5 -3t7.5 -3
q26 -15 43 -43q-65 -14 -105.5 -83.5t-40.5 -178.5q0 -24 4 -70z" />
    <glyph glyph-name="foursuperior" unicode="&#x2074;" horiz-adv-x="917" 
d="M803 1442l-115 -195h-82l142 238h30q17 0 25 -14t0 -29zM954 887q20 0 35 -14.5t15 -34.5v-168q0 -20 -15 -34.5t-35 -14.5h-14q-17 0 -29 -12t-12 -29v-84q0 -20 -14.5 -35t-34.5 -15h-176q-20 0 -34.5 15t-14.5 35v2h174q20 0 34.5 14.5t14.5 34.5v84q0 17 12 29t29 12
h14q20 0 34.5 14.5t14.5 34.5v166h2zM133 670v2h318v-51h-269q-20 0 -34.5 14.5t-14.5 34.5z" />
    <glyph glyph-name="fivesuperior" unicode="&#x2075;" horiz-adv-x="905" 
d="M809 1198l-2 2q-26 26 -59 49h53q20 0 34.5 14.5t14.5 34.5v187h2q20 0 34.5 -14.5t14.5 -34.5v-189q0 -20 -14.5 -34.5t-34.5 -14.5h-43zM918 995q59 -88 59 -196q0 -162 -119.5 -267.5t-300.5 -105.5q-143 0 -260 70q74 -19 147 -19h62q181 0 300.5 105.5t119.5 267.5
q0 21 -2 29q2 12 2 32q0 48 -8 84zM442 877q-28 0 -55 10h-2q25 13 27 14q44 30 84 39h2q1 -1 4 -3t4 -3q4 -4 6 -10q2 -4 2 -13q0 -6 -2 -10q-5 -10 -18 -14q-17 -10 -52 -10z" />
    <glyph glyph-name="sixsuperior" unicode="&#x2076;" horiz-adv-x="903" 
d="M868 1446l-127 -168q-41 25 -65 33l131 174h43q15 0 21 -13.5t-3 -25.5zM922 1022q59 -81 59 -193q0 -171 -120.5 -287t-291.5 -116q-125 0 -231 66q58 -15 119 -15h61q171 0 291.5 116.5t120.5 287.5q0 20 -2 28q2 10 2 33q0 47 -8 80zM395 897q-7 5 -14 18q9 24 35 50
q30 27 63 32q15 -3 33 -16q6 -6 14 -18q4 -12 4 -17q-32 -5 -63 -33q-21 -21 -29 -34q-28 3 -43 18z" />
    <glyph glyph-name="sevensuperior" unicode="&#x2077;" horiz-adv-x="798" 
d="M850 1485q20 0 34.5 -14.5t14.5 -34.5v-129q0 -54 -22 -93l-377 -725q-22 -43 -72 -43h-223q-17 0 -25.5 14t0.5 29l4 9h193q50 0 72 43l376 725q23 41 23 92v127h2zM326 1202h-121q-20 0 -34.5 14.5t-14.5 34.5v2h198z" />
    <glyph glyph-name="eightsuperior" unicode="&#x2078;" horiz-adv-x="944" 
d="M922 1038q-15 28 -43 60q45 61 45 147q0 21 -2 29q2 10 2 33q0 17 -4 53q55 -74 55 -166q0 -93 -53 -156zM473 1270q-13 0 -29 4q-1 1 -3 2t-3 2q21 29 62 37q10 -3 12 -8q6 -4 6 -11t-6 -16l-12 -6q-12 -4 -27 -4zM473 850q-40 0 -67 18q-4 4 -5 4q27 52 101 64
q24 -6 37 -16q14 -12 14 -27q0 -6 -2 -8q-46 -8 -76 -35h-2zM961 926q55 -71 55 -170q0 -144 -126 -237t-304 -93q-153 0 -275 72q77 -21 162 -21h62q178 0 304 93t126 237q0 21 -2 31q2 10 2 30q0 22 -4 58z" />
    <glyph glyph-name="ninesuperior" unicode="&#x2079;" horiz-adv-x="901" 
d="M918 1315q61 -92 61 -203q0 -139 -105 -276l-270 -351q-28 -39 -80 -39h-245q-15 0 -21.5 13.5t2.5 25.5l10 13h203q52 0 80 39l270 350q105 137 105 276q0 21 -2 29q2 10 2 33q0 42 -10 90zM391 1176q-10 10 -12 16q10 32 36.5 54t61.5 30q18 -3 31 -16q10 -7 14 -19
t4 -16q-63 -12 -90 -68q-25 3 -45 19z" />
    <glyph glyph-name="Euro" unicode="&#x20ac;" horiz-adv-x="1863" 
d="M1573 915q-20 -11 -40 -5t-32 26q-1 1 -8 11t-12 16q23 -6 41 4l282 125q17 7 22.5 27.5t-3.5 35.5v2q1 3 2 8.5t2 8.5q40 -57 47 -70q9 -15 3.5 -36t-22.5 -28zM1225 979h2q20 0 34.5 -14.5t14.5 -34.5v-168q0 -20 -14.5 -34.5t-34.5 -14.5h-88q-4 32 -17 51h54
q20 0 34.5 14.5t14.5 34.5v166zM1139 643h2q20 0 34.5 -14.5t14.5 -34.5v-133q-57 -23 -76 -27q25 18 25 43v166zM1071 428q-14 -2 -41 -2t-39 2h80zM1858 334q17 -6 23 -26.5t-5 -35.5q-110 -190 -306 -302.5t-427 -112.5q-203 0 -389 94q130 -43 276 -43h62
q230 0 426.5 113t306.5 303q6 9 6 22z" />
    <glyph glyph-name="trademark" unicode="&#x2122;" horiz-adv-x="1779" 
d="M1716 1485q20 0 34.5 -14.5t14.5 -34.5v-582q0 -20 -14.5 -34.5t-34.5 -14.5h-186q-20 0 -34.5 14.5t-14.5 34.5v2h184q20 0 34.5 14.5t14.5 34.5v580h2zM621 1212q0 17 12 29t29 12h79v-51h-28q-17 0 -29 -12t-12 -29v-307q0 -20 -14.5 -34.5t-34.5 -14.5h-189
q-20 0 -34.5 14.5t-14.5 34.5v2h186q20 0 35 14.5t15 34.5v307zM1151 950q1 -1 3 -2t3 -2q23 -13 45 -16v-76q0 -20 -14.5 -34.5t-34.5 -14.5h-188q-20 0 -35 14.5t-15 34.5v2h187q20 0 34.5 14.5t14.5 34.5v45zM1313 932q10 -27 26 -43q2 -2 6.5 -6t6.5 -6h-13
q-46 0 -67 38l-8 17q16 -4 24 -4h4q9 0 21 4z" />
    <glyph glyph-name="minus" unicode="&#x2212;" horiz-adv-x="1185" 
d="M1133 821q20 0 34.5 -14.5t14.5 -34.5v-272q0 -20 -14.5 -34.5t-34.5 -14.5h-854q-20 0 -35 14.5t-15 34.5v2h852q20 0 34.5 14.5t14.5 34.5v270h3z" />
    <glyph glyph-name="leftspur" unicode="&#xe001;" horiz-adv-x="210" 
 />
    <glyph glyph-name="rightspur" unicode="&#xe002;" horiz-adv-x="210" 
d="M289 721q13 -13 13 -35t-13 -35l-176 -180v104l125 127q11 11 13 28.5t-5 31.5v2z" />
    <glyph glyph-name="leftspurA" unicode="&#xe003;" horiz-adv-x="276" 
 />
    <glyph glyph-name="rightspurA" unicode="&#xe004;" horiz-adv-x="276" 
d="M344 786q19 -7 27 -26.5t0 -38.5l-97 -234l-34 88l79 197q5 10 5 23z" />
    <glyph glyph-name="leftspurS" unicode="&#xe005;" horiz-adv-x="403" 
d="M233 434l193 84l90 -35l-231 -100q-19 -8 -39 -0.5t-27 25.5l-10 22q16 0 24 4z" />
    <glyph glyph-name="rightspurS" unicode="&#xe006;" horiz-adv-x="403" 
 />
    <glyph glyph-name="leftspurV" unicode="&#xe007;" horiz-adv-x="276" 
 />
    <glyph glyph-name="rightspurV" unicode="&#xe008;" horiz-adv-x="276" 
d="M371 653q8 -19 0 -38.5t-27 -26.5l-231 -101l37 88l143 64q19 7 26.5 27t-0.5 39l-2 6q7 21 7 37t-7 34z" />
    <glyph glyph-name="leftspurW" unicode="&#xe009;" horiz-adv-x="260" 
 />
    <glyph glyph-name="rightspurW" unicode="&#xe010;" horiz-adv-x="260" 
d="M348 672q11 -19 6 -38.5t-24 -29.5l-217 -125l26 96l140 80q19 10 24 29.5t-6 38.5q6 12 6 31z" />
    <glyph glyph-name="leftspurZ" unicode="&#xe012;" horiz-adv-x="301" 
 />
    <glyph glyph-name="rightspurZ" unicode="&#xe013;" horiz-adv-x="301" 
d="M408 492q1 -20 -12 -35.5t-34 -18.5l-249 -26l51 61l147 16q20 3 33 18.5t12 35.5l-2 32q2 8 2 25v8l-8 90l39 45z" />
    <glyph glyph-name="numbersignsuperior" unicode="&#xe909;" horiz-adv-x="1085" 
d="M1063 1436l-2 -9q-26 22 -55 25l6 33h10q19 0 31.5 -14.5t9.5 -34.5zM1102 1280q20 0 34.5 -14.5t14.5 -34.5v-152q0 -20 -14.5 -34.5t-34.5 -14.5h-72q-10 0 -22 -6q-2 4 -13 16q-19 22 -49 29q15 12 33 12h72q20 0 34.5 14.5t14.5 34.5v150h2zM1030 899
q20 0 34.5 -14.5t14.5 -34.5v-152q0 -20 -14.5 -34.5t-34.5 -14.5h-72q-18 0 -32 -11.5t-17 -29.5l-20 -112q-3 -22 -19.5 -36t-38.5 -14h-159q-19 0 -31.5 15t-9.5 35v2h149q22 0 38.5 13.5t19.5 35.5l20 112q3 18 17 29.5t32 11.5h72q20 0 34.5 15t14.5 35v149h2zM461 573
q7 -28 24 -45q4 -3 11.5 -9t11.5 -9l-2 -14q-3 -22 -19 -36t-38 -14h-162q-19 0 -31.5 15t-9.5 35v2h151q22 0 38.5 13.5t19.5 35.5z" />
    <glyph glyph-name="percentsuperior" unicode="&#xe910;" horiz-adv-x="1474" 
d="M1178 1192q-7 0 -23.5 1t-24.5 1q-28 0 -40 -2l219 293h41q15 0 22 -13.5t-2 -25.5zM414 954l-33 -43q-56 14 -107 50q40 -7 66 -7q23 0 33 2q8 -2 28 -2h13zM1489 895q57 -75 57 -176q0 -126 -88.5 -213.5t-214.5 -87.5q-101 0 -176 57q30 -6 63 -6q21 0 33 2
q8 -2 29 -2q126 0 214.5 87.5t88.5 213.5q0 21 -2 29q2 10 2 32q0 34 -6 64zM596 537l178 237q4 -28 25 -86l-152 -203q-27 -39 -78 -39h-215q-15 0 -22 13.5t2 25.5l10 13h174q51 0 78 39z" />
    <glyph glyph-name="sterlingsuperior" unicode="&#xe911;" horiz-adv-x="843" 
d="M852 1376q57 -77 57 -192q0 -10 -6.5 -16.5t-15.5 -6.5h-201q-4 8 -8 10q-21 21 -45 29q-4 4 -8 12h211q9 0 15.5 6.5t6.5 16.5q0 29 -2 43q2 6 2 18q0 42 -6 80zM465 1204q-3 10 -8.5 27t-7.5 24h-3q9 18 21 27l12 -18q12 -17 21 -23q4 -4 16 -12q-11 -9 -18 -25h-33z
M762 981v-82q-20 4 -31 4h-20v127h2q20 0 34.5 -14.5t14.5 -34.5zM844 729q20 0 34.5 -14.5t14.5 -34.5v-184q0 -20 -14.5 -35t-34.5 -15h-623q-20 0 -34.5 15t-14.5 35v2h621q20 0 34.5 14.5t14.5 34.5v182h2z" />
    <glyph glyph-name="Eurosuperior" unicode="&#xe912;" horiz-adv-x="1193" 
d="M1055 1112q-45 -22 -74 21q-4 5 -12.5 14t-12.5 14q24 -10 48 2l165 76q17 6 22.5 26t-3.5 35q0 3 -2 3q4 8 4 10q31 -34 49 -64q9 -15 4 -35t-22 -26zM1221 748q17 -7 23 -27t-5 -35q-73 -119 -198 -189.5t-271 -70.5t-272 74q84 -23 159 -23h62q146 0 271 70.5
t198 189.5q6 9 6 21z" />
    <glyph glyph-name="fraction.alt" unicode="&#xe999;" horiz-adv-x="1153" 
d="M1268 1485q17 0 24.5 -14t-0.5 -29l-897 -1512q-22 -43 -73 -43h-211q-17 0 -25 14t0 29l4 9h180q52 0 74 43l893 1503h31z" />
    <glyph glyph-name="commaaccent" unicode="&#xf6c3;" horiz-adv-x="628" 
d="M647 -236q53 -53 53 -143q0 -70 -53.5 -153t-161.5 -191q-13 -13 -34 -13t-35 13l-45 43h4q14 -7 31 -5t28 13q108 108 161.5 191t53.5 153q0 21 -2 31q2 10 2 31q0 20 -2 30z" />
    <glyph glyph-name="centsuperior" unicode="&#xf6e0;" horiz-adv-x="804" 
d="M582 987q-4 2 -13.5 6t-13.5 6q-3 0 -9 1t-9 1q2 1 7 2.5t7 2.5q2 0 4 2q18 -7 27.5 -6.5t29.5 8.5l170 77q17 6 22.5 26.5t-5.5 33.5q0 4 2 6q30 -30 49 -57q11 -13 6 -33.5t-22 -26.5l-170 -78q-1 -1 -4.5 -2t-4.5 -2zM834 745q17 -7 22 -26.5t-4 -32.5
q-57 -76 -139 -119q-37 -18 -37 -61v-43q0 -20 -14.5 -34.5t-34.5 -14.5h-174q-20 0 -35 14.5t-15 34.5v2h172q20 0 35 14.5t15 34.5v43q0 43 37 61q82 43 139 119q6 9 6 21z" />
    <glyph glyph-name="dollarsuperior" unicode="&#xf6e4;" horiz-adv-x="823" 
d="M772 1104q-21 26 -53 51h63q17 0 30.5 18t10.5 35q-1 4 -2 12t-2 11q4 20 4 33v12q39 -50 51 -119q3 -18 -10 -35.5t-30 -17.5h-62zM836 954q53 -59 53 -149q0 -91 -52 -156.5t-143 -95.5q-39 -16 -39 -55v-35q0 -20 -14.5 -34.5t-34.5 -14.5h-170q-20 0 -34.5 14.5
t-14.5 34.5v2h168q20 0 34.5 14.5t14.5 34.5v35q0 39 39 55q91 30 143 95.5t52 156.5q0 19 -2 29q2 10 2 33q0 24 -2 36z" />
    <glyph glyph-name="apple" unicode="&#xf8ff;" horiz-adv-x="1523" 
d="M1395 752q-20 -7 -21 -22t15 -25l57 -41q11 -7 14.5 -14.5t-2 -13.5t-18.5 -9l-70 -13q-21 -3 -24.5 -16.5t10.5 -28.5l49 -49q13 -14 9 -24.5t-25 -10.5l-72 4q-20 0 -26.5 -11.5t5.5 -28.5l37 -62q10 -17 4 -25.5t-26 -5.5l-70 19q-18 6 -27.5 -5t-3.5 -30l23 -68
q8 -19 0 -26t-27 2l-63 31q-17 9 -28.5 1t-10.5 -30l10 -68q1 -21 -7.5 -25.5t-23.5 7.5l-57 43q-15 12 -28.5 5.5t-14.5 -26.5l-4 -69q-1 -20 -12 -23.5t-23 10.5l-47 56q-13 14 -26 12t-19 -22l-21 -68q-3 -13 -9.5 -18t-13.5 -1t-13 15l-35 61q-9 19 -22 19t-25 -19
l-31 -61q-6 -11 -13.5 -15t-14 1t-9.5 18l-20 68q-6 20 -19 22t-26 -12l-48 -56q-12 -14 -21.5 -10.5t-12.5 23.5l-4 69q-2 20 -15 26.5t-30 -5.5l-54 -43q-17 -13 -27 -8t-6 26l11 68q1 22 -10.5 30t-30.5 -1l-62 -31q-19 -9 -26.5 -2t0.5 26l22 68q8 19 -1.5 30t-28.5 5
l-70 -19q-20 -3 -26.5 5.5t3.5 25.5l39 62q11 17 4.5 28.5t-26.5 11.5l-72 -4q-21 0 -25 10.5t9 24.5l51 49q13 15 8.5 28.5t-25.5 16.5l-67 13q-21 4 -23.5 15.5t15.5 21.5l57 41l12 12q19 16 37 -12l33 -64q6 -12 13 -15.5t13.5 2t10.5 17.5l18 70q6 19 19.5 21t25.5 -13
l47 -53q13 -15 23.5 -11.5t11.5 23.5l4 70q3 20 15.5 25t27.5 -7l58 -43q17 -12 25.5 -7t4.5 25l-8 70q-3 20 8.5 28t28.5 -1l64 -29q19 -9 26.5 -1.5t1.5 26.5l-22 67q-8 19 0.5 29t27.5 4l15 -2q40 -77 70 -202.5t30 -217.5q-15 -18 -34.5 -27.5t-59.5 -9.5h-8
q0 46 -33 72q18 -21 18 -55v-15q-32 3 -32 39q0 43 -28 72t-77 29q-41 0 -68.5 -32t-27.5 -79q0 -60 49.5 -96.5t138.5 -36.5q85 0 172 42t156.5 112t125 154.5t86 175.5t30.5 169q0 59 -36.5 98t-94.5 39q-48 0 -85.5 -33.5t-37.5 -84.5q0 -52 30.5 -82.5t87.5 -36.5
q-30 -122 -59 -174q-12 96 -43.5 178t-75.5 129q91 -120 107 -330l-29 -41q0 156 -51 287t-131 172q-5 9 2 18.5t22 12.5l70 12q19 3 21 13.5t-15 21.5l-59 39q-15 13 -13.5 26.5t19.5 20.5l63 28q14 4 19.5 11t0 14t-19.5 12l-63 27q-24 11 -21 29q13 6 15 16l35 61
q9 19 20 18t16 -20l21 -67q6 -21 18.5 -24t26.5 14l47 53q12 15 23 12.5t12 -22.5l4 -72q1 -21 14.5 -26.5t28.5 7.5l57 44q15 12 24 5.5t7 -26.5l-10 -70q-1 -20 10.5 -27.5t28.5 1.5l63 33q19 8 26.5 0t0.5 -29l-23 -64q-6 -20 3 -30t28 -4l70 14q20 6 26.5 -2t-4.5 -27
l-37 -59q-12 -17 -5.5 -29.5t26.5 -11.5l72 4q21 0 25 -11t-9 -24l-49 -53q-14 -13 -10.5 -26.5t24.5 -16.5l70 -12q43 -10 6 -39l-57 -39q-16 -10 -15 -24t21 -21l63 -27q12 -5 16.5 -12t0 -13.5t-16.5 -11.5zM614 336q106 0 212.5 65t183.5 162t125.5 212t48.5 214
q0 63 -41 101q24 -38 24 -84q0 -100 -47.5 -215.5t-126.5 -215.5q-85 -105 -188.5 -168t-212.5 -63q-60 0 -100 18q42 -26 122 -26z" />
    <glyph glyph-name="yensuperior" horiz-adv-x="1200" 
d="M1235 1485q17 0 24 -13.5t-2 -27.5l-210 -328v43q0 21 -9 39q-4 10 -12 19l174 268h35zM1063 1081q14 0 24.5 -10.5t10.5 -23.5v-132q0 -20 -14.5 -34.5t-34.5 -14.5h-2v15q0 29 -15 53q15 15 15 33v118q8 -4 12 -4h4zM1049 817q20 0 34.5 -14.5t14.5 -34.5v-117
q0 -20 -14.5 -34.5t-34.5 -14.5h-148q-17 0 -29 -12t-12 -29v-65q0 -20 -14.5 -35t-34.5 -15h-195q-20 0 -34.5 15t-14.5 35v2h193q20 0 34.5 14.5t14.5 34.5v65q0 17 12 29t29 12h147q20 0 35 14.5t15 34.5v115h2zM393 653v-51h-14q-20 0 -34.5 14.5t-14.5 34.5v2h63z" />
    </font>
</defs>
</svg>
